<?xml version="1.0" encoding="UTF-8" standalone="no"?>
<!-- Created with Inkscape (http://www.inkscape.org/) -->

<svg
   xmlns:ns0="http://www.iki.fi/pav/software/textext/"
   xmlns:dc="http://purl.org/dc/elements/1.1/"
   xmlns:cc="http://creativecommons.org/ns#"
   xmlns:rdf="http://www.w3.org/1999/02/22-rdf-syntax-ns#"
   xmlns:svg="http://www.w3.org/2000/svg"
   xmlns="http://www.w3.org/2000/svg"
   xmlns:sodipodi="http://sodipodi.sourceforge.net/DTD/sodipodi-0.dtd"
   xmlns:inkscape="http://www.inkscape.org/namespaces/inkscape"
   width="293.93497mm"
   height="129.54918mm"
   viewBox="0 0 293.93497 129.54918"
   version="1.1"
   id="svg8"
   inkscape:version="0.92.1 r15371"
   sodipodi:docname="lecture3CFTchart.svg">
  <sodipodi:namedview
     id="base"
     pagecolor="#ffffff"
     bordercolor="#666666"
     borderopacity="1.0"
     inkscape:pageopacity="0.0"
     inkscape:pageshadow="2"
     inkscape:zoom="0.7"
     inkscape:cx="513.73721"
     inkscape:cy="216.54326"
     inkscape:document-units="mm"
     inkscape:current-layer="layer1"
     showgrid="false"
     inkscape:window-width="1366"
     inkscape:window-height="709"
     inkscape:window-x="0"
     inkscape:window-y="25"
     inkscape:window-maximized="1" />
  <defs
     id="defs2" />
  <metadata
     id="metadata5">
    <rdf:RDF>
      <cc:Work
         rdf:about="">
        <dc:format>image/svg+xml</dc:format>
        <dc:type
           rdf:resource="http://purl.org/dc/dcmitype/StillImage" />
        <dc:title></dc:title>
      </cc:Work>
    </rdf:RDF>
  </metadata>
  <g
     id="layer1"
     inkscape:groupmode="layer"
     inkscape:label="Layer 1"
     transform="translate(-5.1025312,-5.4350495)">
    <path
       inkscape:connector-curvature="0"
       d="m 12.662202,76.911154 c 0.01513,2.027407 -0.146016,4.05085 -0.228143,6.075984 -0.105491,2.845708 -0.128936,5.693529 -0.144829,8.540874 -0.0015,0.382821 -0.0029,0.765641 -0.0043,1.148461 -0.003,0.801802 -1.136946,0.797523 -1.13392,-0.0043 v 0 c 0.0015,-0.383505 0.0029,-0.767008 0.0043,-1.150514 0.01598,-2.860561 0.03964,-5.721601 0.145743,-8.580514 0.08159,-2.009833 0.241714,-4.017962 0.227211,-6.030013 0,-0.801809 1.133928,-0.801809 1.133928,0 z"
       id="path4511"
       style="fill:#000000;stroke:#000000;stroke-width:0.52916664;stroke-miterlimit:4;stroke-dasharray:none;stroke-opacity:1" />
    <path
       inkscape:connector-curvature="0"
       d="m 14.09999,84.732166 c 1.725215,-0.253955 3.475512,-0.265869 5.215551,-0.301133 4.288535,-0.03361 8.576405,0.170344 12.860972,0.336809 6.903546,0.257945 13.812377,0.309108 20.719899,0.350563 8.068477,0.03471 16.137059,0.03066 24.205591,0.03019 8.380344,-0.0814 16.755192,0.268808 25.126467,0.606094 7.25333,0.344299 14.50034,0.816636 21.74598,1.294416 6.20682,0.364799 12.41617,0.685464 18.62423,1.029406 4.98173,0.300135 9.96167,0.628211 14.94337,0.928399 2.85746,0.166465 5.71883,0.249264 8.58057,0.290317 0.5927,0.0071 1.18545,0.01209 1.7782,0.01119 0.80181,-0.0013 0.80353,1.13271 0.002,1.133927 v 0 c -0.59876,7.94e-4 -1.1975,-0.0041 -1.7962,-0.0113 -2.87906,-0.04135 -5.75775,-0.124716 -8.6325,-0.292253 -4.97987,-0.30012 -9.95799,-0.628007 -14.93789,-0.928079 -6.21202,-0.34417 -12.42534,-0.664996 -18.63612,-1.030129 -7.23599,-0.477171 -14.47335,-0.948856 -21.71701,-1.292878 -8.356046,-0.336672 -16.715655,-0.686568 -25.080753,-0.605176 -8.070823,5.29e-4 -16.141694,0.0045 -24.212462,-0.03021 -6.919931,-0.04154 -13.841172,-0.09291 -20.757118,-0.351398 -4.262263,-0.165598 -8.527811,-0.368742 -12.79401,-0.336185 -1.673339,0.0338 -3.355854,0.04522 -5.016107,0.279344 -0.786238,0.157247 -1.00862,-0.954661 -0.222382,-1.111909 z"
       id="path4513"
       style="fill:#000000;stroke:#000000;stroke-width:0.52916664;stroke-miterlimit:4;stroke-dasharray:none;stroke-opacity:1" />
    <path
       inkscape:connector-curvature="0"
       d="m 164.47829,82.251512 c 1.63537,0.554918 3.13426,1.389684 4.54463,2.374662 1.17416,0.998466 2.89522,2.085356 3.13563,3.766396 0.0407,0.28479 -0.0133,0.575223 -0.0199,0.862833 -0.10904,0.301043 -0.18255,0.617445 -0.32711,0.903131 -0.91407,1.8063 -2.81656,3.000002 -4.40715,4.135763 -1.48588,1.014249 -0.76772,0.513639 -2.156,1.499627 -0.65375,0.46423 -1.31027,-0.460312 -0.65652,-0.924542 v 0 c 1.39919,-0.993404 0.68159,-0.493535 2.15384,-1.498089 1.60941,-1.147807 3.45074,-2.301015 4.26114,-4.18533 0.0208,-0.159446 0.0725,-0.317852 0.0624,-0.478335 -0.0818,-1.306737 -1.82985,-2.390103 -2.69744,-3.153084 -1.33514,-0.9407 -2.7629,-1.723308 -4.31466,-2.250207 -0.74446,-0.297784 -0.32333,-1.350611 0.42113,-1.052825 z"
       id="path4515"
       style="fill:#000000;stroke:#000000;stroke-width:0.52916664;stroke-miterlimit:4;stroke-dasharray:none;stroke-opacity:1" />
    <path
       inkscape:connector-curvature="0"
       d="m 6.9925593,100.67844 c -0.1593477,1.65134 -0.4209542,3.28595 -0.4924935,4.94499 0.05694,1.12752 -0.02281,2.68525 1.0463008,3.41937 0.1246688,0.0856 0.2754797,0.12487 0.4132197,0.18731 1.6408307,0.11108 2.7639337,-1.24416 3.6806437,-2.41736 0.765696,-1.24202 1.341253,-2.7354 0.663896,-4.14939 -0.11032,-0.23029 -0.268679,-0.43432 -0.403019,-0.65148 -1.011992,-1.09673 -2.3944031,-1.5471 -3.8552025,-1.36231 -0.7970139,0.0876 -0.9208334,-1.039598 -0.1238195,-1.127151 v 0 c 1.987899,-0.194241 3.626126,0.375266 4.954196,1.910811 0.169041,0.29412 0.373538,0.57053 0.507123,0.88235 0.768965,1.79499 0.142351,3.64256 -0.852821,5.19935 -1.045253,1.31463 -2.382474,2.85638 -4.2318512,2.85584 -0.2928615,-9e-5 -0.5785067,-0.0917 -0.86776,-0.13749 -0.2311964,-0.13197 -0.4848746,-0.23067 -0.6935893,-0.39592 -1.2758476,-1.01013 -1.3379138,-2.78342 -1.3701377,-4.26404 0.07434,-1.64205 0.3131656,-3.26228 0.491386,-4.89488 0,-0.801807 1.1339285,-0.801807 1.1339285,0 z"
       id="path4517"
       style="fill:#000000;stroke:#000000;stroke-width:0.52916664;stroke-miterlimit:4;stroke-dasharray:none;stroke-opacity:1" />
    <path
       inkscape:connector-curvature="0"
       d="m 174.05803,102.23556 c 0.0289,1.73648 -0.0158,3.46888 -0.10843,5.20272 -0.11331,1.85909 -0.18895,3.71999 -0.24535,5.58157 -0.0243,0.80144 -1.1577,0.7671 -1.13341,-0.0343 v 0 c 0.0567,-1.87031 0.13267,-3.73994 0.24645,-5.60776 0.0917,-1.71369 0.13558,-3.42586 0.10682,-5.14219 0,-0.80181 1.13392,-0.80181 1.13392,0 z"
       id="path4519"
       style="fill:#000000;stroke:#000000;stroke-width:0.52916664;stroke-miterlimit:4;stroke-dasharray:none;stroke-opacity:1" />
    <path
       inkscape:connector-curvature="0"
       d="m 172.66948,101.34248 c 1.62057,-0.77873 3.40457,-0.78235 5.15484,-0.62513 1.31905,0.2849 3.19264,0.40485 4.04555,1.64839 0.13004,0.1896 0.18173,0.42239 0.27259,0.63358 -0.0205,0.25231 0.0164,0.51608 -0.0616,0.75692 -0.42512,1.31324 -2.49056,2.24639 -3.59849,2.87234 -0.62754,0.45526 -1.92854,0.89029 -2.26306,1.66728 -0.0751,0.17447 0.11116,0.36112 0.18645,0.47218 1.93475,1.8661 4.59592,2.78623 7.03219,3.80707 0.7395,0.30991 0.30121,1.35571 -0.43828,1.0458 v 0 c -2.12044,-0.8888 -5.35977,-2.07127 -7.02485,-3.68343 -0.24557,-0.23777 -0.42747,-0.5335 -0.64121,-0.80026 -0.0692,-0.28133 -0.20743,-0.55428 -0.20764,-0.84401 -0.001,-1.37841 1.88369,-2.03963 2.79873,-2.65195 1.09181,-0.61652 2.43615,-1.19275 3.1453,-2.27353 -0.10147,-1.09657 -2.5503,-1.34783 -3.34965,-1.52122 -1.51105,-0.14275 -3.05021,-0.16292 -4.46752,0.46831 -0.68754,0.41252 -1.27095,-0.55981 -0.5834,-0.97234 z"
       id="path4521"
       style="fill:#000000;stroke:#000000;stroke-width:0.52916664;stroke-miterlimit:4;stroke-dasharray:none;stroke-opacity:1" />
    <path
       inkscape:connector-curvature="0"
       d="m 47.114258,85.752031 c 0.15612,-1.273212 0.68856,-2.145858 1.611876,-3.012331 1.155957,-0.842497 2.558696,-1.276223 3.984615,-1.168228 1.305348,0.429744 1.690843,1.311246 1.443005,2.601891 -0.512548,1.120471 -1.506222,1.657139 -2.671968,1.869575 -1.244344,0.02676 -2.014109,-0.390763 -2.519887,-1.536165 -0.195125,-1.254919 0.433086,-1.922743 1.514578,-2.410003 1.106435,-0.380333 1.93547,-0.250592 2.630861,0.717757 0.432115,1.102892 -0.159308,2.085895 -0.899451,2.878865 -0.366281,0.249933 -1.112713,0.920924 -1.615424,0.859922 -0.166039,-0.02016 -0.31681,-0.107394 -0.475213,-0.161091 -0.652415,-0.860005 -0.303916,-1.774971 0.143243,-2.641873 0.383881,-0.568172 0.983866,-1.18514 1.747665,-1.010063 0.148696,0.03408 0.279165,0.123116 0.418748,0.184672 0.900208,0.692308 0.909294,1.736134 0.721051,2.759429 -0.251653,0.93004 -0.754147,1.728994 -1.659372,2.106949 -1.206023,0.143943 -1.493768,-0.811496 -1.547764,-1.808663 0.06875,-0.955651 0.458014,-1.821183 1.176681,-2.453489 1.283364,-0.574485 1.683665,0.444362 1.875565,1.501174 0.07766,1.082056 -0.289642,2.113206 -0.990454,2.927768 -0.687287,0.547204 -1.62455,0.710914 -2.379626,0.172104 -0.168907,-0.120529 -0.298286,-0.288536 -0.447429,-0.432806 -0.101748,-0.138371 -0.203496,-0.276746 -0.305244,-0.41512 -0.46826,-0.650867 0.452204,-1.313088 0.920467,-0.662221 v 0 c 0.0686,0.09841 0.137205,0.196819 0.205808,0.29523 0.317326,0.39854 0.697778,0.564894 1.1703,0.276418 0.511805,-0.486986 0.707861,-1.284094 0.708692,-1.968963 -0.01415,-0.08901 -0.164283,-0.571666 -0.113877,-0.684728 0.05285,-0.118533 0.05698,0.06925 0.103095,-0.08883 0.0049,-0.01675 -0.01648,-0.03076 -0.02471,-0.04614 -0.480081,0.341193 -0.673931,0.975095 -0.766376,1.530908 7.94e-4,0.0304 0.08223,0.706964 0.08033,0.716714 -0.0067,0.03418 -0.07274,0.03519 -0.06696,0.08018 0.541914,-0.148908 0.778565,-0.773184 0.946803,-1.257726 0.103349,-0.524849 0.217266,-1.08898 -0.142314,-1.548585 -0.02072,-0.03134 -0.0029,-0.08409 -0.03183,-0.108114 -0.150749,-0.125373 -0.534162,0.381018 -0.593424,0.457483 -0.175501,0.33334 -0.392329,0.685628 -0.397981,1.075467 -7.93e-4,0.0588 0.066,0.140539 0.01865,0.175427 -0.04507,0.03322 -0.09829,-0.05368 -0.147439,-0.08051 -0.08644,-0.0065 -0.172733,-0.02347 -0.259315,-0.01937 -0.01402,7.94e-4 -0.03969,0.03709 -0.02627,0.03295 0.343606,-0.106114 0.642366,-0.352174 0.934696,-0.548513 0.394663,-0.397354 0.773242,-0.884624 0.769718,-1.474153 -0.247153,-0.502338 -0.749393,-0.466182 -1.233371,-0.297016 -0.448884,0.179256 -0.883407,0.415719 -0.906158,0.957893 0.158466,0.611716 0.692404,0.815017 1.279977,0.827756 0.715857,-0.09569 1.319252,-0.402873 1.748531,-0.998865 0.150161,-0.514453 0.0821,-0.97159 -0.442161,-1.224524 -1.092317,-0.133117 -2.208766,0.27926 -3.111246,0.873639 -0.79638,0.713938 -1.127279,1.333645 -1.267786,2.400297 -0.15725,0.786239 -1.269156,0.563856 -1.111909,-0.222382 z"
       id="path4523"
       style="fill:#000000;stroke:#000000;stroke-width:0.52916664;stroke-miterlimit:4;stroke-dasharray:none;stroke-opacity:1" />
    <path
       inkscape:connector-curvature="0"
       d="m 21.410496,89.803408 c 0.554768,0.905931 0.85314,1.92191 1.232846,2.903133 0.04794,0.111074 0.09122,0.224287 0.143835,0.333227 0.03002,0.06215 0.17237,0.21563 0.130694,0.16061 -0.141338,-0.186587 -0.259546,-0.106104 -0.02548,-0.280408 0.578233,-0.453078 1.053726,-1.016403 1.579819,-1.527228 0.576359,-0.616027 1.123344,-0.517618 1.665009,0.06171 0.311163,0.408874 0.692732,0.837536 1.216258,0.940517 0.524554,0.0876 0.942332,-0.261379 1.354195,-0.536887 0.31169,-0.265166 0.535824,-0.594982 0.859967,-0.841449 0.147873,-0.0089 0.300133,-0.06371 0.443619,-0.02685 0.382736,0.0983 0.692944,0.789165 0.916372,1.117632 0.309157,0.357666 0.71111,0.617341 1.184399,0.661783 0.791276,-0.114919 1.455512,-0.629687 2.118151,-1.041093 0.531916,-0.315111 1.041974,-0.665982 1.538166,-1.034409 0.486799,-0.277591 0.839814,-0.01844 1.04658,0.43244 0.241895,0.76445 -0.8392,1.10654 -1.081095,0.34209 v 0 c 0.16384,0.205412 0.499485,0.327419 0.710271,0.136044 -0.521528,0.386852 -1.057296,0.755629 -1.615869,1.087228 -0.889375,0.552037 -1.781788,1.208151 -2.87488,1.200473 -0.789395,-0.13067 -1.46694,-0.506569 -1.963806,-1.147535 -0.156142,-0.230365 -0.3672,-0.45951 -0.459214,-0.725882 -0.02705,-0.07832 0.153093,0.07591 0.235921,0.07837 0.100418,0.003 0.196948,-0.03976 0.295423,-0.05965 0.568717,-0.524886 -0.675624,0.81561 -0.723569,0.763323 -0.702072,0.469569 -1.417016,0.889844 -2.296829,0.684472 -0.725848,-0.236385 -1.325986,-0.665062 -1.768543,-1.296821 -0.02151,-0.04349 -0.138769,-0.09798 -0.09245,-0.112406 0.08166,-0.02543 0.172635,0.01048 0.256512,-0.0063 0.169005,-0.03372 -0.06031,-0.07299 -0.174782,0.136784 -0.58231,0.565097 -1.104866,1.195065 -1.765254,1.673037 -1.011366,0.591772 -1.534946,0.251418 -1.911772,-0.765818 -0.352648,-0.921819 -0.631853,-1.874263 -1.146834,-2.726785 -0.412527,-0.687544 0.559809,-1.270947 0.972336,-0.583401 z"
       id="path4557"
       style="fill:#ff0000;stroke:#ff0000;stroke-width:0.52916664;stroke-miterlimit:4;stroke-dasharray:none;stroke-opacity:1" />
    <path
       inkscape:connector-curvature="0"
       d="m 72.026708,91.221622 c 0.603501,0.872906 1.198456,1.766361 1.98425,2.485959 0.901661,0.765379 1.87747,0.618585 2.927567,0.284689 1.459722,-0.5739 2.80829,-1.391565 4.198366,-2.111991 0.94375,-0.495745 1.357508,-0.726575 2.307008,-0.08095 0.626761,0.574562 1.354201,0.88404 2.171261,1.073833 1.166574,0.222187 2.346044,-0.0082 3.487695,-0.260956 1.198134,-0.399984 2.411055,-0.72671 3.661222,-0.908296 1.401739,-0.197353 2.783546,0.108403 4.129024,0.476205 2.065613,0.642311 4.194659,0.919602 6.342389,1.094886 2.6805,0.228462 5.36218,-0.02506 8.03265,-0.249759 1.63258,-0.08136 3.27078,-0.342075 4.90766,-0.258651 0.91354,0.09197 1.79828,0.35089 2.69111,0.556093 1.79777,0.406455 3.62143,0.61419 5.45707,0.744926 2.34098,0.144862 4.62065,-0.35646 6.87338,-0.920035 1.15,-0.239189 2.21967,-0.823341 3.37277,-1.035482 0.82462,-0.03103 1.40019,0.645258 2.0243,1.091735 1.35621,0.790641 2.88679,1.026424 4.42033,1.204584 1.65906,0.116433 3.31754,5.29e-4 4.89888,-0.528407 0.67875,-0.266158 1.16659,-0.810411 1.89143,-0.934254 0.13256,0.02286 0.26513,0.0457 0.3977,0.06855 0.77148,0.218432 0.46257,1.309473 -0.30891,1.091041 v 0 c 0.0131,-0.01098 0.0262,-0.02196 0.0393,-0.03293 -0.25435,-0.06435 -1.30298,0.930408 -1.66528,0.884764 -1.74304,0.56505 -3.55847,0.721392 -5.38492,0.577469 -1.72382,-0.203155 -3.44118,-0.490847 -4.94942,-1.409409 -0.39341,-0.28285 -0.79837,-0.641103 -1.18862,-0.892772 -0.31131,0.02665 -0.64407,0.18915 -0.93591,0.285853 -0.77453,0.256646 -1.55261,0.502798 -2.33654,0.729303 -2.3691,0.59224 -4.76829,1.10677 -7.22926,0.951031 -1.89387,-0.135615 -3.77557,-0.351457 -5.63034,-0.770874 -0.83052,-0.190976 -1.65312,-0.430639 -2.50063,-0.529048 -1.58163,-0.09916 -3.1708,0.198922 -4.74901,0.25644 -2.7329,0.229949 -5.47728,0.484963 -8.22028,0.24997 -2.21765,-0.182202 -4.416676,-0.470765 -6.55008,-1.131575 -1.193493,-0.329287 -2.421536,-0.617657 -3.666874,-0.447352 -1.22355,0.175191 -2.404938,0.511357 -3.579513,0.893437 -1.310582,0.286623 -2.658899,0.529397 -3.994687,0.256423 -0.94338,-0.230227 -1.819286,-0.579318 -2.549338,-1.241692 -0.06559,-0.04552 -0.1374,-0.08317 -0.196765,-0.136557 -0.02537,-0.02283 0.0048,-0.09431 -0.02915,-0.09819 -0.328817,-0.03758 -0.619289,0.327667 -0.918189,0.387548 -1.450843,0.750763 -2.856643,1.608376 -4.387763,2.189297 -1.528064,0.453972 -2.740303,0.533461 -4.033282,-0.539903 -0.822542,-0.77897 -1.488871,-1.694217 -2.117738,-2.634607 -0.481084,-0.641448 0.426059,-1.321806 0.907143,-0.680358 z"
       id="path4559"
       style="fill:#ff0000;stroke:#ff0000;stroke-width:0.52916664;stroke-miterlimit:4;stroke-dasharray:none;stroke-opacity:1" />
    <path
       inkscape:connector-curvature="0"
       d="m 26.778296,99.637775 c 0.234302,-0.620723 0.403969,-1.261806 0.55485,-1.906995 0.09963,-0.634447 0.393626,-0.939123 1.117674,-0.750028 0.71193,0.287279 1.303867,0.822108 1.841243,1.359673 0.268007,0.226584 0.492975,0.495779 0.717349,0.763746 0.513599,0.615722 -0.357163,1.342059 -0.870762,0.726339 v 0 c -0.203295,-0.244829 -0.406932,-0.489802 -0.653661,-0.693578 -0.393586,-0.405784 -0.838523,-0.795743 -1.337289,-1.063517 -0.03658,-0.01143 -0.140041,-0.01085 -0.109725,-0.03428 0.100523,-0.07772 0.254376,-0.06752 0.349848,-0.151368 0.22338,-0.196176 0.146703,-0.481346 0.04941,0.101441 -0.164108,0.700521 -0.350054,1.396304 -0.606107,2.069702 -0.297784,0.74446 -1.350611,0.32333 -1.052828,-0.421136 z"
       id="path4561"
       style="fill:#ff0000;stroke:#ff0000;stroke-width:0.52916664;stroke-miterlimit:4;stroke-dasharray:none;stroke-opacity:1" />
    <path
       inkscape:connector-curvature="0"
       d="m 30.854933,100.84585 c 0.579215,1.1932 1.387565,2.2567 2.258959,3.24909 1.757746,1.80393 4.007213,3.02294 6.274737,4.06277 3.627043,1.58337 7.529271,2.12421 11.44321,2.37624 4.913456,0.10989 9.812168,-0.37814 14.677975,-1.00718 5.096415,-0.64994 10.152332,-1.54523 15.195658,-2.51556 3.700187,-0.70553 7.382587,-1.49884 11.067142,-2.28035 1.20168,-0.2405 2.404153,-0.4816 3.615399,-0.66983 -0.419115,0.0301 -0.417599,0.55895 -0.19532,0.7855 -0.739188,-0.31064 -0.299868,-1.35601 0.439319,-1.04536 v 0 c 0.661649,0.38358 0.791149,1.07451 -0.07002,1.38037 -1.190765,0.18472 -2.372707,0.42267 -3.554106,0.65857 -3.691567,0.78296 -7.380954,1.57779 -11.088179,2.2846 -5.066176,0.9747 -10.145085,1.87366 -15.264561,2.52663 -4.938207,0.63796 -9.910217,1.13172 -14.896706,1.01416 -4.052247,-0.26469 -8.090765,-0.8324 -11.843628,-2.4776 -2.410608,-1.11181 -4.795867,-2.41329 -6.654329,-4.34631 -0.951645,-1.09131 -1.83896,-2.25787 -2.458379,-3.57461 -0.297783,-0.74446 0.755044,-1.16559 1.052829,-0.42113 z"
       id="path4563"
       style="fill:#ff0000;stroke:#ff0000;stroke-width:0.52916664;stroke-miterlimit:4;stroke-dasharray:none;stroke-opacity:1" />
    <path
       inkscape:connector-curvature="0"
       d="m 91.83472,100.6943 c 1.617401,0.11533 3.199008,0.37599 4.746879,0.86038 1.166241,0.41798 2.304772,1.272 1.880722,2.66932 -0.07313,0.24098 -0.219559,0.45328 -0.32934,0.67993 -0.455859,0.71411 -1.046078,1.32293 -1.620047,1.94004 -0.546362,0.58685 -1.376285,-0.18582 -0.829923,-0.77267 v 0 c 0.505531,-0.54242 1.025173,-1.07735 1.444717,-1.69202 0.649528,-1.10192 0.245544,-1.24146 -0.886719,-1.74303 -1.496436,-0.4745 -3.029262,-0.70357 -4.592706,-0.82345 -0.790898,-0.13182 -0.604483,-1.25032 0.186417,-1.1185 z"
       id="path4565"
       style="fill:#ff0000;stroke:#ff0000;stroke-width:0.52916664;stroke-miterlimit:4;stroke-dasharray:none;stroke-opacity:1" />
    <path
       inkscape:connector-curvature="0"
       d="m 31.822588,116.63589 c 1.194837,0.35691 2.430134,0.46475 3.670554,0.44383 0.319916,-0.0157 0.610108,-0.005 0.917427,-0.0967 0.08369,-0.0249 0.546399,-0.28443 0.262437,-0.1747 -0.157437,0.0608 -0.155466,0.14283 -0.213571,0.28409 -0.95435,-0.52011 -1.896647,-0.5507 -2.963781,-0.45621 -1.645412,0.22675 -2.850726,0.91124 -3.794275,2.271 -0.561761,1.14495 -0.359627,1.84779 0.687747,2.51994 0.990671,0.52767 2.084506,0.55354 3.177794,0.5484 0.801804,-0.003 0.805635,1.13121 0.0038,1.13392 v 0 c -1.330005,0.003 -2.648849,-0.0714 -3.83269,-0.75393 -0.221949,-0.16434 -0.467543,-0.3008 -0.66584,-0.49301 -1.041673,-1.00972 -0.951119,-2.42972 -0.29396,-3.61384 0.172717,-0.23704 0.324932,-0.49047 0.518149,-0.71111 1.05078,-1.19991 2.557354,-1.81309 4.105683,-2.03143 1.462304,-0.11398 2.999271,-0.0725 4.069082,1.07424 0.05188,0.21075 0.17249,0.41587 0.155644,0.63226 -0.07286,0.93585 -1.475928,0.97356 -2.115905,1.00091 -1.367959,0.0199 -2.731148,-0.10243 -4.046905,-0.50188 -0.760664,-0.25356 -0.402082,-1.3293 0.358579,-1.07574 z"
       id="path4567"
       style="fill:#ff0000;stroke:#ff0000;stroke-width:0.52916664;stroke-miterlimit:4;stroke-dasharray:none;stroke-opacity:1" />
    <path
       inkscape:connector-curvature="0"
       d="m 42.974413,118.81843 c -1.060138,0.26385 -1.922923,0.9835 -2.663642,1.75453 -0.383212,0.52743 -1.240523,1.37297 -0.668899,2.03026 0.790522,0.36028 1.667534,0.30889 2.500527,0.15956 0.468053,-0.1142 0.942975,-0.23669 1.376571,-0.45253 0.155411,-0.006 0.327203,-0.087 0.466233,-0.0174 0.818573,0.41029 0.386445,1.9138 0.287589,2.5538 -0.384061,2.05364 -1.04249,4.03894 -1.546116,6.06324 -0.09243,0.70217 -0.588077,2.43081 0.467566,2.69347 0.928997,0.0769 1.607971,-0.33631 2.319631,-0.87201 0.642266,-0.47999 1.321075,0.42831 0.67881,0.9083 v 0 c -1.059791,0.78719 -2.157561,1.31609 -3.506761,0.97732 -0.190852,-0.11336 -0.405591,-0.1938 -0.572553,-0.34008 -1.019331,-0.89308 -0.678439,-2.49911 -0.487016,-3.64102 0.49644,-1.99158 1.140809,-3.94557 1.52614,-5.9645 0.07534,-0.47466 0.127527,-0.70422 0.14953,-1.16161 2.64e-4,-0.008 -0.01699,-0.4235 0.0098,-0.40774 0.568296,0.33434 0.09252,0.31052 0.70544,0.22677 -0.533522,0.25825 -1.107443,0.42286 -1.684385,0.55177 -1.282841,0.20979 -2.674663,0.25863 -3.671864,-0.7084 -0.09312,-0.18708 -0.219628,-0.36098 -0.279371,-0.56123 -0.318175,-1.06647 0.509379,-2.05999 1.115465,-2.82779 0.910182,-0.92961 1.959443,-1.77467 3.254917,-2.07666 0.786236,-0.15725 1.008618,0.95466 0.22238,1.11191 z"
       id="path4569"
       style="fill:#ff0000;stroke:#ff0000;stroke-width:0.52916664;stroke-miterlimit:4;stroke-dasharray:none;stroke-opacity:1" />
    <path
       inkscape:connector-curvature="0"
       d="m 48.56994,119.57725 c -0.04922,0.90717 0.07829,1.79449 0.315693,2.66715 0.08178,0.19262 0.384241,0.81221 0.629529,0.49546 0.875921,-0.51628 1.416772,-1.43541 1.87616,-2.31241 0.333012,-0.42739 0.377806,-0.9801 0.584819,-1.4578 0.01852,-0.0427 -0.07057,0.1145 -0.02955,0.1365 0.30661,0.16441 0.650423,0.24722 0.975633,0.37083 -0.354024,0.76365 -0.307137,1.62063 -0.123701,2.42169 0.158551,0.53715 0.452742,0.96625 0.863362,1.33538 0.5828,0.55067 -0.195969,1.37488 -0.77877,0.8242 v 0 c -0.560604,-0.54671 -0.98897,-1.14878 -1.192969,-1.92022 -0.220787,-1.07002 -0.262908,-2.18752 0.231368,-3.19432 0.384101,0.0131 0.784741,-0.073 1.1523,0.0393 0.210703,0.0644 -0.585687,1.82961 -0.679871,1.97409 -0.606851,1.14047 -1.334881,2.2986 -2.544977,2.86643 -0.194577,0.0391 -0.385275,0.11688 -0.583731,0.11714 -0.757971,0.001 -1.237419,-0.79922 -1.474322,-1.40066 -0.260046,-0.96928 -0.405847,-1.95603 -0.354907,-2.96277 0,-0.80181 1.13393,-0.80181 1.13393,0 z"
       id="path4571"
       style="fill:#ff0000;stroke:#ff0000;stroke-width:0.52916664;stroke-miterlimit:4;stroke-dasharray:none;stroke-opacity:1" />
    <path
       inkscape:connector-curvature="0"
       d="m 56.083527,119.78921 c 0.948931,0.78134 1.502881,1.84089 1.933993,2.96688 0.285409,0.74929 -0.77425,1.15292 -1.059658,0.40362 v 0 c -0.351171,-0.92737 -0.782762,-1.80748 -1.554692,-2.46336 -0.641445,-0.48109 0.03891,-1.38823 0.680357,-0.90714 z"
       id="path4573"
       style="fill:#ff0000;stroke:#ff0000;stroke-width:0.52916664;stroke-miterlimit:4;stroke-dasharray:none;stroke-opacity:1" />
    <path
       inkscape:connector-curvature="0"
       d="m 61.093029,119.36668 c 0.381455,1.09895 0.647287,2.23065 0.978995,3.34441 0.162934,0.35194 0.133456,0.79508 0.347509,1.12779 0.01013,0.0157 0.05983,0.0257 0.05563,0.007 -0.01577,-0.0684 -0.08044,-0.11711 -0.10378,-0.18334 0.930217,-0.73466 1.608521,-1.72662 2.314422,-2.66485 0.421013,-0.59877 0.835284,-1.20221 1.249413,-1.80574 0.453657,-0.66113 1.388636,-0.0196 0.934976,0.64156 v 0 c -0.423463,0.61712 -0.846846,1.23432 -1.278284,1.84592 -0.845407,1.12362 -1.661668,2.38838 -2.923966,3.07757 -0.175331,0.0246 -0.350615,0.0981 -0.525999,0.0739 -0.875708,-0.12115 -0.956652,-1.13161 -1.156722,-1.79676 -0.321619,-1.08092 -0.58153,-2.17833 -0.945025,-3.2468 -0.297784,-0.74446 0.755041,-1.16559 1.052827,-0.42113 z"
       id="path4575"
       style="fill:#ff0000;stroke:#ff0000;stroke-width:0.52916664;stroke-miterlimit:4;stroke-dasharray:none;stroke-opacity:1" />
    <path
       inkscape:connector-curvature="0"
       d="m 81.831843,85.863223 c 0.05573,-0.967476 0.565748,-1.667391 1.342398,-2.196899 1.046964,-0.625888 1.6242,-0.0077 1.407808,1.103267 -0.291166,0.826011 -0.875644,1.447895 -1.600001,1.913409 -0.934477,0.564324 -1.377876,-0.08295 -1.49886,-0.958562 -0.03136,-0.33786 -0.03415,-0.677262 -0.03926,-1.016214 -0.01191,-0.801722 1.121905,-0.81855 1.133803,-0.01683 v 0 c 0.0043,0.297275 0.0066,0.594895 0.03051,0.89144 0.0096,0.09151 0.111963,0.278341 0.02,0.275328 -0.05556,-0.0019 -0.09179,-0.0693 -0.146354,-0.07995 -0.233643,-0.04558 -0.406763,0.10474 -0.105995,-0.05353 0.481783,-0.297731 0.877803,-0.695545 1.104577,-1.223989 0.112126,-0.266647 0.04938,-0.05131 0.355452,0.05332 0.136168,0.04655 0.344948,-0.164703 -0.03284,0.0559 -0.469585,0.302027 -0.788371,0.66924 -0.837308,1.253313 0,0.801809 -1.13393,0.801809 -1.13393,0 z"
       id="path4595"
       style="fill:#000000;stroke:#000000;stroke-width:0.52916664;stroke-miterlimit:4;stroke-dasharray:none;stroke-opacity:1" />
    <path
       inkscape:connector-curvature="0"
       d="m 117.41783,86.885959 c 0.25101,-0.863076 0.54026,-1.71449 0.78061,-2.580791 0.21662,-0.905798 0.27234,-1.837997 0.40184,-2.758861 0.16148,-1.357627 0.31958,-2.716617 0.5331,-4.067399 0.25724,-1.519648 0.38141,-3.056118 0.56322,-4.585677 0.20791,-1.748835 0.25721,-3.510457 0.29155,-5.26956 0.0341,-1.990201 0.20871,-3.974841 0.29746,-5.963447 0.0628,-2.123315 0.081,-4.244501 0.20831,-6.365245 0.11399,-2.301449 0.39883,-4.590666 0.74326,-6.867742 0.27284,-2.098923 0.60068,-4.188306 0.95032,-6.275451 0.29522,-1.85103 0.55468,-3.706825 0.83111,-5.560689 0.20176,-1.79219 0.43929,-3.580543 0.60145,-5.377059 0.0612,-1.522417 0.25129,-3.033146 0.39741,-4.548544 0.10643,-1.095874 0.13233,-2.196968 0.14538,-3.297183 0.026,-1.293531 -0.0383,-2.588815 0.0512,-3.879964 0.0856,-0.846753 0.20102,-1.689936 0.28988,-2.536328 0.0219,-0.260205 0.0395,-0.521042 0.0418,-0.782236 5.3e-4,-0.114498 -2.5e-4,-0.228997 -0.002,-0.343486 0.11701,0.174918 0.23403,0.349836 0.35104,0.524754 -0.0124,-0.0013 -0.0248,-0.0025 -0.0373,-0.0038 -0.79327,-0.116675 -0.62827,-1.238534 0.165,-1.121858 v 0 c 0.37817,0.06078 0.0941,-0.01042 0.65505,0.585502 0.002,0.123316 0.002,0.246642 0.002,0.369967 -0.003,0.297046 -0.0217,0.59373 -0.0479,0.889597 -0.0876,0.833883 -0.20019,1.664729 -0.28656,2.498746 -0.0938,1.268055 -0.0161,2.542007 -0.0484,3.812616 -0.0135,1.132063 -0.0409,2.264991 -0.15054,3.392567 -0.14603,1.513147 -0.33586,3.021534 -0.39677,4.541724 -0.16452,1.818267 -0.40388,3.628438 -0.60925,5.44223 -0.27745,1.860582 -0.53799,3.72309 -0.8343,5.580827 -0.34874,2.081263 -0.67541,4.164796 -0.94751,6.257827 -0.33997,2.243241 -0.62025,4.498655 -0.73252,6.765986 -0.12712,2.114923 -0.14368,4.230354 -0.2074,6.347836 -0.0884,1.979144 -0.26184,3.954356 -0.29655,5.93503 -0.0352,1.796426 -0.0866,3.595346 -0.29926,5.381239 -0.18356,1.544171 -0.30904,3.095323 -0.56928,4.629438 -0.21388,1.344014 -0.3682,2.696842 -0.53016,4.047704 -0.13641,0.96996 -0.1934,1.952522 -0.43228,2.904861 -0.23399,0.83903 -0.50716,1.666306 -0.76114,2.499262 -0.15725,0.786238 -1.26916,0.563856 -1.11191,-0.222383 z"
       id="path4613"
       style="fill:#000000;stroke:#000000;stroke-width:0.52916664;stroke-miterlimit:4;stroke-dasharray:none;stroke-opacity:1" />
    <path
       inkscape:connector-curvature="0"
       d="m 119.59196,65.500503 c -0.0883,-1.134038 -0.009,-2.26383 0.24249,-3.371403 0.25193,-0.951992 0.44059,-1.634879 1.35912,-2.092338 1.21898,-0.07864 1.31745,1.15393 1.40681,2.082223 0.0205,1.038736 -0.29274,1.979245 -1.02057,2.718798 -0.71775,0.502364 -1.43708,0.741884 -2.28258,0.459084 -0.81894,-0.597993 -0.81831,-1.49787 -0.41272,-2.343844 0.33507,-0.539249 0.861,-1.131186 1.57639,-0.977635 0.14734,0.03163 0.27549,0.122253 0.41323,0.183383 0.68865,0.429141 0.86732,1.160621 0.96982,1.912903 0.0978,0.92425 -0.0282,1.610921 -0.77973,2.19888 -0.86922,0.524741 -1.6258,0.004 -2.20687,-0.660021 -0.65457,-0.957167 -0.54318,-1.82132 0.008,-2.785052 0.63724,-0.802092 1.44994,-1.374733 2.45672,-1.577866 1.03709,-0.08867 1.52345,0.33366 1.40785,1.378791 -0.32315,0.840102 -1.05444,1.240062 -1.86049,1.520851 -1.22013,0.225518 -1.77252,-0.573426 -2.05738,-1.631891 -0.0722,-0.739815 -0.0734,-1.692778 0.47681,-2.281836 0.1128,-0.120758 0.2617,-0.201832 0.39256,-0.302749 1.14407,-0.468977 1.74372,0.18774 2.31685,1.099838 0.51982,1.033219 0.47839,2.102361 -0.024,3.120139 -0.65458,0.94529 -1.44577,1.217893 -2.52937,0.882166 -0.95417,-0.524942 -1.33656,-1.48463 -1.44031,-2.517106 0.0469,-1.131671 0.58435,-1.765012 1.64893,-2.074722 0.97839,-0.162711 1.64926,0.397899 2.14421,1.174398 0.41592,0.813813 0.35251,1.687581 -0.10784,2.456405 -0.72315,0.85703 -1.45138,0.607388 -1.99364,-0.280644 -0.39024,-0.700434 0.60032,-1.252323 0.99056,-0.551892 v 0 c 0.0228,0.05341 0.0641,0.102325 0.0683,0.160237 1.5e-4,0.0019 -0.29654,0.238779 -0.009,0.04321 0.30226,-0.310631 0.23594,-0.874442 0.0834,-1.236493 -0.20247,-0.359167 -0.45976,-0.713261 -0.91434,-0.661982 -0.47027,0.03999 -0.74256,0.418065 -0.78157,0.870042 0.0439,0.590357 0.20756,1.163217 0.69162,1.550432 0.44597,0.217647 0.85326,0.05642 1.14161,-0.335211 0.35526,-0.635757 0.36999,-1.336432 0.0653,-2.004827 -0.16471,-0.276027 -0.35477,-0.773446 -0.73687,-0.740794 -0.44894,0.0041 -0.39552,1.107242 -0.37796,1.379453 0.0452,0.324858 0.1877,0.833226 0.58366,0.811318 0.43343,-0.145875 0.82071,-0.308247 1.11683,-0.67129 0.0822,-0.03358 0.0756,0.03249 0.16039,0.02574 0.0928,-0.0074 -0.27132,-0.266245 -0.24826,-0.06694 -0.6935,0.111771 -1.2344,0.543163 -1.69788,1.055381 -0.31444,0.452273 -0.42561,0.974574 -0.10805,1.461614 0.15993,0.20203 0.40908,0.599519 0.69336,0.45998 0.41191,-0.159194 0.31681,-0.766881 0.30237,-1.119658 -0.0472,-0.375886 -0.0691,-0.820137 -0.39354,-1.068075 -0.0443,-0.177486 0.009,0.09839 0.0386,-0.102085 0.007,-0.04921 -0.56594,0.332304 -0.4739,0.426181 -0.16295,0.265149 -0.19918,0.488976 -0.14463,0.780005 0.0638,0.23985 0.91547,-0.151302 1.04732,-0.234868 0.51456,-0.443183 0.658,-1.140154 0.67794,-1.795309 -0.006,-0.06942 -0.17462,-1.030439 -0.11343,-1.059424 0.0322,-0.01524 0.0711,-0.0035 0.10663,-0.0053 0.0384,-0.01929 0.0768,-0.03857 0.11521,-0.05786 0.0681,-0.443005 -0.96553,1.580361 -0.64067,1.281811 -0.22783,0.961731 -0.28262,1.942893 -0.22874,2.929416 0.13182,0.790898 -0.98668,0.977315 -1.1185,0.186415 z"
       id="path4615"
       style="fill:#000000;stroke:#000000;stroke-width:0.52916664;stroke-miterlimit:4;stroke-dasharray:none;stroke-opacity:1" />
    <g
       ns0:preamble=""
       ns0:text="$R \\mapsto \\frac{\\#}{R}$"
       word-spacing="normal"
       letter-spacing="normal"
       font-size-adjust="none"
       font-stretch="normal"
       font-weight="normal"
       font-variant="normal"
       font-style="normal"
       stroke-miterlimit="10.433"
       xml:space="preserve"
       transform="matrix(1,0,0,-1,-209.545,721.83505)"
       id="g4872"
       style="font-style:normal;font-variant:normal;font-weight:normal;font-stretch:normal;letter-spacing:normal;word-spacing:normal;text-anchor:start;fill:none;fill-opacity:1;fill-rule:evenodd;stroke:#000000;stroke-linecap:butt;stroke-linejoin:miter;stroke-miterlimit:10.43299961;stroke-dasharray:none;stroke-dashoffset:0;stroke-opacity:1"><path
         id="path4860"
         d="m 228.61,710.5 0.09,0.02 0.1,0.03 0.09,0.03 0.1,0.03 0.1,0.03 0.09,0.03 0.1,0.04 0.1,0.04 0.09,0.05 0.09,0.04 0.09,0.05 0.09,0.05 0.09,0.05 0.09,0.06 0.08,0.06 0.08,0.06 0.08,0.06 0.07,0.06 0.08,0.07 0.06,0.07 0.07,0.07 0.06,0.07 0.05,0.08 0.05,0.08 0.05,0.08 0.03,0.08 0.04,0.08 0.03,0.09 0.02,0.09 0.02,0.09 0.01,0.09 v 0.09 c 0,0.85 -0.9,1.49 -2.2,1.49 h -2.84 c -0.2,0 -0.29,0 -0.29,-0.2 0,-0.11 0.09,-0.11 0.28,-0.11 0.01,0 0.21,0 0.37,-0.02 0.18,-0.02 0.27,-0.03 0.27,-0.16 0,-0.04 -0.01,-0.07 -0.04,-0.19 l -1.33,-5.33 c -0.1,-0.39 -0.12,-0.47 -0.91,-0.47 -0.18,0 -0.27,0 -0.27,-0.2 0,-0.11 0.12,-0.11 0.14,-0.11 0.28,0 0.98,0.04 1.26,0.04 0.28,0 0.98,-0.04 1.26,-0.04 0.08,0 0.2,0 0.2,0.2 0,0.11 -0.09,0.11 -0.28,0.11 -0.37,0 -0.65,0 -0.65,0.18 0,0.06 0.02,0.11 0.03,0.17 l 0.66,2.63 h 1.19 l -0.01,0.22 h -1.12 l 0.65,2.59 c 0.06,0.24 0.09,0.34 0.28,0.37 0.09,0.01 0.41,0.01 0.61,0.01 0.71,0 1.81,0 1.81,-0.98 0,-0.34 -0.16,-1.03 -0.55,-1.41 -0.25,-0.26 -0.78,-0.58 -1.68,-0.58 l 0.01,-0.22 c 0.91,0 1.09,-0.55 1.09,-0.9 0,-0.15 -0.08,-0.46 -0.14,-0.69 -0.07,-0.27 -0.16,-0.64 -0.16,-0.84 0,-1.07 1.19,-1.07 1.32,-1.07 0.85,0 1.2,1 1.2,1.14 0,0.12 -0.11,0.12 -0.12,0.12 -0.09,0 -0.11,-0.07 -0.13,-0.14 -0.25,-0.74 -0.68,-0.91 -0.91,-0.91 -0.32,0 -0.4,0.22 -0.4,0.61 0,0.31 0.06,0.82 0.11,1.13 0.01,0.14 0.03,0.33 0.03,0.47 0,0.76 -0.66,1.07 -0.93,1.17 z"
         inkscape:connector-curvature="0"
         style="fill:#000000;stroke-width:0" /><path
         id="path4862"
         d="m 234.79,709.41 v 0 h 0.01 0.01 0.01 0.01 0.01 0.01 0.01 0.01 l 0.01,0.01 h 0.01 0.01 0.01 l 0.02,0.01 h 0.01 0.01 l 0.01,0.01 0.01,0.01 h 0.01 l 0.02,0.01 0.01,0.01 h 0.01 v 0.01 0 l 0.01,0.01 v 0 l 0.01,0.01 v 0 0.01 l 0.01,0.01 v 0 0.01 l 0.01,0.01 v 0 0.01 0.01 0.01 h 0.01 v 0.01 0.01 0.01 0.01 c 0,0.2 -0.22,0.2 -0.28,0.2 v 1.3 c 0,0.16 0,0.35 -0.2,0.35 -0.2,0 -0.2,-0.19 -0.2,-0.35 v -3 c 0,-0.16 0,-0.35 0.2,-0.35 0.2,0 0.2,0.19 0.2,0.35 z"
         inkscape:connector-curvature="0"
         style="fill:#000000;stroke-width:0" /><path
         id="path4864"
         d="m 242.16,709.41 -0.05,-0.04 -0.05,-0.04 -0.05,-0.04 -0.04,-0.04 -0.05,-0.03 -0.04,-0.04 -0.04,-0.04 -0.04,-0.04 -0.04,-0.03 -0.04,-0.04 -0.03,-0.04 -0.04,-0.03 -0.03,-0.04 -0.03,-0.03 -0.03,-0.03 -0.03,-0.04 -0.02,-0.03 -0.03,-0.03 -0.02,-0.03 -0.03,-0.03 -0.02,-0.02 -0.02,-0.03 -0.02,-0.02 -0.01,-0.03 -0.02,-0.02 -0.01,-0.02 -0.02,-0.02 -0.01,-0.02 -0.01,-0.02 -0.01,-0.02 -0.01,-0.01 -0.01,-0.01 c -0.45,-0.69 -0.53,-1.31 -0.53,-1.32 0,-0.12 0.12,-0.12 0.2,-0.12 0.17,0 0.18,0.02 0.22,0.19 0.23,0.98 0.82,1.81 1.95,2.27 0.11,0.04 0.14,0.06 0.14,0.13 0,0.07 -0.06,0.1 -0.08,0.11 -0.43,0.17 -1.64,0.66 -2.02,2.33 -0.03,0.12 -0.04,0.15 -0.21,0.15 -0.08,0 -0.2,0 -0.2,-0.12 0,-0.02 0.09,-0.64 0.51,-1.31 0.2,-0.3 0.49,-0.65 0.92,-0.96 h -7.41 c -0.18,0 -0.36,0 -0.36,-0.2 0,-0.2 0.18,-0.2 0.36,-0.2 z"
         inkscape:connector-curvature="0"
         style="fill:#000000;stroke-width:0" /><path
         id="path4866"
         d="m 251.81,712.38 h 1.76 c 0.09,0 0.26,0 0.26,0.16 0,0.18 -0.16,0.18 -0.27,0.18 h -1.64 l 0.36,1.19 h 1.28 c 0.11,0 0.27,0 0.27,0.17 0,0.17 -0.17,0.17 -0.26,0.17 h -1.19 l 0.56,1.85 c 0.01,0.04 0.03,0.09 0.03,0.13 0,0.08 -0.07,0.17 -0.18,0.17 -0.12,0 -0.15,-0.11 -0.18,-0.2 l -0.59,-1.95 h -1.39 l 0.55,1.85 c 0.02,0.04 0.03,0.09 0.03,0.13 0,0.08 -0.07,0.17 -0.17,0.17 -0.13,0 -0.16,-0.11 -0.18,-0.2 l -0.59,-1.95 h -1.76 c -0.09,0 -0.25,0 -0.25,-0.17 0,-0.17 0.16,-0.17 0.26,-0.17 h 1.64 l -0.35,-1.19 h -1.29 c -0.1,0 -0.26,0 -0.26,-0.18 0,-0.16 0.16,-0.16 0.25,-0.16 h 1.19 l -0.56,-1.86 c -0.01,-0.04 -0.02,-0.09 -0.02,-0.13 0,-0.09 0.06,-0.17 0.17,-0.17 0.13,0 0.15,0.11 0.18,0.2 l 0.59,1.96 0.1,0.34 0.36,1.19 h 1.4 l -0.36,-1.19 h -1.4 l -0.1,-0.34 h 1.4 l -0.56,-1.86 c -0.02,-0.04 -0.03,-0.09 -0.03,-0.13 0,-0.09 0.07,-0.17 0.17,-0.17 0.13,0 0.16,0.11 0.19,0.2 z"
         inkscape:connector-curvature="0"
         style="fill:#000000;stroke-width:0" /><line
         id="line4868"
         y2="709.62"
         x2="254.31"
         y1="709.62"
         x1="247.77"
         style="stroke-width:0.398" /><path
         id="path4870"
         d="m 252.17,706.05 0.08,0.02 0.08,0.02 0.07,0.03 0.08,0.02 0.07,0.03 0.08,0.02 0.07,0.03 0.07,0.03 0.07,0.04 0.07,0.03 0.06,0.04 0.07,0.03 0.06,0.04 0.06,0.04 0.06,0.04 0.05,0.04 0.05,0.05 0.05,0.04 0.05,0.05 0.05,0.04 0.04,0.05 0.04,0.05 0.03,0.05 0.04,0.05 0.03,0.05 0.02,0.05 0.02,0.06 0.02,0.05 0.02,0.06 0.01,0.05 v 0.06 l 0.01,0.06 c 0,0.6 -0.72,1.07 -1.73,1.07 h -2.15 c -0.13,0 -0.22,0 -0.22,-0.15 0,-0.1 0.08,-0.1 0.22,-0.1 0.01,0 0.14,0 0.27,-0.02 0.15,-0.01 0.16,-0.02 0.16,-0.09 0,-0.02 0,-0.05 -0.03,-0.16 l -0.93,-3.69 c -0.05,-0.23 -0.07,-0.29 -0.61,-0.29 -0.12,0 -0.21,0 -0.21,-0.15 0,-0.07 0.05,-0.1 0.11,-0.1 0.13,0 0.29,0.02 0.43,0.02 0.14,0 0.34,0.01 0.46,0.01 0.14,0 0.3,-0.01 0.45,-0.01 0.15,0 0.32,-0.02 0.47,-0.02 0.03,0 0.15,0 0.15,0.15 0,0.1 -0.07,0.1 -0.24,0.1 -0.11,0 -0.13,0 -0.26,0.01 -0.15,0.02 -0.15,0.04 -0.15,0.11 0,0.01 0,0.05 0.02,0.15 l 0.44,1.76 h 0.95 l 0.01,0.19 h -0.9 l 0.45,1.79 c 0.05,0.2 0.06,0.22 0.21,0.24 h 0.45 c 0.65,0 1.46,0 1.46,-0.72 0,-0.28 -0.14,-0.72 -0.46,-0.97 -0.29,-0.22 -0.72,-0.34 -1.21,-0.34 l -0.01,-0.19 c 0.61,0 0.86,-0.3 0.86,-0.63 0,-0.08 -0.06,-0.32 -0.09,-0.48 -0.09,-0.32 -0.11,-0.43 -0.11,-0.54 0,-0.55 0.51,-0.77 1.02,-0.77 0.65,0 0.93,0.68 0.93,0.81 0,0.02 -0.02,0.1 -0.12,0.1 -0.09,0 -0.11,-0.05 -0.13,-0.12 -0.1,-0.31 -0.36,-0.59 -0.65,-0.59 -0.18,0 -0.31,0.07 -0.31,0.45 0,0.17 0.04,0.53 0.07,0.72 0.02,0.19 0.02,0.26 0.02,0.33 0,0.08 0,0.3 -0.19,0.51 -0.13,0.15 -0.32,0.24 -0.48,0.29 z"
         inkscape:connector-curvature="0"
         style="fill:#000000;stroke-width:0" /></g>    <g
       style="font-style:normal;font-variant:normal;font-weight:normal;font-stretch:normal;letter-spacing:normal;word-spacing:normal;text-anchor:start;fill:none;fill-opacity:1;fill-rule:evenodd;stroke:#000000;stroke-linecap:butt;stroke-linejoin:miter;stroke-miterlimit:10.43299961;stroke-dasharray:none;stroke-dashoffset:0;stroke-opacity:1"
       id="content"
       transform="matrix(1,0,0,-1,-190.5506,782.88393)"
       xml:space="preserve"
       stroke-miterlimit="10.433"
       font-style="normal"
       font-variant="normal"
       font-weight="normal"
       font-stretch="normal"
       font-size-adjust="none"
       letter-spacing="normal"
       word-spacing="normal"
       ns0:text="$R = \\sqrt{\\#}$"
       ns0:preamble=""><path
         style="fill:#000000;stroke-width:0"
         inkscape:connector-curvature="0"
         d="m 228.61,710.5 0.09,0.02 0.1,0.03 0.09,0.03 0.1,0.03 0.1,0.03 0.09,0.03 0.1,0.04 0.1,0.04 0.09,0.05 0.09,0.04 0.09,0.05 0.09,0.05 0.09,0.05 0.09,0.06 0.08,0.06 0.08,0.06 0.08,0.06 0.07,0.06 0.08,0.07 0.06,0.07 0.07,0.07 0.06,0.07 0.05,0.08 0.05,0.08 0.05,0.08 0.03,0.08 0.04,0.08 0.03,0.09 0.02,0.09 0.02,0.09 0.01,0.09 v 0.09 c 0,0.85 -0.9,1.49 -2.2,1.49 h -2.84 c -0.2,0 -0.29,0 -0.29,-0.2 0,-0.11 0.09,-0.11 0.28,-0.11 0.01,0 0.21,0 0.37,-0.02 0.18,-0.02 0.27,-0.03 0.27,-0.16 0,-0.04 -0.01,-0.07 -0.04,-0.19 l -1.33,-5.33 c -0.1,-0.39 -0.12,-0.47 -0.91,-0.47 -0.18,0 -0.27,0 -0.27,-0.2 0,-0.11 0.12,-0.11 0.14,-0.11 0.28,0 0.98,0.04 1.26,0.04 0.28,0 0.98,-0.04 1.26,-0.04 0.08,0 0.2,0 0.2,0.2 0,0.11 -0.09,0.11 -0.28,0.11 -0.37,0 -0.65,0 -0.65,0.18 0,0.06 0.02,0.11 0.03,0.17 l 0.66,2.63 h 1.19 l -0.01,0.22 h -1.12 l 0.65,2.59 c 0.06,0.24 0.09,0.34 0.28,0.37 0.09,0.01 0.41,0.01 0.61,0.01 0.71,0 1.81,0 1.81,-0.98 0,-0.34 -0.16,-1.03 -0.55,-1.41 -0.25,-0.26 -0.78,-0.58 -1.68,-0.58 l 0.01,-0.22 c 0.91,0 1.09,-0.55 1.09,-0.9 0,-0.15 -0.08,-0.46 -0.14,-0.69 -0.07,-0.27 -0.16,-0.64 -0.16,-0.84 0,-1.07 1.19,-1.07 1.32,-1.07 0.85,0 1.2,1 1.2,1.14 0,0.12 -0.11,0.12 -0.12,0.12 -0.09,0 -0.11,-0.07 -0.13,-0.14 -0.25,-0.74 -0.68,-0.91 -0.91,-0.91 -0.32,0 -0.4,0.22 -0.4,0.61 0,0.31 0.06,0.82 0.11,1.13 0.01,0.14 0.03,0.33 0.03,0.47 0,0.76 -0.66,1.07 -0.93,1.17 z"
         id="path4955" /><path
         style="fill:#000000;stroke-width:0"
         inkscape:connector-curvature="0"
         d="m 240.69,710.37 h 0.03 0.03 0.03 l 0.01,0.01 h 0.02 0.01 0.02 0.01 0.01 l 0.02,0.01 h 0.01 0.01 l 0.02,0.01 h 0.01 l 0.01,0.01 h 0.01 l 0.01,0.01 0.01,0.01 0.01,0.01 0.01,0.01 0.01,0.01 v 0 l 0.01,0.01 v 0 0.01 l 0.01,0.01 v 0 0.01 0.01 0 l 0.01,0.01 v 0.01 0.01 0.01 0 0.01 0.01 c 0,0.2 -0.19,0.2 -0.33,0.2 h -5.97 c -0.14,0 -0.33,0 -0.33,-0.2 0,-0.2 0.19,-0.2 0.34,-0.2 z"
         id="path4957" /><path
         style="fill:#000000;stroke-width:0"
         inkscape:connector-curvature="0"
         d="m 240.7,708.45 h 0.02 0.01 0.03 0.02 0.02 0.01 0.02 0.01 0.01 l 0.02,0.01 h 0.01 0.01 l 0.02,0.01 h 0.01 l 0.01,0.01 h 0.01 l 0.01,0.01 h 0.01 l 0.01,0.01 0.01,0.01 0.01,0.01 H 241 v 0.01 0.01 h 0.01 v 0.01 0 l 0.01,0.01 v 0.01 0 0.01 0.01 h 0.01 v 0.01 0.01 0.01 0.01 0.01 0.01 c 0,0.19 -0.19,0.19 -0.34,0.19 h -5.95 c -0.15,0 -0.34,0 -0.34,-0.19 0,-0.2 0.19,-0.2 0.33,-0.2 z"
         id="path4959" /><path
         style="fill:#000000;stroke-width:0"
         inkscape:connector-curvature="0"
         d="m 248.24,706.15 -1.76,3.87 c -0.07,0.16 -0.12,0.16 -0.15,0.16 -0.01,0 -0.06,0 -0.17,-0.08 l -0.95,-0.72 c -0.12,-0.1 -0.12,-0.13 -0.12,-0.16 0,-0.05 0.03,-0.11 0.09,-0.11 0.06,0 0.23,0.14 0.34,0.22 0.06,0.05 0.21,0.16 0.32,0.24 l 1.97,-4.3 c 0.07,-0.16 0.12,-0.16 0.21,-0.16 0.15,0 0.18,0.06 0.25,0.2 l 4.52,9.34 c 0.07,0.14 0.07,0.18 0.07,0.2 0,0.1 -0.08,0.19 -0.2,0.19 -0.08,0 -0.15,-0.05 -0.23,-0.2 z"
         id="path4961" /><line
         style="stroke-width:0.398"
         x1="252.66"
         y1="714.84998"
         x2="260.95999"
         y2="714.84998"
         id="line4963" /><path
         style="fill:#000000;stroke-width:0"
         inkscape:connector-curvature="0"
         d="m 257.83,708.45 h 2.24 c 0.14,0 0.33,0 0.33,0.2 0,0.19 -0.19,0.19 -0.34,0.19 h -2.11 l 0.4,1.53 h 1.71 c 0.15,0 0.34,0 0.34,0.2 0,0.2 -0.19,0.2 -0.33,0.2 h -1.6 l 0.78,2.87 c 0.01,0.02 0.04,0.14 0.04,0.18 0,0.11 -0.09,0.2 -0.2,0.2 -0.16,0 -0.19,-0.13 -0.22,-0.24 l -0.81,-3.01 h -1.87 l 0.78,2.87 c 0.01,0.02 0.04,0.14 0.04,0.18 0,0.11 -0.09,0.2 -0.2,0.2 -0.16,0 -0.19,-0.13 -0.22,-0.24 l -0.81,-3.01 h -2.23 c -0.14,0 -0.33,0 -0.33,-0.2 0,-0.2 0.19,-0.2 0.34,-0.2 h 2.1 0.41 1.87 l -0.39,-1.53 h -1.88 l 0.4,1.53 h -0.41 l -0.4,-1.53 h -1.7 c -0.15,0 -0.34,0 -0.34,-0.19 0,-0.2 0.19,-0.2 0.33,-0.2 h 1.59 l -0.78,-2.87 c -0.01,-0.03 -0.04,-0.14 -0.04,-0.18 0,-0.11 0.09,-0.2 0.2,-0.2 0.16,0 0.19,0.13 0.22,0.24 l 0.81,3.01 h 1.88 l -0.78,-2.87 c -0.01,-0.03 -0.04,-0.14 -0.04,-0.18 0,-0.11 0.09,-0.2 0.2,-0.2 0.16,0 0.19,0.13 0.22,0.24 z"
         id="path4965" /></g>    <g
       ns0:preamble=""
       ns0:text="$R_{\\mathrm{Dirac}}$"
       word-spacing="normal"
       letter-spacing="normal"
       font-size-adjust="none"
       font-stretch="normal"
       font-weight="normal"
       font-variant="normal"
       font-style="normal"
       stroke-miterlimit="10.433"
       xml:space="preserve"
       transform="matrix(1,0,0,-1,-145.94121,783.37347)"
       id="g5058"
       style="font-style:normal;font-variant:normal;font-weight:normal;font-stretch:normal;letter-spacing:normal;word-spacing:normal;text-anchor:start;fill:none;fill-opacity:1;fill-rule:evenodd;stroke:#000000;stroke-linecap:butt;stroke-linejoin:miter;stroke-miterlimit:10.43299961;stroke-dasharray:none;stroke-dashoffset:0;stroke-opacity:1"><path
         id="path5044"
         d="m 228.61,710.5 0.09,0.02 0.1,0.03 0.09,0.03 0.1,0.03 0.1,0.03 0.09,0.03 0.1,0.04 0.1,0.04 0.09,0.05 0.09,0.04 0.09,0.05 0.09,0.05 0.09,0.05 0.09,0.06 0.08,0.06 0.08,0.06 0.08,0.06 0.07,0.06 0.08,0.07 0.06,0.07 0.07,0.07 0.06,0.07 0.05,0.08 0.05,0.08 0.05,0.08 0.03,0.08 0.04,0.08 0.03,0.09 0.02,0.09 0.02,0.09 0.01,0.09 v 0.09 c 0,0.85 -0.9,1.49 -2.2,1.49 h -2.84 c -0.2,0 -0.29,0 -0.29,-0.2 0,-0.11 0.09,-0.11 0.28,-0.11 0.01,0 0.21,0 0.37,-0.02 0.18,-0.02 0.27,-0.03 0.27,-0.16 0,-0.04 -0.01,-0.07 -0.04,-0.19 l -1.33,-5.33 c -0.1,-0.39 -0.12,-0.47 -0.91,-0.47 -0.18,0 -0.27,0 -0.27,-0.2 0,-0.11 0.12,-0.11 0.14,-0.11 0.28,0 0.98,0.04 1.26,0.04 0.28,0 0.98,-0.04 1.26,-0.04 0.08,0 0.2,0 0.2,0.2 0,0.11 -0.09,0.11 -0.28,0.11 -0.37,0 -0.65,0 -0.65,0.18 0,0.06 0.02,0.11 0.03,0.17 l 0.66,2.63 h 1.19 l -0.01,0.22 h -1.12 l 0.65,2.59 c 0.06,0.24 0.09,0.34 0.28,0.37 0.09,0.01 0.41,0.01 0.61,0.01 0.71,0 1.81,0 1.81,-0.98 0,-0.34 -0.16,-1.03 -0.55,-1.41 -0.25,-0.26 -0.78,-0.58 -1.68,-0.58 l 0.01,-0.22 c 0.91,0 1.09,-0.55 1.09,-0.9 0,-0.15 -0.08,-0.46 -0.14,-0.69 -0.07,-0.27 -0.16,-0.64 -0.16,-0.84 0,-1.07 1.19,-1.07 1.32,-1.07 0.85,0 1.2,1 1.2,1.14 0,0.12 -0.11,0.12 -0.12,0.12 -0.09,0 -0.11,-0.07 -0.13,-0.14 -0.25,-0.74 -0.68,-0.91 -0.91,-0.91 -0.32,0 -0.4,0.22 -0.4,0.61 0,0.31 0.06,0.82 0.11,1.13 0.01,0.14 0.03,0.33 0.03,0.47 0,0.76 -0.66,1.07 -0.93,1.17 z"
         inkscape:connector-curvature="0"
         style="fill:#000000;stroke-width:0" /><path
         id="path5046"
         d="m 231.4,710.38 v -0.25 h 0.17 c 0.54,0 0.55,-0.07 0.55,-0.31 v -3.63 c 0,-0.23 -0.01,-0.31 -0.55,-0.31 h -0.17 v -0.25 h 2.76 l -0.19,0.25 h -0.87 c -0.33,0 -0.34,0.06 -0.34,0.27 v 3.71 c 0,0.21 0.01,0.27 0.34,0.27 h 0.86 c 0.6,0 1.11,-0.24 1.44,-0.65 0.28,-0.38 0.39,-0.91 0.39,-1.51 0,-0.81 -0.2,-1.23 -0.44,-1.52 -0.32,-0.35 -0.82,-0.57 -1.38,-0.57 l 0.19,-0.25 c 1.28,0 2.35,1.03 2.35,2.34 0,1.32 -1.05,2.41 -2.35,2.41 z"
         inkscape:connector-curvature="0"
         style="fill:#000000;stroke-width:0" /><path
         id="path5048"
         d="m 238.47,709.92 v 0.02 0.02 0.02 l -0.01,0.02 v 0.01 l -0.01,0.02 v 0.02 l -0.01,0.02 -0.01,0.02 -0.01,0.01 -0.01,0.02 -0.01,0.02 -0.01,0.01 -0.01,0.02 -0.01,0.01 -0.01,0.02 -0.02,0.01 -0.01,0.01 -0.02,0.01 -0.01,0.02 -0.02,0.01 -0.02,0.01 -0.01,0.01 h -0.02 l -0.02,0.01 -0.02,0.01 h -0.02 l -0.02,0.01 h -0.02 l -0.02,0.01 h -0.02 -0.02 c -0.22,0 -0.4,-0.17 -0.4,-0.4 0,-0.25 0.2,-0.4 0.4,-0.4 0.22,0 0.4,0.17 0.4,0.4 z"
         inkscape:connector-curvature="0"
         style="fill:#000000;stroke-width:0" /><path
         id="path5050"
         d="m 237.41,708.62 v -0.25 c 0.44,0 0.5,-0.04 0.5,-0.38 v -1.81 c 0,-0.3 -0.07,-0.3 -0.52,-0.3 v -0.25 c 0.01,0 0.5,0.03 0.78,0.03 0.24,0 0.5,-0.01 0.74,-0.03 v 0.25 c -0.4,0 -0.47,0 -0.47,0.29 v 2.53 z"
         inkscape:connector-curvature="0"
         style="fill:#000000;stroke-width:0" /><path
         id="path5052"
         d="m 240.64,707.22 v 0.05 l 0.01,0.06 v 0.05 l 0.01,0.06 v 0.06 l 0.01,0.05 0.01,0.06 0.02,0.05 0.01,0.06 0.02,0.05 0.01,0.06 0.02,0.05 0.03,0.05 0.02,0.05 0.02,0.05 0.03,0.05 0.03,0.04 0.03,0.05 0.04,0.04 0.03,0.04 0.04,0.04 0.04,0.03 0.04,0.03 0.04,0.03 0.05,0.03 0.05,0.02 0.05,0.02 0.05,0.02 0.05,0.02 h 0.06 l 0.06,0.01 h 0.06 c -0.06,-0.05 -0.12,-0.14 -0.12,-0.25 0,-0.23 0.18,-0.32 0.31,-0.32 0.17,0 0.33,0.11 0.33,0.32 0,0.24 -0.23,0.45 -0.56,0.45 -0.35,0 -0.73,-0.22 -0.94,-0.75 h -0.01 v 0.75 l -1,-0.08 v -0.25 c 0.47,0 0.53,-0.05 0.53,-0.39 v -1.8 c 0,-0.3 -0.07,-0.3 -0.53,-0.3 v -0.25 c 0.04,0 0.51,0.03 0.8,0.03 0.3,0 0.61,-0.01 0.91,-0.03 v 0.25 h -0.14 c -0.52,0 -0.52,0.08 -0.52,0.31 z"
         inkscape:connector-curvature="0"
         style="fill:#000000;stroke-width:0" /><path
         id="path5054"
         d="m 245.48,707.49 v 0.07 0.07 0.06 0.06 l -0.01,0.03 v 0.03 0.03 0.03 l -0.01,0.03 v 0.03 l -0.01,0.02 -0.01,0.03 -0.01,0.03 -0.01,0.02 -0.01,0.03 -0.01,0.03 -0.01,0.02 -0.01,0.03 -0.02,0.02 -0.01,0.03 -0.02,0.02 -0.02,0.03 -0.02,0.02 -0.02,0.03 -0.03,0.02 -0.02,0.03 -0.03,0.02 -0.03,0.03 c -0.29,0.23 -0.62,0.34 -1.04,0.34 -0.66,0 -1.13,-0.25 -1.13,-0.67 0,-0.22 0.16,-0.34 0.34,-0.34 0.19,0 0.33,0.14 0.33,0.32 0,0.12 -0.06,0.27 -0.25,0.32 0.25,0.18 0.66,0.18 0.7,0.18 0.39,0 0.82,-0.26 0.82,-0.84 v -0.22 -0.18 -0.69 c 0,-0.67 -0.59,-0.85 -0.9,-0.85 -0.36,0 -0.69,0.23 -0.69,0.57 0,0.39 0.33,0.92 1.59,0.97 v 0.18 c -0.39,-0.01 -0.85,-0.03 -1.36,-0.22 -0.63,-0.23 -0.82,-0.61 -0.82,-0.93 0,-0.6 0.73,-0.77 1.22,-0.77 0.56,0 0.89,0.31 1.04,0.59 0.03,-0.29 0.21,-0.55 0.53,-0.55 0.02,0 0.7,0 0.7,0.66 v 0.38 H 246 v -0.38 c 0,-0.07 0,-0.4 -0.26,-0.4 -0.26,0 -0.26,0.33 -0.26,0.42 z"
         inkscape:connector-curvature="0"
         style="fill:#000000;stroke-width:0" /><path
         id="path5056"
         d="m 249.05,708.41 -0.01,-0.01 -0.01,-0.01 h -0.01 l -0.01,-0.01 H 249 l -0.01,-0.01 -0.01,-0.01 -0.01,-0.01 h -0.01 l -0.01,-0.01 v -0.01 l -0.01,-0.01 -0.01,-0.01 -0.01,-0.01 v -0.01 l -0.01,-0.01 -0.01,-0.01 v -0.01 l -0.01,-0.01 v -0.01 l -0.01,-0.01 v -0.01 -0.01 l -0.01,-0.01 v -0.01 -0.01 l -0.01,-0.02 v -0.01 -0.01 -0.01 -0.02 -0.01 c 0,-0.19 0.13,-0.33 0.33,-0.33 0.19,0 0.33,0.12 0.33,0.34 0,0.62 -0.97,0.62 -1.16,0.62 -1.05,0 -1.7,-0.8 -1.7,-1.6 0,-0.87 0.74,-1.57 1.66,-1.57 1.04,0 1.29,0.82 1.29,0.91 0,0.08 -0.09,0.08 -0.12,0.08 -0.09,0 -0.1,-0.02 -0.13,-0.12 -0.16,-0.43 -0.53,-0.65 -0.96,-0.65 -0.48,0 -1.11,0.36 -1.11,1.36 0,0.88 0.44,1.37 1.09,1.37 0.09,0 0.42,0 0.67,-0.1 z"
         inkscape:connector-curvature="0"
         style="fill:#000000;stroke-width:0" /></g>    <g
       style="font-style:normal;font-variant:normal;font-weight:normal;font-stretch:normal;letter-spacing:normal;word-spacing:normal;text-anchor:start;fill:none;fill-opacity:1;fill-rule:evenodd;stroke:#000000;stroke-linecap:butt;stroke-linejoin:miter;stroke-miterlimit:10.43299961;stroke-dasharray:none;stroke-dashoffset:0;stroke-opacity:1"
       id="g5172"
       transform="matrix(1,0,0,-1,-98.702381,774.19048)"
       xml:space="preserve"
       stroke-miterlimit="10.433"
       font-style="normal"
       font-variant="normal"
       font-weight="normal"
       font-stretch="normal"
       font-size-adjust="none"
       letter-spacing="normal"
       word-spacing="normal"
       ns0:text="$R_{\\mathrm{Majorana}}$"
       ns0:preamble=""><path
         style="fill:#000000;stroke-width:0"
         inkscape:connector-curvature="0"
         d="m 228.61,710.5 0.09,0.02 0.1,0.03 0.09,0.03 0.1,0.03 0.1,0.03 0.09,0.03 0.1,0.04 0.1,0.04 0.09,0.05 0.09,0.04 0.09,0.05 0.09,0.05 0.09,0.05 0.09,0.06 0.08,0.06 0.08,0.06 0.08,0.06 0.07,0.06 0.08,0.07 0.06,0.07 0.07,0.07 0.06,0.07 0.05,0.08 0.05,0.08 0.05,0.08 0.03,0.08 0.04,0.08 0.03,0.09 0.02,0.09 0.02,0.09 0.01,0.09 v 0.09 c 0,0.85 -0.9,1.49 -2.2,1.49 h -2.84 c -0.2,0 -0.29,0 -0.29,-0.2 0,-0.11 0.09,-0.11 0.28,-0.11 0.01,0 0.21,0 0.37,-0.02 0.18,-0.02 0.27,-0.03 0.27,-0.16 0,-0.04 -0.01,-0.07 -0.04,-0.19 l -1.33,-5.33 c -0.1,-0.39 -0.12,-0.47 -0.91,-0.47 -0.18,0 -0.27,0 -0.27,-0.2 0,-0.11 0.12,-0.11 0.14,-0.11 0.28,0 0.98,0.04 1.26,0.04 0.28,0 0.98,-0.04 1.26,-0.04 0.08,0 0.2,0 0.2,0.2 0,0.11 -0.09,0.11 -0.28,0.11 -0.37,0 -0.65,0 -0.65,0.18 0,0.06 0.02,0.11 0.03,0.17 l 0.66,2.63 h 1.19 l -0.01,0.22 h -1.12 l 0.65,2.59 c 0.06,0.24 0.09,0.34 0.28,0.37 0.09,0.01 0.41,0.01 0.61,0.01 0.71,0 1.81,0 1.81,-0.98 0,-0.34 -0.16,-1.03 -0.55,-1.41 -0.25,-0.26 -0.78,-0.58 -1.68,-0.58 l 0.01,-0.22 c 0.91,0 1.09,-0.55 1.09,-0.9 0,-0.15 -0.08,-0.46 -0.14,-0.69 -0.07,-0.27 -0.16,-0.64 -0.16,-0.84 0,-1.07 1.19,-1.07 1.32,-1.07 0.85,0 1.2,1 1.2,1.14 0,0.12 -0.11,0.12 -0.12,0.12 -0.09,0 -0.11,-0.07 -0.13,-0.14 -0.25,-0.74 -0.68,-0.91 -0.91,-0.91 -0.32,0 -0.4,0.22 -0.4,0.61 0,0.31 0.06,0.82 0.11,1.13 0.01,0.14 0.03,0.33 0.03,0.47 0,0.76 -0.66,1.07 -0.93,1.17 z"
         id="path5152" /><path
         style="fill:#000000;stroke-width:0"
         inkscape:connector-curvature="0"
         d="m 232.92,710.23 -0.01,0.01 v 0.01 l -0.01,0.02 v 0.01 l -0.01,0.01 -0.01,0.01 v 0.01 l -0.01,0.01 v 0 l -0.01,0.01 -0.01,0.01 v 0 l -0.01,0.01 h -0.01 v 0.01 h -0.01 -0.01 l -0.01,0.01 h -0.01 v 0 h -0.01 l -0.01,0.01 h -0.01 -0.01 -0.01 -0.01 -0.01 -0.01 -0.02 -0.01 -0.01 -0.02 -1.22 v -0.25 h 0.17 c 0.54,0 0.55,-0.07 0.55,-0.31 v -3.44 c 0,-0.19 0,-0.5 -0.72,-0.5 v -0.25 c 0.29,0.02 0.57,0.03 0.85,0.03 0.29,0 0.57,-0.01 0.86,-0.03 v 0.25 c -0.72,0 -0.72,0.31 -0.72,0.5 v 3.67 0 l 1.82,-4.26 c 0.04,-0.08 0.07,-0.16 0.18,-0.16 0.04,0 0.11,0.02 0.16,0.15 l 1.85,4.34 h 0.01 v -3.93 c 0,-0.23 -0.02,-0.31 -0.56,-0.31 h -0.16 v -0.25 c 0.33,0.02 0.72,0.03 1.01,0.03 0.29,0 0.68,-0.01 1.01,-0.03 v 0.25 h -0.16 c -0.54,0 -0.56,0.07 -0.56,0.31 v 3.63 c 0,0.23 0.02,0.31 0.56,0.31 h 0.16 v 0.25 h -1.21 c -0.14,0 -0.21,0 -0.26,-0.14 l -1.68,-3.94 z"
         id="path5154" /><path
         style="fill:#000000;stroke-width:0"
         inkscape:connector-curvature="0"
         d="m 241.28,707.49 v 0.07 0.07 0.06 0.06 0.03 l -0.01,0.03 v 0.03 0.03 l -0.01,0.03 v 0.03 l -0.01,0.02 -0.01,0.03 -0.01,0.03 v 0.02 l -0.01,0.03 -0.02,0.03 -0.01,0.02 -0.01,0.03 -0.02,0.02 -0.01,0.03 -0.02,0.02 -0.02,0.03 -0.02,0.02 -0.02,0.03 -0.03,0.02 -0.02,0.03 -0.03,0.02 -0.03,0.03 c -0.28,0.23 -0.62,0.34 -1.03,0.34 -0.67,0 -1.14,-0.25 -1.14,-0.67 0,-0.22 0.16,-0.34 0.34,-0.34 0.19,0 0.33,0.14 0.33,0.32 0,0.12 -0.06,0.27 -0.25,0.32 0.25,0.18 0.66,0.18 0.7,0.18 0.39,0 0.82,-0.26 0.82,-0.84 v -0.22 -0.18 -0.69 c 0,-0.67 -0.59,-0.85 -0.9,-0.85 -0.36,0 -0.69,0.23 -0.69,0.57 0,0.39 0.33,0.92 1.59,0.97 v 0.18 c -0.38,-0.01 -0.85,-0.03 -1.36,-0.22 -0.63,-0.23 -0.82,-0.61 -0.82,-0.93 0,-0.6 0.73,-0.77 1.22,-0.77 0.56,0 0.89,0.31 1.04,0.59 0.03,-0.29 0.21,-0.55 0.54,-0.55 0.01,0 0.69,0 0.69,0.66 v 0.38 h -0.24 v -0.38 c 0,-0.07 0,-0.4 -0.26,-0.4 -0.26,0 -0.26,0.33 -0.26,0.42 z"
         id="path5156" /><path
         style="fill:#000000;stroke-width:0"
         inkscape:connector-curvature="0"
         d="m 244.26,709.91 v 0.03 0.02 0.02 l -0.01,0.02 v 0.02 l -0.01,0.02 -0.01,0.02 v 0.02 l -0.01,0.02 -0.01,0.02 -0.01,0.01 -0.01,0.02 -0.01,0.01 -0.02,0.02 -0.01,0.01 -0.01,0.02 -0.02,0.01 -0.01,0.01 -0.02,0.01 -0.01,0.01 -0.02,0.01 -0.02,0.01 -0.01,0.01 -0.02,0.01 -0.02,0.01 h -0.02 l -0.01,0.01 h -0.02 -0.02 l -0.02,0.01 h -0.02 -0.02 c -0.24,0 -0.4,-0.2 -0.4,-0.4 0,-0.24 0.19,-0.4 0.39,-0.4 0.25,0 0.41,0.19 0.41,0.39 z"
         id="path5158" /><path
         style="fill:#000000;stroke-width:0"
         inkscape:connector-curvature="0"
         d="m 243.16,708.62 v -0.25 c 0.51,0 0.58,-0.05 0.58,-0.39 v -2.68 c 0,-0.27 -0.06,-0.89 -0.53,-0.89 -0.02,0 -0.19,0 -0.35,0.07 0.02,0 0.18,0.09 0.18,0.3 0,0.18 -0.14,0.32 -0.33,0.32 -0.2,0 -0.34,-0.14 -0.34,-0.33 0,-0.38 0.42,-0.56 0.85,-0.56 0.57,0 1.04,0.44 1.04,1.1 v 3.39 z"
         id="path5160" /><path
         style="fill:#000000;stroke-width:0"
         inkscape:connector-curvature="0"
         d="m 248.73,707.11 v 0.08 l -0.01,0.08 -0.01,0.08 -0.01,0.08 -0.02,0.08 -0.03,0.07 -0.02,0.08 -0.03,0.07 -0.04,0.07 -0.03,0.07 -0.04,0.07 -0.05,0.07 -0.04,0.06 -0.06,0.06 -0.05,0.06 -0.05,0.06 -0.06,0.05 -0.07,0.05 -0.06,0.05 -0.07,0.05 -0.07,0.04 -0.07,0.04 -0.07,0.04 -0.08,0.03 -0.08,0.03 -0.08,0.03 -0.08,0.02 -0.08,0.02 -0.09,0.01 -0.08,0.01 -0.09,0.01 h -0.09 v -0.19 c 0.41,0 0.7,-0.2 0.86,-0.41 0.19,-0.27 0.21,-0.62 0.21,-0.96 0,-0.33 -0.02,-0.7 -0.22,-0.98 -0.19,-0.27 -0.51,-0.41 -0.85,-0.41 v 0 c -0.26,0 -0.64,0.09 -0.87,0.43 -0.19,0.28 -0.21,0.64 -0.21,0.96 0,0.3 0.01,0.71 0.25,1.01 0.18,0.21 0.47,0.36 0.83,0.36 v 0.19 c -0.97,0 -1.72,-0.75 -1.72,-1.62 0,-0.86 0.77,-1.55 1.72,-1.55 0.94,0 1.71,0.69 1.71,1.55 z"
         id="path5162" /><path
         style="fill:#000000;stroke-width:0"
         inkscape:connector-curvature="0"
         d="m 250.4,707.22 v 0.05 0.06 0.05 l 0.01,0.06 0.01,0.06 v 0.05 l 0.02,0.06 0.01,0.05 0.01,0.06 0.02,0.05 0.02,0.06 0.02,0.05 0.02,0.05 0.02,0.05 0.03,0.05 0.02,0.05 0.03,0.04 0.03,0.05 0.04,0.04 0.03,0.04 0.04,0.04 0.04,0.03 0.04,0.03 0.05,0.03 0.04,0.03 0.05,0.02 0.05,0.02 0.05,0.02 0.06,0.02 h 0.05 l 0.06,0.01 h 0.06 c -0.06,-0.05 -0.12,-0.14 -0.12,-0.25 0,-0.23 0.19,-0.32 0.32,-0.32 0.17,0 0.32,0.11 0.32,0.32 0,0.24 -0.23,0.45 -0.55,0.45 -0.35,0 -0.74,-0.22 -0.95,-0.75 v 0 0.75 l -1,-0.08 v -0.25 c 0.46,0 0.52,-0.05 0.52,-0.39 v -1.8 c 0,-0.3 -0.07,-0.3 -0.52,-0.3 v -0.25 c 0.03,0 0.51,0.03 0.79,0.03 0.3,0 0.61,-0.01 0.91,-0.03 v 0.25 h -0.14 c -0.51,0 -0.51,0.08 -0.51,0.31 z"
         id="path5164" /><path
         style="fill:#000000;stroke-width:0"
         inkscape:connector-curvature="0"
         d="m 255.24,707.49 -0.01,0.07 v 0.07 0.06 0.06 0.03 0.03 l -0.01,0.03 v 0.03 l -0.01,0.03 v 0.03 l -0.01,0.02 -0.01,0.03 v 0.03 l -0.01,0.02 -0.01,0.03 -0.01,0.03 -0.02,0.02 -0.01,0.03 -0.01,0.02 -0.02,0.03 -0.02,0.02 -0.02,0.03 -0.02,0.02 -0.02,0.03 -0.02,0.02 -0.03,0.03 -0.03,0.02 -0.03,0.03 c -0.28,0.23 -0.62,0.34 -1.03,0.34 -0.67,0 -1.13,-0.25 -1.13,-0.67 0,-0.22 0.15,-0.34 0.33,-0.34 0.19,0 0.33,0.14 0.33,0.32 0,0.12 -0.06,0.27 -0.25,0.32 0.26,0.18 0.66,0.18 0.7,0.18 0.4,0 0.82,-0.26 0.82,-0.84 v -0.22 -0.18 -0.69 c 0,-0.67 -0.58,-0.85 -0.9,-0.85 -0.36,0 -0.69,0.23 -0.69,0.57 0,0.39 0.33,0.92 1.59,0.97 v 0.18 c -0.38,-0.01 -0.84,-0.03 -1.35,-0.22 -0.63,-0.23 -0.83,-0.61 -0.83,-0.93 0,-0.6 0.73,-0.77 1.23,-0.77 0.55,0 0.88,0.31 1.03,0.59 0.03,-0.29 0.22,-0.55 0.54,-0.55 0.01,0 0.69,0 0.69,0.66 v 0.38 h -0.24 v -0.38 c 0,-0.07 0,-0.4 -0.26,-0.4 -0.25,0 -0.25,0.33 -0.25,0.42 z"
         id="path5166" /><path
         style="fill:#000000;stroke-width:0"
         inkscape:connector-curvature="0"
         d="m 259.69,707.74 v 0.05 0.06 l -0.01,0.05 -0.01,0.05 V 708 l -0.01,0.05 -0.02,0.05 -0.01,0.04 -0.02,0.05 -0.01,0.04 -0.02,0.04 -0.03,0.04 -0.02,0.03 -0.03,0.04 -0.02,0.03 -0.04,0.03 -0.03,0.03 -0.03,0.03 -0.04,0.03 -0.04,0.02 -0.04,0.03 -0.05,0.02 -0.04,0.02 -0.05,0.01 -0.05,0.02 -0.06,0.01 -0.05,0.01 -0.06,0.01 -0.06,0.01 h -0.06 l -0.07,0.01 h -0.07 c -0.57,0 -0.94,-0.31 -1.14,-0.68 h -0.01 v 0.68 l -1.02,-0.08 v -0.25 c 0.46,0 0.52,-0.05 0.52,-0.39 v -1.8 c 0,-0.3 -0.07,-0.3 -0.52,-0.3 v -0.25 c 0.01,0 0.5,0.03 0.79,0.03 0.26,0 0.74,-0.02 0.81,-0.03 v 0.25 c -0.46,0 -0.53,0 -0.53,0.3 v 1.25 c 0,0.73 0.58,1.07 1.04,1.07 0.49,0 0.56,-0.38 0.56,-0.73 v -1.59 c 0,-0.3 -0.07,-0.3 -0.53,-0.3 v -0.25 c 0.02,0 0.51,0.03 0.8,0.03 0.26,0 0.74,-0.02 0.8,-0.03 v 0.25 c -0.45,0 -0.52,0 -0.52,0.3 z"
         id="path5168" /><path
         style="fill:#000000;stroke-width:0"
         inkscape:connector-curvature="0"
         d="m 263.61,707.49 v 0.07 0.07 l -0.01,0.06 v 0.06 0.03 0.03 l -0.01,0.03 v 0.03 0.03 l -0.01,0.03 -0.01,0.02 v 0.03 l -0.01,0.03 -0.01,0.02 -0.01,0.03 -0.01,0.03 -0.01,0.02 -0.02,0.03 -0.01,0.02 -0.02,0.03 -0.02,0.02 -0.02,0.03 -0.02,0.02 -0.02,0.03 -0.02,0.02 -0.03,0.03 -0.03,0.02 -0.02,0.03 c -0.29,0.23 -0.63,0.34 -1.04,0.34 -0.66,0 -1.13,-0.25 -1.13,-0.67 0,-0.22 0.15,-0.34 0.33,-0.34 0.19,0 0.33,0.14 0.33,0.32 0,0.12 -0.05,0.27 -0.24,0.32 0.25,0.18 0.65,0.18 0.7,0.18 0.39,0 0.81,-0.26 0.81,-0.84 v -0.22 -0.18 -0.69 c 0,-0.67 -0.58,-0.85 -0.9,-0.85 -0.35,0 -0.69,0.23 -0.69,0.57 0,0.39 0.34,0.92 1.59,0.97 v 0.18 c -0.38,-0.01 -0.84,-0.03 -1.35,-0.22 -0.63,-0.23 -0.83,-0.61 -0.83,-0.93 0,-0.6 0.73,-0.77 1.23,-0.77 0.56,0 0.88,0.31 1.03,0.59 0.03,-0.29 0.22,-0.55 0.54,-0.55 0.01,0 0.69,0 0.69,0.66 v 0.38 h -0.24 v -0.38 c 0,-0.07 0,-0.4 -0.25,-0.4 -0.26,0 -0.26,0.33 -0.26,0.42 z"
         id="path5170" /></g>    <g
       ns0:preamble=""
       ns0:text="scalar field theory with $\\tilde \\phi \\in S^1 / \\mathbf{Z}_2 = I$"
       word-spacing="normal"
       letter-spacing="normal"
       font-size-adjust="none"
       font-stretch="normal"
       font-weight="normal"
       font-variant="normal"
       font-style="normal"
       stroke-miterlimit="10.433"
       xml:space="preserve"
       transform="matrix(1,0,0,-1,-92.2425,731.37231)"
       id="g5352"
       style="font-style:normal;font-variant:normal;font-weight:normal;font-stretch:normal;letter-spacing:normal;word-spacing:normal;text-anchor:start;fill:none;fill-opacity:1;fill-rule:evenodd;stroke:#000000;stroke-linecap:butt;stroke-linejoin:miter;stroke-miterlimit:10.43299961;stroke-dasharray:none;stroke-dashoffset:0;stroke-opacity:1"><path
         id="path5288"
         d="m 225.51,709.05 h 0.02 l 0.02,-0.01 h 0.03 l 0.03,-0.01 0.04,-0.01 0.03,-0.01 0.04,-0.01 0.04,-0.01 0.04,-0.01 0.04,-0.01 0.05,-0.02 0.04,-0.02 0.04,-0.01 0.05,-0.03 0.04,-0.02 0.05,-0.02 0.04,-0.03 0.04,-0.03 0.04,-0.03 0.04,-0.03 0.04,-0.03 0.04,-0.04 0.03,-0.04 0.03,-0.04 0.03,-0.05 0.01,-0.02 0.02,-0.03 0.01,-0.02 0.01,-0.03 0.01,-0.02 0.01,-0.03 0.01,-0.03 v -0.02 l 0.01,-0.03 v -0.03 l 0.01,-0.03 v -0.04 -0.03 -0.03 c 0,-0.51 -0.35,-0.91 -1.12,-0.91 -0.84,0 -1.2,0.57 -1.39,1.42 -0.03,0.12 -0.04,0.16 -0.14,0.16 -0.13,0 -0.13,-0.07 -0.13,-0.24 v -1.32 c 0,-0.16 0,-0.23 0.11,-0.23 0.05,0 0.06,0.01 0.25,0.19 0.02,0.02 0.02,0.04 0.2,0.23 0.44,-0.41 0.89,-0.42 1.1,-0.42 1.14,0 1.6,0.66 1.6,1.38 0,0.52 -0.3,0.82 -0.42,0.94 -0.33,0.32 -0.72,0.4 -1.13,0.48 -0.56,0.11 -1.23,0.23 -1.23,0.81 0,0.35 0.26,0.76 1.12,0.76 1.09,0 1.14,-0.9 1.16,-1.21 0.01,-0.09 0.1,-0.09 0.12,-0.09 0.13,0 0.13,0.06 0.13,0.24 v 1.01 c 0,0.17 0,0.24 -0.11,0.24 -0.05,0 -0.07,0 -0.2,-0.12 -0.03,-0.04 -0.13,-0.13 -0.17,-0.16 -0.38,0.28 -0.78,0.28 -0.93,0.28 -1.22,0 -1.6,-0.67 -1.6,-1.23 0,-0.34 0.16,-0.62 0.43,-0.84 0.32,-0.26 0.6,-0.32 1.32,-0.46 z"
         inkscape:connector-curvature="0"
         style="fill:#000000;stroke-width:0" /><path
         id="path5290"
         d="m 228.53,709.29 v 0.08 0.07 0.07 l 0.01,0.07 v 0.07 l 0.01,0.07 0.01,0.06 v 0.06 l 0.01,0.06 0.01,0.06 0.01,0.06 0.02,0.06 0.02,0.11 0.03,0.1 0.04,0.1 0.03,0.09 0.04,0.09 0.04,0.08 0.05,0.07 0.04,0.07 0.05,0.07 0.05,0.06 0.05,0.05 0.06,0.05 0.05,0.05 0.06,0.04 0.05,0.04 0.06,0.03 0.05,0.03 0.06,0.03 0.06,0.02 0.05,0.02 0.06,0.01 0.05,0.02 0.06,0.01 h 0.05 l 0.05,0.01 h 0.05 c 0.09,0 0.72,-0.01 1.07,-0.37 -0.41,-0.03 -0.47,-0.33 -0.47,-0.46 0,-0.26 0.18,-0.45 0.46,-0.45 0.26,0 0.46,0.16 0.46,0.46 0,0.68 -0.76,1.07 -1.53,1.07 -1.24,0 -2.16,-1.08 -2.16,-2.31 0,-1.27 0.99,-2.25 2.14,-2.25 1.34,0 1.66,1.19 1.66,1.29 0,0.1 -0.1,0.1 -0.13,0.1 -0.09,0 -0.11,-0.04 -0.13,-0.1 -0.29,-0.93 -0.94,-1.05 -1.31,-1.05 -0.53,0 -1.4,0.43 -1.4,2.03 z"
         inkscape:connector-curvature="0"
         style="fill:#000000;stroke-width:0" /><path
         id="path5292"
         d="m 235.11,707.88 v -0.04 l 0.01,-0.03 0.01,-0.04 v -0.04 l 0.01,-0.04 0.02,-0.03 0.01,-0.04 0.01,-0.03 0.02,-0.04 0.01,-0.03 0.02,-0.04 0.02,-0.03 0.02,-0.03 0.02,-0.04 0.02,-0.03 0.03,-0.03 0.02,-0.02 0.03,-0.03 0.03,-0.03 0.03,-0.02 0.03,-0.02 0.03,-0.03 0.03,-0.02 0.03,-0.01 0.04,-0.02 0.03,-0.01 0.04,-0.02 0.04,-0.01 h 0.04 l 0.04,-0.01 h 0.04 0.05 c 0.21,0 0.82,0.13 0.82,0.94 v 0.56 h -0.25 v -0.56 c 0,-0.58 -0.25,-0.64 -0.36,-0.64 -0.33,0 -0.37,0.45 -0.37,0.5 v 1.99 c 0,0.41 0,0.8 -0.36,1.17 -0.39,0.39 -0.89,0.55 -1.37,0.55 -0.82,0 -1.5,-0.47 -1.5,-1.13 0,-0.29 0.2,-0.46 0.46,-0.46 0.28,0 0.45,0.19 0.45,0.45 0,0.12 -0.05,0.45 -0.5,0.46 0.27,0.35 0.75,0.46 1.07,0.46 0.49,0 1.06,-0.39 1.06,-1.27 v -0.37 -0.21 -0.99 c 0,-0.95 -0.72,-1.29 -1.17,-1.29 -0.49,0 -0.89,0.35 -0.89,0.85 0,0.54 0.41,1.37 2.06,1.43 v 0 0.21 c -0.51,-0.03 -1.21,-0.06 -1.83,-0.36 -0.75,-0.34 -1,-0.85 -1,-1.29 0,-0.81 0.97,-1.05 1.59,-1.05 0.66,0 1.12,0.39 1.31,0.86 z"
         inkscape:connector-curvature="0"
         style="fill:#000000;stroke-width:0" /><path
         id="path5294"
         d="m 238.54,714.02 -1.44,-0.11 v -0.31 c 0.7,0 0.78,-0.07 0.78,-0.55 v -5.17 c 0,-0.45 -0.11,-0.45 -0.78,-0.45 v -0.31 c 0.33,0.02 0.86,0.04 1.11,0.04 0.25,0 0.73,-0.02 1.1,-0.04 v 0.31 c -0.66,0 -0.77,0 -0.77,0.45 z"
         inkscape:connector-curvature="0"
         style="fill:#000000;stroke-width:0" /><path
         id="path5296"
         d="m 242.86,707.88 v -0.04 l 0.01,-0.03 0.01,-0.04 v -0.04 l 0.01,-0.04 0.01,-0.03 0.02,-0.04 0.01,-0.03 0.02,-0.04 0.01,-0.03 0.02,-0.04 0.02,-0.03 0.02,-0.03 0.02,-0.04 0.02,-0.03 0.03,-0.03 0.02,-0.02 0.03,-0.03 0.03,-0.03 0.02,-0.02 0.03,-0.02 0.04,-0.03 0.03,-0.02 0.03,-0.01 0.04,-0.02 0.03,-0.01 0.04,-0.02 0.04,-0.01 h 0.04 l 0.04,-0.01 h 0.04 0.05 c 0.21,0 0.81,0.13 0.81,0.94 v 0.56 h -0.25 v -0.56 c 0,-0.58 -0.24,-0.64 -0.35,-0.64 -0.33,0 -0.37,0.45 -0.37,0.5 v 1.99 c 0,0.41 0,0.8 -0.36,1.17 -0.39,0.39 -0.89,0.55 -1.37,0.55 -0.82,0 -1.5,-0.47 -1.5,-1.13 0,-0.29 0.2,-0.46 0.45,-0.46 0.28,0 0.46,0.19 0.46,0.45 0,0.12 -0.05,0.45 -0.51,0.46 0.27,0.35 0.76,0.46 1.08,0.46 0.49,0 1.06,-0.39 1.06,-1.27 v -0.37 -0.21 -0.99 c 0,-0.95 -0.72,-1.29 -1.17,-1.29 -0.49,0 -0.9,0.35 -0.9,0.85 0,0.54 0.42,1.37 2.07,1.43 v 0 0.21 c -0.51,-0.03 -1.21,-0.06 -1.84,-0.36 -0.74,-0.34 -0.99,-0.85 -0.99,-1.29 0,-0.81 0.96,-1.05 1.59,-1.05 0.66,0 1.12,0.39 1.31,0.86 z"
         inkscape:connector-curvature="0"
         style="fill:#000000;stroke-width:0" /><path
         id="path5298"
         d="m 246.18,710.42 v 1.1 l -1.38,-0.11 v -0.31 c 0.7,0 0.78,-0.07 0.78,-0.56 v -2.66 c 0,-0.45 -0.11,-0.45 -0.78,-0.45 v -0.31 c 0.39,0.02 0.86,0.04 1.13,0.04 0.4,0 0.87,0 1.27,-0.04 v 0.31 h -0.21 c -0.74,0 -0.76,0.11 -0.76,0.47 v 1.53 c 0,0.98 0.42,1.87 1.18,1.87 0.07,0 0.09,0 0.11,-0.01 -0.03,-0.01 -0.23,-0.13 -0.23,-0.39 0,-0.28 0.21,-0.43 0.43,-0.43 0.18,0 0.43,0.12 0.43,0.44 0,0.32 -0.31,0.61 -0.74,0.61 -0.73,0 -1.09,-0.67 -1.23,-1.1 z"
         inkscape:connector-curvature="0"
         style="fill:#000000;stroke-width:0" /><path
         id="path5300"
         d="m 255.03,711.1 h 0.02 0.02 0.02 0.02 0.02 0.02 l 0.02,-0.01 h 0.01 0.04 l 0.03,-0.01 h 0.03 l 0.03,-0.01 0.02,-0.01 h 0.03 l 0.02,-0.01 0.02,-0.01 0.02,-0.02 0.01,-0.01 0.02,-0.01 0.02,-0.02 0.01,-0.01 0.01,-0.02 0.01,-0.02 0.01,-0.02 0.01,-0.02 0.01,-0.02 v -0.03 l 0.01,-0.02 v -0.03 l 0.01,-0.03 v -0.03 -0.03 l 0.01,-0.03 v -0.03 -0.04 -0.04 -2.68 c 0,-0.45 -0.11,-0.45 -0.78,-0.45 v -0.31 c 0.33,0.02 0.86,0.04 1.11,0.04 0.25,0 0.73,-0.02 1.1,-0.04 v 0.31 c -0.66,0 -0.77,0 -0.77,0.45 v 3.65 l -1.26,-0.09 c -0.16,-0.01 -0.17,-0.02 -0.18,-0.02 -0.02,-0.01 -0.04,-0.01 -0.18,-0.01 h -1.18 v 1.12 c 0,0.98 0.86,1.38 1.48,1.38 0.3,0 0.66,-0.1 0.86,-0.33 -0.41,-0.02 -0.47,-0.3 -0.47,-0.46 0,-0.32 0.26,-0.45 0.45,-0.45 0.23,0 0.46,0.16 0.46,0.45 0,0.59 -0.55,1.01 -1.29,1.01 -0.93,0 -2.11,-0.51 -2.11,-1.59 v -1.13 h -0.79 v -0.31 h 0.79 v -3.22 c 0,-0.45 -0.11,-0.45 -0.78,-0.45 v -0.31 c 0.33,0.02 0.86,0.04 1.1,0.04 0.25,0 0.74,-0.02 1.11,-0.04 v 0.31 c -0.67,0 -0.78,0 -0.78,0.45 v 3.22 z"
         inkscape:connector-curvature="0"
         style="fill:#000000;stroke-width:0" /><path
         id="path5302"
         d="m 258.38,709.42 0.01,0.21 c 0.06,1.48 0.9,1.73 1.24,1.73 1.02,0 1.12,-1.34 1.12,-1.73 h -2.36 l -0.01,-0.21 h 2.78 c 0.22,0 0.25,0 0.25,0.21 0,0.98 -0.54,1.95 -1.78,1.95 -1.16,0 -2.08,-1.03 -2.08,-2.27 0,-1.33 1.05,-2.29 2.2,-2.29 1.21,0 1.66,1.1 1.66,1.29 0,0.1 -0.08,0.12 -0.13,0.12 -0.09,0 -0.11,-0.06 -0.13,-0.14 -0.35,-1.03 -1.24,-1.03 -1.34,-1.03 -0.5,0 -0.9,0.3 -1.13,0.67 -0.3,0.48 -0.3,1.13 -0.3,1.49 z"
         inkscape:connector-curvature="0"
         style="fill:#000000;stroke-width:0" /><path
         id="path5304"
         d="m 263.47,714.02 -1.44,-0.11 v -0.31 c 0.7,0 0.78,-0.07 0.78,-0.55 v -5.17 c 0,-0.45 -0.11,-0.45 -0.78,-0.45 v -0.31 c 0.33,0.02 0.86,0.04 1.11,0.04 0.25,0 0.74,-0.02 1.1,-0.04 v 0.31 c -0.66,0 -0.77,0 -0.77,0.45 z"
         inkscape:connector-curvature="0"
         style="fill:#000000;stroke-width:0" /><path
         id="path5306"
         d="m 268.26,707.67 v -0.65 l 1.46,0.1 v 0.31 c -0.69,0 -0.77,0.07 -0.77,0.56 v 6.03 l -1.44,-0.11 v -0.31 c 0.7,0 0.78,-0.07 0.78,-0.55 v -2.15 c -0.29,0.36 -0.72,0.62 -1.26,0.62 l 0.04,-0.22 c 0.35,0 0.77,-0.15 1.08,-0.6 0.11,-0.17 0.11,-0.19 0.11,-0.37 v 0 -2.03 c 0,-0.18 0,-0.2 -0.11,-0.37 -0.3,-0.48 -0.75,-0.7 -1.18,-0.7 -0.45,0 -0.81,0.26 -1.05,0.64 -0.25,0.41 -0.28,0.97 -0.28,1.38 0,0.37 0.01,0.96 0.31,1.41 0.2,0.31 0.58,0.64 1.12,0.64 l -0.04,0.22 c -1.17,0 -2.22,-0.98 -2.22,-2.26 0,-1.26 0.98,-2.24 2.11,-2.24 0.64,0 1.09,0.33 1.34,0.65 z"
         inkscape:connector-curvature="0"
         style="fill:#000000;stroke-width:0" /><path
         id="path5308"
         d="m 275.06,711.1 h 1.42 v 0.31 h -1.42 v 1.82 h -0.25 c -0.01,-0.81 -0.31,-1.87 -1.29,-1.91 v -0.22 h 0.85 v -2.74 c 0,-1.22 0.93,-1.34 1.28,-1.34 0.71,0 0.99,0.7 0.99,1.34 v 0.56 h -0.25 v -0.54 c 0,-0.74 -0.3,-1.12 -0.66,-1.12 -0.67,0 -0.67,0.91 -0.67,1.08 z"
         inkscape:connector-curvature="0"
         style="fill:#000000;stroke-width:0" /><path
         id="path5310"
         d="m 278.3,707.88 v -0.02 -0.02 -0.04 -0.03 -0.04 l -0.01,-0.03 v -0.03 l -0.01,-0.02 v -0.03 l -0.01,-0.02 -0.01,-0.02 -0.01,-0.02 -0.02,-0.02 -0.01,-0.01 -0.02,-0.02 -0.02,-0.01 -0.02,-0.01 -0.02,-0.01 -0.02,-0.01 -0.03,-0.01 h -0.03 l -0.03,-0.01 H 278 l -0.03,-0.01 h -0.02 -0.02 -0.02 -0.02 -0.02 -0.03 -0.02 l -0.02,-0.01 h -0.03 -0.02 -0.03 -0.02 -0.03 -0.03 -0.02 -0.03 -0.03 -0.04 v -0.31 c 0.35,0.02 0.86,0.04 1.13,0.04 0.26,0 0.78,-0.02 1.12,-0.04 v 0.31 c -0.67,0 -0.78,0 -0.78,0.45 v 1.83 c 0,1.03 0.71,1.59 1.35,1.59 0.63,0 0.74,-0.54 0.74,-1.1 v -2.32 c 0,-0.45 -0.11,-0.45 -0.78,-0.45 v -0.31 c 0.35,0.02 0.85,0.04 1.12,0.04 0.26,0 0.78,-0.02 1.12,-0.04 v 0.31 c -0.52,0 -0.77,0 -0.78,0.3 v 1.9 c 0,0.85 0,1.16 -0.31,1.52 -0.14,0.17 -0.47,0.37 -1.04,0.37 -0.84,0 -1.28,-0.6 -1.45,-0.98 v 3.48 l -1.44,-0.11 v -0.31 c 0.7,0 0.78,-0.07 0.78,-0.55 z"
         inkscape:connector-curvature="0"
         style="fill:#000000;stroke-width:0" /><path
         id="path5312"
         d="m 283.85,709.42 0.01,0.21 c 0.06,1.48 0.9,1.73 1.24,1.73 1.02,0 1.12,-1.34 1.12,-1.73 h -2.36 l -0.01,-0.21 h 2.78 c 0.22,0 0.25,0 0.25,0.21 0,0.98 -0.54,1.95 -1.78,1.95 -1.16,0 -2.08,-1.03 -2.08,-2.27 0,-1.33 1.05,-2.29 2.19,-2.29 1.22,0 1.67,1.1 1.67,1.29 0,0.1 -0.08,0.12 -0.13,0.12 -0.09,0 -0.11,-0.06 -0.13,-0.14 -0.35,-1.03 -1.25,-1.03 -1.35,-1.03 -0.5,0 -0.89,0.3 -1.12,0.67 -0.3,0.48 -0.3,1.13 -0.3,1.49 z"
         inkscape:connector-curvature="0"
         style="fill:#000000;stroke-width:0" /><path
         id="path5314"
         d="m 291.86,709.25 v 0.12 l -0.01,0.12 -0.01,0.11 -0.02,0.12 -0.03,0.11 -0.02,0.11 -0.04,0.11 -0.04,0.1 -0.04,0.1 -0.05,0.1 -0.06,0.1 -0.05,0.09 -0.07,0.1 -0.06,0.08 -0.07,0.09 -0.07,0.08 -0.08,0.08 -0.08,0.07 -0.08,0.07 -0.09,0.06 -0.09,0.07 -0.09,0.05 -0.1,0.05 -0.1,0.05 -0.09,0.04 -0.11,0.04 -0.1,0.03 -0.11,0.03 -0.1,0.02 -0.11,0.01 -0.12,0.01 -0.11,0.01 -0.01,-0.22 c 0.44,0 0.87,-0.22 1.13,-0.65 0.26,-0.43 0.26,-1 0.26,-1.38 0,-0.36 0,-0.89 -0.22,-1.33 -0.22,-0.45 -0.66,-0.74 -1.16,-0.74 v 0 c -0.43,0 -0.87,0.21 -1.14,0.67 -0.24,0.44 -0.24,1.04 -0.24,1.4 0,0.39 0,0.92 0.24,1.36 0.26,0.46 0.73,0.67 1.13,0.67 l 0.01,0.22 c -1.24,0 -2.21,-1.09 -2.21,-2.33 0,-1.28 1.03,-2.23 2.2,-2.23 1.21,0 2.21,0.97 2.21,2.23 z"
         inkscape:connector-curvature="0"
         style="fill:#000000;stroke-width:0" /><path
         id="path5316"
         d="m 293.82,710.42 v 1.1 l -1.39,-0.11 v -0.31 c 0.7,0 0.78,-0.07 0.78,-0.56 v -2.66 c 0,-0.45 -0.11,-0.45 -0.78,-0.45 v -0.31 c 0.39,0.02 0.86,0.04 1.14,0.04 0.39,0 0.86,0 1.26,-0.04 v 0.31 h -0.21 c -0.73,0 -0.76,0.11 -0.76,0.47 v 1.53 c 0,0.98 0.42,1.87 1.18,1.87 0.07,0 0.09,0 0.11,-0.01 -0.03,-0.01 -0.23,-0.13 -0.23,-0.39 0,-0.28 0.21,-0.43 0.43,-0.43 0.18,0 0.43,0.12 0.43,0.44 0,0.32 -0.31,0.61 -0.74,0.61 -0.73,0 -1.09,-0.67 -1.22,-1.1 z"
         inkscape:connector-curvature="0"
         style="fill:#000000;stroke-width:0" /><path
         id="path5318"
         d="m 300.19,710.46 0.01,0.03 0.02,0.03 0.01,0.03 0.01,0.02 0.02,0.03 0.01,0.02 0.01,0.03 0.02,0.02 0.03,0.04 0.03,0.04 0.03,0.04 0.03,0.04 0.04,0.03 0.03,0.03 0.03,0.02 0.04,0.03 0.03,0.02 0.03,0.02 0.04,0.02 0.03,0.02 0.04,0.01 0.03,0.01 0.03,0.01 0.03,0.01 0.03,0.01 0.03,0.01 h 0.03 l 0.03,0.01 h 0.03 0.03 l 0.02,0.01 h 0.02 0.02 0.02 0.02 0.02 v 0.31 c -0.23,-0.02 -0.52,-0.03 -0.75,-0.03 -0.18,0 -0.65,0.02 -0.87,0.03 v -0.31 c 0.31,-0.01 0.47,-0.18 0.47,-0.43 0,-0.1 -0.01,-0.12 -0.06,-0.24 l -1.01,-2.44 -1.1,2.67 c -0.04,0.1 -0.06,0.14 -0.06,0.18 0,0.26 0.37,0.26 0.56,0.26 v 0.31 c -0.26,-0.01 -0.92,-0.03 -1.09,-0.03 -0.27,0 -0.67,0.01 -0.97,0.03 v -0.31 c 0.48,0 0.67,0 0.81,-0.35 l 1.5,-3.63 c -0.06,-0.12 -0.19,-0.45 -0.25,-0.58 -0.22,-0.55 -0.5,-1.23 -1.14,-1.23 -0.05,0 -0.28,0 -0.47,0.18 0.31,0.04 0.39,0.25 0.39,0.41 0,0.26 -0.19,0.42 -0.42,0.42 -0.2,0 -0.42,-0.13 -0.42,-0.43 0,-0.44 0.42,-0.8 0.92,-0.8 0.63,0 1.04,0.57 1.28,1.13 z"
         inkscape:connector-curvature="0"
         style="fill:#000000;stroke-width:0" /><path
         id="path5320"
         d="m 310.8,710.46 0.02,0.05 0.02,0.04 0.01,0.04 0.02,0.04 0.02,0.04 0.02,0.04 0.03,0.03 0.02,0.03 0.02,0.03 0.02,0.03 0.03,0.02 0.02,0.03 0.03,0.02 0.02,0.02 0.03,0.02 0.03,0.02 0.02,0.02 0.03,0.02 0.03,0.01 0.03,0.01 0.03,0.02 0.03,0.01 0.03,0.01 0.03,0.01 h 0.03 l 0.03,0.01 h 0.03 l 0.03,0.01 h 0.03 l 0.03,0.01 h 0.04 0.03 v 0.31 c -0.22,-0.02 -0.51,-0.03 -0.73,-0.03 -0.29,0 -0.74,0.02 -0.93,0.03 v -0.31 c 0.36,-0.01 0.58,-0.19 0.58,-0.48 0,-0.06 0,-0.08 -0.05,-0.21 l -0.91,-2.54 -0.98,2.77 c -0.04,0.12 -0.05,0.14 -0.05,0.19 0,0.27 0.39,0.27 0.58,0.27 v 0.31 c -0.28,-0.01 -0.79,-0.03 -1.03,-0.03 -0.3,0 -0.59,0.01 -0.89,0.03 v -0.31 c 0.37,0 0.53,-0.02 0.63,-0.15 0.05,-0.06 0.16,-0.36 0.23,-0.55 l -0.86,-2.4 -0.95,2.65 c -0.05,0.12 -0.05,0.14 -0.05,0.18 0,0.27 0.39,0.27 0.59,0.27 v 0.31 c -0.3,-0.01 -0.86,-0.03 -1.09,-0.03 -0.03,0 -0.56,0.01 -0.92,0.03 v -0.31 c 0.5,0 0.62,-0.03 0.74,-0.35 l 1.25,-3.52 c 0.05,-0.14 0.08,-0.21 0.21,-0.21 0.13,0 0.15,0.06 0.2,0.19 l 1.01,2.82 1.01,-2.83 c 0.04,-0.11 0.07,-0.18 0.2,-0.18 0.13,0 0.16,0.08 0.2,0.18 z"
         inkscape:connector-curvature="0"
         style="fill:#000000;stroke-width:0" /><path
         id="path5322"
         d="m 313.59,711.52 -1.4,-0.11 v -0.31 c 0.65,0 0.74,-0.06 0.74,-0.55 v -2.67 c 0,-0.45 -0.11,-0.45 -0.78,-0.45 v -0.31 c 0.32,0.02 0.86,0.04 1.1,0.04 0.35,0 0.7,-0.02 1.04,-0.04 v 0.31 c -0.66,0 -0.7,0.05 -0.7,0.44 z"
         inkscape:connector-curvature="0"
         style="fill:#000000;stroke-width:0" /><path
         id="path5324"
         d="m 313.63,713.24 v 0.03 0.03 l -0.01,0.03 v 0.03 l -0.01,0.02 -0.01,0.03 -0.01,0.03 -0.01,0.02 -0.01,0.02 -0.01,0.03 -0.01,0.02 -0.02,0.02 -0.01,0.02 -0.02,0.02 -0.01,0.02 -0.02,0.02 -0.02,0.01 -0.02,0.02 -0.02,0.01 -0.02,0.02 -0.02,0.01 -0.02,0.01 -0.03,0.01 -0.02,0.01 -0.02,0.01 -0.03,0.01 -0.02,0.01 h -0.03 l -0.02,0.01 h -0.03 -0.02 -0.03 c -0.31,0 -0.53,-0.27 -0.53,-0.53 0,-0.26 0.22,-0.52 0.53,-0.52 0.28,0 0.53,0.21 0.53,0.52 z"
         inkscape:connector-curvature="0"
         style="fill:#000000;stroke-width:0" /><path
         id="path5326"
         d="m 316.32,711.1 h 1.42 v 0.31 h -1.42 v 1.82 h -0.25 c -0.01,-0.81 -0.31,-1.87 -1.29,-1.91 v -0.22 h 0.85 v -2.74 c 0,-1.22 0.92,-1.34 1.28,-1.34 0.71,0 0.99,0.7 0.99,1.34 v 0.56 h -0.25 v -0.54 c 0,-0.74 -0.3,-1.12 -0.67,-1.12 -0.66,0 -0.66,0.91 -0.66,1.08 z"
         inkscape:connector-curvature="0"
         style="fill:#000000;stroke-width:0" /><path
         id="path5328"
         d="m 319.56,707.88 v -0.02 -0.02 -0.04 -0.03 -0.04 l -0.01,-0.03 v -0.03 l -0.01,-0.02 -0.01,-0.03 v -0.02 l -0.01,-0.02 -0.02,-0.02 -0.01,-0.02 -0.01,-0.01 -0.02,-0.02 -0.02,-0.01 -0.02,-0.01 -0.02,-0.01 -0.02,-0.01 -0.03,-0.01 h -0.03 l -0.03,-0.01 h -0.03 l -0.03,-0.01 h -0.02 -0.02 -0.02 -0.02 -0.02 -0.03 -0.02 l -0.02,-0.01 h -0.03 -0.02 -0.03 -0.02 -0.03 -0.03 -0.03 -0.02 -0.04 -0.03 v -0.31 c 0.35,0.02 0.86,0.04 1.13,0.04 0.26,0 0.78,-0.02 1.12,-0.04 v 0.31 c -0.67,0 -0.78,0 -0.78,0.45 v 1.83 c 0,1.03 0.71,1.59 1.35,1.59 0.63,0 0.73,-0.54 0.73,-1.1 v -2.32 c 0,-0.45 -0.1,-0.45 -0.77,-0.45 v -0.31 c 0.34,0.02 0.85,0.04 1.12,0.04 0.26,0 0.78,-0.02 1.12,-0.04 v 0.31 c -0.52,0 -0.77,0 -0.78,0.3 v 1.9 c 0,0.85 0,1.16 -0.31,1.52 -0.14,0.17 -0.47,0.37 -1.04,0.37 -0.84,0 -1.28,-0.6 -1.45,-0.98 v 3.48 l -1.44,-0.11 v -0.31 c 0.7,0 0.78,-0.07 0.78,-0.55 z"
         inkscape:connector-curvature="0"
         style="fill:#000000;stroke-width:0" /><path
         id="path5330"
         d="m 332.78,716.24 -0.16,0.15 c 0,-0.01 -0.38,-0.48 -0.82,-0.48 -0.23,0 -0.48,0.15 -0.65,0.25 -0.27,0.16 -0.45,0.23 -0.62,0.23 -0.38,0 -0.57,-0.22 -1.07,-0.78 l 0.15,-0.14 c 0,0.01 0.38,0.47 0.82,0.47 0.23,0 0.48,-0.15 0.65,-0.24 0.27,-0.16 0.45,-0.23 0.62,-0.23 0.38,0 0.57,0.21 1.08,0.77 z"
         inkscape:connector-curvature="0"
         style="fill:#000000;stroke-width:0" /><path
         id="path5332"
         d="m 331.68,713.78 v 0 0 0 0.01 0 0 0 0 0.01 0 0 0.01 0 0.01 l 0.01,0.01 v 0 0.01 0 0.01 l 0.01,0.02 v 0 0.01 0 0.01 0 0.01 0 l 0.01,0.01 v 0 0 0 0 0 0.01 0 0 0 0 0 c 0,0.01 0,0.1 -0.12,0.1 -0.1,0 -0.11,-0.03 -0.15,-0.2 l -0.58,-2.29 c -1.59,-0.05 -3.05,-1.37 -3.05,-2.73 0,-0.94 0.7,-1.72 1.91,-1.79 l 0.05,0.21 c -0.6,0.03 -1.31,0.38 -1.31,1.37 0,1.2 0.85,2.59 2.34,2.72 l -1.03,-4.09 -0.05,-0.21 c -0.08,-0.31 -0.15,-0.63 -0.23,-0.94 -0.12,-0.47 -0.22,-0.84 -0.22,-0.87 0,-0.1 0.07,-0.11 0.12,-0.11 0.05,0 0.07,0.01 0.1,0.04 0.02,0.02 0.08,0.26 0.11,0.4 l 0.38,1.48 0.05,0.21 1.03,4.09 c 0.76,-0.04 1.33,-0.5 1.33,-1.37 0,-1.18 -0.86,-2.6 -2.36,-2.72 l -0.05,-0.21 c 1.61,0.04 3.05,1.39 3.05,2.72 0,0.78 -0.52,1.7 -1.91,1.8 z"
         inkscape:connector-curvature="0"
         style="fill:#000000;stroke-width:0" /><path
         id="path5334"
         d="m 341.49,709.41 h 0.03 0.03 0.03 0.02 0.01 0.02 l 0.01,0.01 h 0.02 0.01 0.02 l 0.01,0.01 h 0.01 0.02 l 0.01,0.01 0.01,0.01 h 0.01 l 0.01,0.01 0.01,0.01 h 0.01 l 0.01,0.01 0.01,0.01 v 0.01 0 l 0.01,0.01 v 0.01 0 l 0.01,0.01 v 0.01 0 0.01 0.01 0.01 h 0.01 v 0.01 0.01 0.01 0.01 c 0,0.2 -0.18,0.2 -0.35,0.2 h -4.23 c 0.12,1.33 1.27,2.28 2.67,2.28 h 1.56 c 0.17,0 0.35,0 0.35,0.2 0,0.2 -0.18,0.2 -0.35,0.2 h -1.58 c -1.7,0 -3.06,-1.29 -3.06,-2.88 0,-1.59 1.36,-2.88 3.06,-2.88 h 1.58 c 0.17,0 0.35,0 0.35,0.2 0,0.19 -0.18,0.19 -0.35,0.19 h -1.56 c -1.4,0 -2.55,0.96 -2.67,2.29 z"
         inkscape:connector-curvature="0"
         style="fill:#000000;stroke-width:0" /><path
         id="path5336"
         d="m 351.86,714.03 v 0 0.01 0 0 0.01 0 0 0.01 0 0.01 0 h -0.01 v 0.01 0 0.01 h -0.01 v 0 0.01 h -0.01 v 0 0.01 h -0.01 v 0 l -0.01,0.01 h -0.01 v 0 0 0 h -0.01 v 0 0 l -0.01,0.01 v 0 h -0.01 v 0 0 h -0.01 v 0 0 c -0.06,0 -0.06,-0.01 -0.18,-0.15 l -0.48,-0.57 c -0.26,0.47 -0.78,0.72 -1.43,0.72 -1.27,0 -2.46,-1.14 -2.46,-2.35 0,-0.8 0.53,-1.26 1.03,-1.41 l 1.07,-0.28 c 0.37,-0.08 0.92,-0.23 0.92,-1.05 0,-0.89 -0.82,-1.83 -1.8,-1.83 -0.63,0 -1.74,0.22 -1.74,1.45 0,0.24 0.05,0.48 0.06,0.54 0.01,0.04 0.02,0.05 0.02,0.07 0,0.1 -0.07,0.11 -0.12,0.11 -0.05,0 -0.07,-0.01 -0.1,-0.04 -0.04,-0.04 -0.6,-2.3 -0.6,-2.33 0,-0.06 0.05,-0.1 0.11,-0.1 0.05,0 0.06,0.01 0.18,0.14 l 0.49,0.57 c 0.43,-0.57 1.11,-0.71 1.69,-0.71 1.35,0 2.53,1.32 2.53,2.55 0,0.69 -0.34,1.02 -0.49,1.16 -0.23,0.23 -0.38,0.27 -1.27,0.5 -0.22,0.06 -0.58,0.16 -0.67,0.18 -0.26,0.09 -0.6,0.37 -0.6,0.9 0,0.81 0.79,1.65 1.74,1.65 0.83,0 1.44,-0.43 1.44,-1.54 0,-0.32 -0.04,-0.5 -0.04,-0.56 0,-0.01 0,-0.09 0.12,-0.09 0.1,0 0.11,0.02 0.15,0.19 z"
         inkscape:connector-curvature="0"
         style="fill:#000000;stroke-width:0" /><path
         id="path5338"
         d="m 354.46,715.16 v 0.01 0.01 0.01 0.01 0 0.01 0.01 0.01 0 0.01 0 0.01 l -0.01,0.01 v 0 0.01 0 0.01 0 0.01 0.01 l -0.01,0.01 v 0 0.01 l -0.01,0.01 v 0 h -0.01 l -0.01,0.01 v 0 h -0.01 l -0.01,0.01 h -0.01 -0.01 v 0 h -0.01 v 0 h -0.01 v 0 l -0.01,0.01 h -0.01 v 0 h -0.01 -0.01 v 0 h -0.01 -0.01 -0.01 v 0 h -0.01 -0.01 -0.01 c -0.45,-0.44 -1.08,-0.45 -1.37,-0.45 v -0.25 c 0.17,0 0.63,0 1.01,0.2 v -3.55 c 0,-0.23 0,-0.32 -0.7,-0.32 h -0.26 v -0.25 c 0.12,0.01 0.98,0.03 1.24,0.03 0.22,0 1.1,-0.02 1.25,-0.03 v 0.25 h -0.26 c -0.7,0 -0.7,0.09 -0.7,0.32 z"
         inkscape:connector-curvature="0"
         style="fill:#000000;stroke-width:0" /><path
         id="path5340"
         d="m 360.96,714.2 h 0.01 v 0.01 0.01 0 0.01 h 0.01 v 0.01 0.01 l 0.01,0.01 v 0.01 0.01 l 0.01,0.01 v 0 0.01 0.01 0.01 h 0.01 v 0.01 0 0.01 0 0.01 0 0 0.01 0 0 0.01 0 0 0 0 0 0.01 0 c 0,0.11 -0.09,0.2 -0.2,0.2 -0.07,0 -0.14,-0.03 -0.17,-0.09 l -3.46,-9.47 c -0.05,-0.13 -0.05,-0.17 -0.05,-0.18 0,-0.11 0.09,-0.2 0.2,-0.2 0.13,0 0.16,0.07 0.22,0.24 z"
         inkscape:connector-curvature="0"
         style="fill:#000000;stroke-width:0" /><path
         id="path5342"
         d="m 367.85,713.45 v 0.01 h 0.01 v 0.01 0 l 0.01,0.01 0.01,0.01 v 0.01 l 0.01,0.01 v 0.01 l 0.01,0.01 v 0 0.01 l 0.01,0.01 v 0 0.01 0 l 0.01,0.01 v 0.01 0 0.01 0 0.01 l 0.01,0.01 v 0 0.01 0 0.01 0.01 0.01 0 0.01 0.01 0.01 0.01 c 0,0.25 -0.11,0.25 -0.32,0.25 h -5.13 l -0.12,-2.39 h 0.47 c 0.08,1.32 0.75,1.92 2.15,1.92 h 1.29 l -3.98,-5.83 c -0.09,-0.12 -0.09,-0.15 -0.09,-0.26 0,-0.26 0.1,-0.26 0.32,-0.26 h 5.3 l 0.18,2.83 h -0.47 c -0.08,-1.11 -0.22,-2.32 -2.26,-2.32 h -1.4 z"
         inkscape:connector-curvature="0"
         style="fill:#000000;stroke-width:0" /><path
         id="path5344"
         d="m 372.1,706.9 h -0.24 c -0.02,-0.16 -0.09,-0.57 -0.18,-0.64 -0.06,-0.04 -0.6,-0.04 -0.69,-0.04 h -1.29 c 0.73,0.65 0.98,0.84 1.4,1.17 0.52,0.41 1,0.84 1,1.5 0,0.84 -0.74,1.36 -1.64,1.36 -0.86,0 -1.45,-0.61 -1.45,-1.25 0,-0.35 0.3,-0.39 0.37,-0.39 0.17,0 0.37,0.12 0.37,0.37 0,0.13 -0.05,0.37 -0.41,0.37 0.21,0.49 0.69,0.65 1.02,0.65 0.7,0 1.06,-0.54 1.06,-1.11 0,-0.6 -0.43,-1.08 -0.66,-1.33 l -1.68,-1.66 c -0.07,-0.06 -0.07,-0.07 -0.07,-0.27 h 2.88 z"
         inkscape:connector-curvature="0"
         style="fill:#000000;stroke-width:0" /><path
         id="path5346"
         d="m 382.66,710.37 h 0.02 0.03 0.03 l 0.02,0.01 h 0.01 0.02 0.01 0.01 0.02 l 0.01,0.01 h 0.02 0.01 l 0.01,0.01 h 0.01 l 0.02,0.01 h 0.01 l 0.01,0.01 0.01,0.01 0.01,0.01 0.01,0.01 v 0.01 h 0.01 v 0.01 0 l 0.01,0.01 v 0.01 0 0.01 l 0.01,0.01 v 0 0.01 0.01 0.01 0.01 0 0.01 0.01 c 0,0.2 -0.19,0.2 -0.32,0.2 h -5.98 c -0.14,0 -0.33,0 -0.33,-0.2 0,-0.2 0.19,-0.2 0.34,-0.2 z"
         inkscape:connector-curvature="0"
         style="fill:#000000;stroke-width:0" /><path
         id="path5348"
         d="m 382.67,708.45 h 0.01 0.01 0.03 0.03 0.01 0.02 0.01 0.01 0.02 l 0.01,0.01 h 0.01 0.02 l 0.01,0.01 h 0.01 l 0.01,0.01 h 0.02 l 0.01,0.01 h 0.01 l 0.01,0.01 0.01,0.01 0.01,0.01 v 0 0.01 l 0.01,0.01 v 0 0.01 h 0.01 v 0.01 0.01 0 l 0.01,0.01 v 0.01 0 0.01 0.01 0.01 0.01 0.01 0.01 c 0,0.19 -0.19,0.19 -0.33,0.19 h -5.96 c -0.15,0 -0.34,0 -0.34,-0.19 0,-0.2 0.19,-0.2 0.33,-0.2 z"
         inkscape:connector-curvature="0"
         style="fill:#000000;stroke-width:0" /><path
         id="path5350"
         d="m 390.05,713.15 0.01,0.03 0.01,0.03 0.01,0.03 v 0.03 l 0.01,0.02 0.01,0.03 0.01,0.02 0.01,0.03 0.01,0.02 0.01,0.02 0.02,0.02 0.01,0.02 0.02,0.01 0.01,0.02 0.02,0.01 0.02,0.02 0.03,0.01 0.02,0.01 0.03,0.01 0.03,0.01 0.03,0.01 h 0.02 l 0.02,0.01 h 0.02 0.01 l 0.03,0.01 h 0.02 0.02 l 0.02,0.01 h 0.02 0.03 0.02 0.03 l 0.03,0.01 h 0.03 0.03 0.03 0.03 0.03 0.03 0.04 0.03 0.04 c 0.24,0 0.32,0 0.32,0.19 0,0.12 -0.11,0.12 -0.15,0.12 -0.29,0 -1.03,-0.03 -1.32,-0.03 -0.3,0 -1.03,0.03 -1.33,0.03 -0.06,0 -0.19,0 -0.19,-0.2 0,-0.11 0.09,-0.11 0.28,-0.11 0.41,0 0.68,0 0.68,-0.19 0,-0.05 0,-0.07 -0.02,-0.16 l -1.34,-5.35 c -0.09,-0.37 -0.12,-0.47 -0.91,-0.47 -0.23,0 -0.32,0 -0.32,-0.2 0,-0.11 0.12,-0.11 0.15,-0.11 0.29,0 1.02,0.04 1.31,0.04 0.3,0 1.03,-0.04 1.33,-0.04 0.08,0 0.2,0 0.2,0.19 0,0.12 -0.08,0.12 -0.3,0.12 -0.18,0 -0.23,0 -0.43,0.02 -0.21,0.02 -0.25,0.06 -0.25,0.17 0,0.08 0.02,0.16 0.04,0.23 z"
         inkscape:connector-curvature="0"
         style="fill:#000000;stroke-width:0" /></g>  </g>
</svg>
