<?xml version="1.0" encoding="UTF-8" standalone="no"?>
<!-- Created with Inkscape (http://www.inkscape.org/) -->

<svg
   xmlns:dc="http://purl.org/dc/elements/1.1/"
   xmlns:cc="http://creativecommons.org/ns#"
   xmlns:rdf="http://www.w3.org/1999/02/22-rdf-syntax-ns#"
   xmlns:svg="http://www.w3.org/2000/svg"
   xmlns="http://www.w3.org/2000/svg"
   xmlns:sodipodi="http://sodipodi.sourceforge.net/DTD/sodipodi-0.dtd"
   xmlns:inkscape="http://www.inkscape.org/namespaces/inkscape"
   width="3in"
   height="2in"
   viewBox="0 0 76.200001 50.800001"
   version="1.1"
   id="svg8"
   inkscape:version="0.92.2 (5c3e80d, 2017-08-06)"
   sodipodi:docname="phase-space.svg">
  <defs
     id="defs2" />
  <sodipodi:namedview
     id="base"
     pagecolor="#ffffff"
     bordercolor="#666666"
     borderopacity="1.0"
     inkscape:pageopacity="0.0"
     inkscape:pageshadow="2"
     inkscape:zoom="2"
     inkscape:cx="165.12527"
     inkscape:cy="148.57143"
     inkscape:document-units="mm"
     inkscape:current-layer="layer1"
     showgrid="true"
     units="in"
     inkscape:window-width="1920"
     inkscape:window-height="1029"
     inkscape:window-x="0"
     inkscape:window-y="25"
     inkscape:window-maximized="1">
    <inkscape:grid
       type="xygrid"
       id="grid4504" />
  </sodipodi:namedview>
  <metadata
     id="metadata5">
    <rdf:RDF>
      <cc:Work
         rdf:about="">
        <dc:format>image/svg+xml</dc:format>
        <dc:type
           rdf:resource="http://purl.org/dc/dcmitype/StillImage" />
        <dc:title></dc:title>
      </cc:Work>
    </rdf:RDF>
  </metadata>
  <g
     inkscape:label="Layer 1"
     inkscape:groupmode="layer"
     id="layer1"
     transform="translate(0,-246.19998)">
    <path
       style="fill:#000000;fill-opacity:0;stroke:#000000;stroke-width:1.46499991;stroke-miterlimit:4;stroke-dasharray:none;stroke-opacity:1"
       id="path4797"
       d="m 32.069119,248.73886 c -0.668234,0.0158 -1.336903,4.6e-4 -2.005222,-0.006 -0.688184,-0.007 -1.376399,-0.008 -2.06461,-0.009 -0.758494,-0.014 -1.512591,0.0724 -2.257635,0.20764 -0.87109,0.16128 -1.68761,0.50005 -2.466447,0.91235 -0.987185,0.52641 -1.817428,1.2806 -2.623173,2.04527 -0.935227,0.92398 -1.90748,1.80629 -2.916189,2.64904 -1.00169,0.80026 -1.998269,1.60667 -2.999539,2.40745 -0.987851,0.7412 -1.906395,1.56333 -2.802024,2.41185 -0.903313,0.87639 -1.718887,1.83617 -2.4961854,2.82434 -0.7745362,1.02721 -1.5456001,2.05769 -2.2897185,3.10722 -0.7065171,0.98072 -1.3545385,2.00018 -1.9391222,3.05768 -0.5228156,0.9449 -0.8685048,1.97076 -1.1643579,3.00517 -0.3123211,1.09668 -0.5035132,2.21992 -0.6769666,3.34504 -0.1940415,1.20926 -0.3408717,2.42569 -0.4748374,3.6429 -0.1458537,1.2032 -0.1439839,2.41367 -0.044656,3.61957 0.097282,1.14311 0.4439208,2.23592 0.8935865,3.2843 0.4599324,0.99725 1.1358597,1.85637 1.8538516,2.6771 0.7225826,0.80557 1.5245101,1.53471 2.3272262,2.25865 0.7949317,0.70975 1.6363278,1.36384 2.5348497,1.93646 0.969601,0.59159 1.989088,1.09397 3.03997,1.52258 1.006978,0.4453 2.073279,0.71563 3.138319,0.97886 1.062927,0.27388 2.147579,0.44738 3.234042,0.59557 1.078544,0.11693 2.160256,0.20648 3.243587,0.26481 1.142896,0.0523 2.287287,0.0544 3.431135,0.0582 1.26869,0.0167 2.534628,-0.0822 3.800234,-0.15534 1.286491,-0.11349 2.576938,-0.15935 3.866017,-0.22931 1.247103,-0.0619 2.493825,-0.13004 3.740933,-0.19211 1.311723,-0.0475 2.623447,-0.099 3.93372,-0.1778 1.275434,-0.0647 2.548339,-0.16257 3.820421,-0.27374 1.128329,-0.10885 2.248485,-0.29193 3.364,-0.49097 1.087663,-0.20493 2.168247,-0.44511 3.243562,-0.7067 0.977249,-0.22035 1.930209,-0.52348 2.875923,-0.8505 0.825843,-0.2652 1.628544,-0.58726 2.427681,-0.92249 0.679932,-0.30342 1.32723,-0.67173 1.97634,-1.03465 0.504407,-0.32269 0.999821,-0.65948 1.493345,-0.99854 0.419129,-0.2593 0.793687,-0.58007 1.165593,-0.90149 0.38622,-0.3421 0.752716,-0.70553 1.119203,-1.06843 0.370906,-0.41181 0.768686,-0.7977 1.151102,-1.19842 0.488193,-0.48943 0.903954,-1.04181 1.312505,-1.59754 0.420315,-0.61692 0.875162,-1.21018 1.279282,-1.83792 0.365985,-0.56388 0.723622,-1.13423 1.05673,-1.71816 0.300736,-0.54963 0.55355,-1.12375 0.767728,-1.71206 0.226843,-0.58554 0.367064,-1.20035 0.470283,-1.81843 0.0852,-0.61417 0.09397,-1.23453 0.149133,-1.85158 0.05827,-0.61883 0.01087,-1.24185 -0.008,-1.86175 -0.034,-0.77837 -0.0034,-1.5565 -0.0058,-2.33502 -0.0076,-0.71722 -0.01574,-1.43443 -0.01987,-2.15168 -0.04022,-0.74764 -0.08674,-1.4947 -0.112178,-2.24307 -0.0145,-0.75296 -0.07927,-1.50384 -0.157993,-2.25244 -0.07518,-0.69528 -0.218938,-1.37886 -0.386014,-2.05704 -0.157261,-0.67363 -0.487937,-1.28448 -0.823452,-1.88302 -0.404556,-0.6463 -0.859044,-1.2622 -1.32955,-1.86199 -0.456176,-0.57339 -1.032828,-1.02396 -1.593427,-1.48793 -0.549878,-0.43152 -1.084794,-0.88148 -1.635977,-1.31134 -0.513741,-0.40205 -1.033081,-0.80247 -1.59105,-1.14161 -0.524063,-0.33219 -1.067396,-0.6296 -1.624518,-0.90189 -0.53874,-0.27974 -1.101434,-0.50457 -1.657842,-0.74489 -0.502793,-0.22277 -1.012921,-0.43315 -1.532941,-0.6126 -0.55649,-0.18789 -1.110189,-0.38591 -1.672822,-0.55475 -0.59798,-0.19664 -1.213914,-0.31899 -1.831851,-0.43136 -0.695717,-0.10403 -1.38026,-0.26783 -2.070216,-0.40255 -0.707941,-0.16095 -1.424329,-0.27532 -2.140395,-0.39202 -0.708459,-0.10009 -1.410872,-0.2375 -2.11841,-0.3434 -0.621128,-0.10251 -1.242129,-0.20708 -1.860706,-0.32405 -0.530961,-0.0955 -1.05872,-0.21065 -1.579102,-0.35313 -0.468435,-0.11093 -0.936821,-0.22129 -1.403599,-0.33948 -0.39574,-0.10316 -0.797928,-0.17699 -1.196144,-0.26841 -0.36699,-0.0934 -0.742511,-0.12815 -1.119473,-0.14641 -0.454724,-0.0164 -0.90986,-0.0144 -1.364809,-0.0144 -0.478229,6.3e-4 -0.956458,0.001 -1.434687,0.001 -0.474713,0.0168 -0.945147,-0.0522 -1.416373,-0.0961 -0.285924,-0.005 -0.56416,-0.0657 -0.844248,-0.11639 -0.131641,-0.0114 -0.06927,-0.0434 -0.20315,0.0284 0,0 -0.130865,-0.0138 -0.130865,-0.0138 v 0 c 0.13734,-0.084 0.310049,-0.0594 0.463727,-0.0328 0.27976,0.0509 0.557956,0.10984 0.8435,0.11536 0.386058,0.0364 0.771712,0.0979 1.159615,0.095 0.563484,-3.5e-4 1.126969,-0.001 1.690452,-0.001 0.455121,4e-5 0.910448,-0.002 1.36533,0.015 0.377248,0.0189 0.752861,0.055 1.120074,0.14863 0.398436,0.0902 0.799862,0.1664 1.195689,0.26879 0.46668,0.11835 0.935257,0.22779 1.403387,0.33974 0.520351,0.14165 1.047782,0.25694 1.578554,0.35216 0.618474,0.11633 1.239049,0.22192 1.860085,0.32365 0.707376,0.10649 1.409827,0.24329 2.118182,0.3436 0.716153,0.11645 1.432364,0.23204 2.14045,0.39242 0.689944,0.13517 1.374743,0.29802 2.070481,0.40234 0.618263,0.11234 1.234157,0.23627 1.832457,0.43275 0.56247,0.16972 1.116486,0.36694 1.672947,0.55526 0.519935,0.18037 1.03038,0.39027 1.533226,0.61353 0.556527,0.24 1.118592,0.46621 1.657464,0.74555 0.557199,0.27271 1.100412,0.57086 1.624745,0.90306 0.557332,0.34067 1.077177,0.74054 1.590871,1.14312 0.550894,0.43025 1.086136,0.87984 1.635731,1.31173 0.561149,0.46435 1.137663,0.91616 1.593487,1.49069 0.470517,0.60051 0.925489,1.2168 1.329799,1.86396 0.336073,0.59957 0.666686,1.21163 0.824021,1.88646 0.166806,0.67881 0.310448,1.36295 0.385553,2.0588 0.07868,0.7489 0.143306,1.5001 0.158012,2.25335 0.02537,0.74849 0.07182,1.49568 0.112318,2.24343 0.0042,0.71726 0.01228,1.43448 0.01958,2.15171 0.0024,0.7784 -0.02861,1.55643 0.0063,2.33467 0.01921,0.62041 0.06679,1.24392 0.0085,1.8633 -0.05542,0.61736 -0.06437,1.23803 -0.149378,1.85255 -0.103037,0.61887 -0.243457,1.23448 -0.470353,1.8208 -0.213995,0.58909 -0.467148,1.16382 -0.767821,1.71423 -0.333036,0.58428 -0.691213,1.15464 -1.057203,1.71883 -0.403807,0.62831 -0.859642,1.22123 -1.279742,1.83869 -0.408197,0.55627 -0.823481,1.10934 -1.311519,1.59925 -0.382026,0.40115 -0.78047,0.78647 -1.150866,1.19881 -0.366577,0.363 -0.732922,0.72676 -1.118891,1.06934 -0.37211,0.32177 -0.746471,0.64357 -1.166061,0.90288 -0.493945,0.33934 -0.990177,0.67577 -1.494411,0.99963 -0.649584,0.36301 -1.297062,0.73185 -1.977155,1.03601 -0.799473,0.33531 -1.602126,0.65836 -2.42847,0.92323 -0.946052,0.32724 -1.899124,0.63135 -2.876831,0.85158 -1.075359,0.26176 -2.155983,0.50212 -3.243646,0.70748 -1.115798,0.19944 -2.236316,0.38246 -3.364912,0.49198 -1.272299,0.11109 -2.545371,0.20955 -3.821036,0.27398 -1.310185,0.0793 -2.621862,0.13062 -3.933523,0.17797 -1.247056,0.0619 -2.493696,0.13048 -3.740753,0.19208 -1.289217,0.0703 -2.579897,0.1151 -3.866508,0.22919 -1.348091,0.0778 -2.696291,0.1805 -4.047838,0.15612 -1.144133,-0.004 -2.288817,-0.006 -3.431982,-0.0587 -1.083297,-0.0587 -2.16504,-0.14816 -3.243493,-0.26587 -1.08659,-0.14872 -2.171344,-0.32257 -3.234371,-0.59689 -1.065219,-0.26355 -2.131317,-0.53517 -3.138439,-0.98069 -1.05089,-0.4296 -2.070497,-0.93263 -3.040167,-1.52484 -0.8985829,-0.57349 -1.740337,-1.22803 -2.5353049,-1.93853 -0.8029032,-0.72426 -1.6047465,-1.454 -2.3272112,-2.26015 -0.7183874,-0.82188 -1.3943229,-1.68239 -1.8538753,-2.68107 -0.4495377,-1.04984 -0.7964781,-2.14389 -0.8934296,-3.28837 -0.099065,-1.20671 -0.1010342,-2.41799 0.045083,-3.62198 0.1339072,-1.21736 0.2806406,-2.43396 0.4742291,-3.64344 0.1734897,-1.12565 0.364685,-2.24939 0.6769732,-3.34663 0.295496,-1.03543 0.6409209,-2.06241 1.164358,-3.00803 0.5848257,-1.05802 1.233502,-2.07772 1.9401726,-3.05902 0.7440964,-1.04972 1.5152484,-2.08031 2.2895676,-3.10786 0.7772895,-0.9888 1.5930755,-1.949 2.4963105,-2.82616 0.895601,-0.84881 1.813662,-1.67182 2.801851,-2.41293 1.001471,-0.8007 1.998358,-1.6069 3.000226,-2.40712 1.008665,-0.84229 1.980939,-1.72409 2.915503,-2.64829 0.805426,-0.7655 1.635283,-1.52087 2.621968,-2.04883 0.778523,-0.41386 1.595114,-0.75377 2.466408,-0.9163 0.828958,-0.15162 1.666634,-0.23321 2.510726,-0.21 0.688335,8.5e-4 1.376675,0.002 2.064983,0.009 0.58288,0.006 1.165995,0.0199 1.748827,0.007 0,0 0.129326,0.019 0.129326,0.019 z"
       inkscape:connector-curvature="0" />
    <path
       style="fill:#000000;fill-opacity:0;stroke:#000000;stroke-width:1.46499991;stroke-miterlimit:4;stroke-dasharray:none;stroke-opacity:1"
       id="path4799"
       d="m 65.842496,248.39314 c 1.070043,-0.29678 2.15002,-0.5519 3.236214,-0.78181 1.342919,-0.26558 2.685385,-0.53075 4.017467,-0.84683 0,0 0.125413,0.0169 0.125413,0.0169 v 0 c -1.333048,0.31551 -2.676197,0.58136 -4.019984,0.84679 -1.084128,0.22948 -2.162035,0.48411 -3.2297,0.78161 0,0 -0.12941,-0.0166 -0.12941,-0.0166 z"
       inkscape:connector-curvature="0" />
    <path
       style="fill:#000000;fill-opacity:0;stroke:#000000;stroke-width:1.46499991;stroke-miterlimit:4;stroke-dasharray:none;stroke-opacity:1"
       id="path4801"
       d="m 69.666595,248.06147 c 0.102756,0.78399 0.246798,1.56103 0.400918,2.3363 0.22655,1.15488 0.354084,2.32475 0.480039,3.49382 0.112532,0.56053 0.08689,1.4736 0.474231,1.9294 0,0 -0.130326,0.009 -0.130326,0.009 v 0 c -0.384339,-0.46935 -0.356774,-1.36716 -0.469879,-1.93712 -0.125311,-1.1688 -0.253073,-2.33832 -0.480636,-3.49268 -0.154755,-0.77573 -0.299173,-1.55323 -0.405056,-2.33735 0,0 0.130709,-0.001 0.130709,-0.001 z"
       inkscape:connector-curvature="0" />
    <path
       style="fill:#000000;fill-opacity:0;stroke:#000000;stroke-width:1.46499991;stroke-miterlimit:4;stroke-dasharray:none;stroke-opacity:1"
       id="path4803"
       d="m 70.714091,249.51751 c -0.601342,0.0131 -1.158309,0.22178 -1.703845,0.45443 -0.615278,0.28328 -1.142317,0.69772 -1.561655,1.2266 -0.291883,0.43066 -0.467138,0.94814 -0.330632,1.46872 0.02876,0.10967 0.08019,0.2121 0.12029,0.31815 0.355473,0.66413 1.00352,1.064 1.734664,1.21042 0.181327,0.0363 0.367353,0.0429 0.551029,0.0644 0.995834,0.0127 1.953443,-0.27459 2.791095,-0.81081 0.161028,-0.10308 0.310132,-0.2237 0.465196,-0.33556 0.536353,-0.49904 1.081768,-1.15568 0.930926,-1.94488 -0.02238,-0.11716 -0.07729,-0.2257 -0.115933,-0.33855 -0.394647,-0.64129 -0.896408,-0.93436 -1.640136,-0.97365 0,0 0.127818,-0.0195 0.127818,-0.0195 v 0 c 0.745487,0.0457 1.248148,0.3438 1.640591,0.98894 0.0386,0.11402 0.09346,0.22378 0.11579,0.34207 0.149825,0.79382 -0.39414,1.45409 -0.933636,1.95746 -0.155209,0.1123 -0.304448,0.23335 -0.465629,0.33689 -0.916406,0.58868 -1.953956,0.85907 -3.040941,0.81586 -0.183904,-0.0221 -0.370216,-0.0294 -0.551712,-0.0664 -0.733973,-0.14968 -1.382323,-0.55411 -1.737577,-1.22201 -0.04019,-0.10697 -0.09174,-0.21034 -0.120568,-0.32091 -0.136623,-0.52393 0.03795,-1.04494 0.330801,-1.4792 0.41914,-0.53101 0.946446,-0.94757 1.562452,-1.23296 0.54515,-0.23339 1.101206,-0.44376 1.702324,-0.45994 0,0 0.129288,0.0205 0.129288,0.0205 z"
       inkscape:connector-curvature="0" />
    <path
       style="fill:#0000ff;fill-opacity:0;stroke:#000000;stroke-width:1.46499991;stroke-miterlimit:4;stroke-dasharray:none;stroke-opacity:1"
       id="path4805"
       d="m 68.620621,257.38898 c 1.058955,-0.3007 2.144249,-0.49136 3.220302,-0.71797 0.920305,-0.18896 1.836869,-0.39484 2.751878,-0.60773 0,0 0.124584,0.0168 0.124584,0.0168 v 0 c -0.915612,0.21248 -1.832644,0.41852 -2.753389,0.60779 -1.073915,0.22665 -2.157267,0.41666 -3.213965,0.71773 0,0 -0.12941,-0.0167 -0.12941,-0.0167 z"
       inkscape:connector-curvature="0" />
    <path
       style="fill:#0000ff;fill-opacity:0;stroke:#0000ff;stroke-width:1.46499991;stroke-miterlimit:4;stroke-dasharray:none;stroke-opacity:1"
       id="path4809"
       d="m 7.337875,287.71431 c 0.6226392,-0.0614 1.2476786,-0.0915 1.8715264,-0.13934 1.0992816,-0.0508 2.1872016,-0.22037 3.2729196,-0.39008 1.52132,-0.25919 3.046846,-0.49354 4.566123,-0.76444 1.714946,-0.30358 3.427635,-0.61788 5.132441,-0.97431 1.722987,-0.35779 3.435276,-0.76722 5.138614,-1.2088 1.681287,-0.43438 3.368765,-0.84378 5.054452,-1.26052 1.608597,-0.38478 3.205525,-0.81779 4.800491,-1.25533 1.642187,-0.46009 3.280508,-0.93406 4.924126,-1.38905 1.421246,-0.4169 2.844715,-0.82751 4.262964,-1.25461 1.033455,-0.30333 2.050767,-0.65109 3.059263,-1.02811 0.716077,-0.33124 1.457039,-0.60181 2.185257,-0.90368 0.496996,-0.20583 1.007751,-0.3731 1.516679,-0.54559 0.414269,-0.12214 0.832173,-0.23159 1.247852,-0.34908 0.467024,-0.13874 0.932323,-0.28216 1.400202,-0.41811 0.58429,-0.15613 1.168471,-0.31331 1.748882,-0.48344 0.585653,-0.18103 1.168337,-0.37083 1.751481,-0.55975 0.535757,-0.19433 1.075415,-0.37802 1.605359,-0.58805 0.46263,-0.17356 0.928989,-0.33663 1.392275,-0.50849 0.34286,-0.15293 0.696261,-0.28556 1.021432,-0.47437 0.290377,-0.14476 0.533442,-0.35873 0.789334,-0.55368 0.239067,-0.17513 0.490043,-0.33077 0.711152,-0.52939 0.185799,-0.15151 0.3683,-0.30637 0.544158,-0.46932 0.167145,-0.15244 0.35964,-0.27747 0.512374,-0.44496 0.07145,-0.11675 0.157559,-0.22282 0.236934,-0.33399 0.0924,-0.13533 0.188788,-0.26895 0.293053,-0.39528 0.104809,-0.13136 0.213748,-0.25841 0.309988,-0.39667 0.07195,-0.15302 -0.07251,-0.31541 -0.152215,-0.43639 -0.237738,-0.33209 -0.565028,-0.58948 -0.89884,-0.81902 -0.472932,-0.31043 -0.986348,-0.53768 -1.52305,-0.71064 -0.578143,-0.18861 -1.17063,-0.32508 -1.772687,-0.40805 -0.606655,-0.0944 -1.218311,-0.1781 -1.833327,-0.17503 -0.792075,0.0105 -1.580748,0.0803 -2.370264,0.13709 -0.92346,0.081 -1.844588,0.18602 -2.760933,0.3262 -1.062913,0.19564 -2.128525,0.37617 -3.188919,0.5854 -1.020551,0.19812 -2.044841,0.37587 -3.065725,0.57206 -0.961205,0.19404 -1.922184,0.38712 -2.878481,0.6045 -0.98515,0.23565 -1.965143,0.49213 -2.943847,0.75304 -0.989071,0.265 -1.976792,0.53482 -2.967373,0.79416 -1.007499,0.27803 -2.031125,0.48907 -3.05104,0.71497 -0.986259,0.21742 -1.958489,0.49199 -2.940365,0.72703 -0.917009,0.20855 -1.841392,0.3841 -2.765819,0.55649 -0.88445,0.18042 -1.773111,0.33988 -2.664003,0.48493 -0.778507,0.15384 -1.557475,0.30143 -2.341835,0.42302 -0.793852,0.11352 -1.579772,0.25994 -2.35718,0.45658 -0.784428,0.23258 -1.561664,0.48517 -2.351754,0.69843 -0.805701,0.19725 -1.575031,0.50719 -2.353421,0.78845 -0.765818,0.28196 -1.528998,0.57192 -2.306447,0.82055 -0.726923,0.22251 -1.454726,0.44464 -2.166969,0.71092 -0.828645,0.32267 -1.673332,0.60072 -2.517485,0.87933 -0.682336,0.24317 -1.367126,0.47722 -2.058636,0.69287 -0.6007378,0.17382 -1.1538876,0.46698 -1.7154348,0.73529 -0.5989426,0.30268 -1.1776265,0.6414 -1.7345133,1.01548 -0.5026612,0.32274 -0.9647761,0.70137 -1.432886,1.07093 -0.3672215,0.28985 -0.6296697,0.66158 -0.8492468,1.06836 -0.2184593,0.45991 -0.3438396,0.95415 -0.5106477,1.43312 -0.1444122,0.42408 -0.2840638,0.85732 -0.2371381,1.30891 0.083629,0.42386 0.3965149,0.64701 0.7522167,0.84359 0.4118909,0.16909 0.8423376,0.3223 1.2871429,0.37003 0.1852353,0.0144 0.1765221,-0.006 0.3407032,-0.06 0,0 0.1297064,0.0162 0.1297064,0.0162 v 0 c -0.1943127,0.0673 -0.3940879,0.0802 -0.5992381,0.0627 -0.4448072,-0.0516 -0.8759992,-0.20291 -1.287313,-0.37519 -0.3582453,-0.19982 -0.6707016,-0.42854 -0.7534886,-0.85603 -0.046169,-0.45364 0.092594,-0.88864 0.2381631,-1.31459 0.1674251,-0.47939 0.2921579,-0.97442 0.5101513,-1.4352 0.2200576,-0.40837 0.4818554,-0.78223 0.8501705,-1.0736 0.4685229,-0.36966 0.9307544,-0.7488 1.4336805,-1.07184 0.5567971,-0.37493 1.1358113,-0.71374 1.7347049,-1.01736 0.5617729,-0.2683 1.1145665,-0.56282 1.7153759,-0.73715 0.691968,-0.21567 1.377607,-0.44856 2.060177,-0.69246 0.843948,-0.27842 1.688531,-0.55604 2.516835,-0.8789 0.711966,-0.26725 1.439949,-0.48923 2.166998,-0.71156 0.77778,-0.24779 1.540893,-0.53817 2.306807,-0.82002 0.778516,-0.28124 1.547653,-0.59209 2.353431,-0.78952 0.790163,-0.21302 1.567551,-0.46497 2.351666,-0.69863 0.777347,-0.19729 1.563169,-0.34449 2.357162,-0.45781 0.784578,-0.12117 1.563752,-0.26847 2.342304,-0.42285 0.891032,-0.14462 1.779781,-0.3041 2.664283,-0.4846 0.924436,-0.17242 1.848882,-0.34768 2.765999,-0.55582 0.982157,-0.23442 1.954345,-0.50971 2.940725,-0.72719 1.019847,-0.22599 2.043557,-0.43646 3.051008,-0.71448 0.990537,-0.25931 1.978208,-0.5291 2.967207,-0.79413 0.978728,-0.26098 1.958731,-0.51754 2.943839,-0.75351 0.956304,-0.21767 1.917303,-0.41092 2.878579,-0.60492 1.020993,-0.19646 2.045494,-0.37394 3.066232,-0.57193 1.060196,-0.20947 2.1257,-0.38967 3.188333,-0.58603 0.916146,-0.14076 1.837142,-0.2458 2.760437,-0.32731 0.789305,-0.0566 1.577679,-0.12701 2.369524,-0.1381 0.70049,-5.5e-4 1.397151,0.0539 2.087729,0.17669 0.602173,0.0841 1.194824,0.22123 1.773116,0.41026 0.536993,0.17444 1.050949,0.40271 1.524,0.71432 0.33443,0.23151 0.66281,0.4896 0.900477,0.82392 0.08351,0.12709 0.226428,0.29177 0.153096,0.452 -0.09657,0.13858 -0.205388,0.2662 -0.310528,0.39776 -0.10495,0.12523 -0.200054,0.25963 -0.292714,0.39428 -0.07874,0.11223 -0.167195,0.21718 -0.23713,0.33557 -0.152149,0.16878 -0.344943,0.29395 -0.513075,0.44604 -0.175559,0.16331 -0.357568,0.31878 -0.544073,0.4695 -0.220363,0.20013 -0.471966,0.35554 -0.71165,0.53047 -0.256651,0.19444 -0.498501,0.41081 -0.789538,0.55524 -0.324892,0.19062 -0.679222,0.3224 -1.022233,0.47655 -0.463349,0.17222 -0.930077,0.33475 -1.392973,0.50811 -0.529916,0.21057 -1.069816,0.39392 -1.605526,0.58886 -0.583245,0.18911 -1.166201,0.37852 -1.751841,0.56008 -0.580175,0.17049 -1.164241,0.3277 -1.748486,0.48352 -0.467598,0.13609 -0.932732,0.27912 -1.399368,0.41832 -0.415774,0.11724 -0.833403,0.22767 -1.248111,0.34836 -0.508968,0.17296 -1.020402,0.33886 -1.517665,0.54461 -0.728589,0.3023 -1.470658,0.57153 -2.18679,0.90397 -1.009226,0.37717 -2.02706,0.72559 -3.061377,1.02866 -1.418852,0.42736 -2.843265,0.83711 -4.265009,1.25463 -1.643676,0.4547 -3.281953,0.92876 -4.924049,1.38909 -1.595022,0.43781 -3.192071,0.87088 -4.800809,1.25561 -1.685703,0.41682 -3.373282,0.82596 -5.054605,1.26036 -1.703351,0.44183 -3.415708,0.85137 -5.138733,1.20936 -1.704649,0.35677 -3.417256,0.671 -5.132086,0.97473 -1.518603,0.27128 -3.043578,0.50534 -4.56422,0.76497 -1.084808,0.17001 -2.171812,0.34053 -3.2702506,0.39148 -0.6228151,0.0479 -1.2467584,0.0785 -1.8684276,0.13917 0,0 -0.1295228,-0.0189 -0.1295228,-0.0189 z"
       inkscape:connector-curvature="0" />
    <path
       style="fill:#0000ff;fill-opacity:0;stroke:#0000ff;stroke-width:1.46499991;stroke-miterlimit:4;stroke-dasharray:none;stroke-opacity:1"
       id="path4811"
       d="m 25.089612,265.15778 c -0.0092,0.008 -0.568639,0.16793 -0.314404,-0.0288 0.07899,-0.0611 0.181085,-0.0843 0.272003,-0.12559 0.130565,-0.0593 0.261627,-0.11757 0.39244,-0.17635 1.234804,-0.5354 2.477007,-1.05233 3.724719,-1.55675 0.783799,-0.31263 0.407299,-0.1631 1.129405,-0.44884 0,0 0.125265,0.015 0.125265,0.015 v 0 c -0.723403,0.28541 -0.346374,0.13599 -1.13097,0.44855 -1.246915,0.50388 -2.488385,1.02009 -3.721687,1.55661 -0.220853,0.0996 -0.432997,0.22073 -0.661571,0.30108 -0.09241,0.0325 -0.191835,0.0412 -0.285239,0.0707 -0.02011,0.006 0.04243,0.003 0.06328,-5.6e-4 0.07757,-0.0119 0.205817,-0.0517 0.27683,-0.072 0,0 0.129933,0.0169 0.129933,0.0169 z"
       inkscape:connector-curvature="0" />
    <path
       style="fill:#008000;fill-opacity:0;stroke:#0000ff;stroke-width:1.46499991;stroke-miterlimit:4;stroke-dasharray:none;stroke-opacity:1"
       id="path4813"
       d="m 24.813481,266.21536 c 0.678253,0.20241 1.376987,0.3165 2.07304,0.43749 0.366591,0.1189 0.842286,0.023 1.172851,0.24772 0.0035,0.028 0.01423,0.0561 0.0105,0.0841 -0.03306,0.24733 -0.40844,0.68582 -0.548013,0.89882 -0.293346,0.46486 -0.471879,0.97349 -0.513956,1.51977 -0.0063,0.37495 0.208254,0.62564 0.538599,0.76602 0.396211,0.12359 0.79784,0.0833 1.201103,0.0297 0.72091,-0.13336 1.436203,-0.29357 2.154996,-0.43763 0.133067,-0.0255 0.266134,-0.0511 0.399201,-0.0766 0,0 0.126606,0.0176 0.126606,0.0176 v 0 c -0.133144,0.0255 -0.26629,0.051 -0.399434,0.0764 -0.71833,0.14409 -1.433245,0.30372 -2.153385,0.43869 -0.483492,0.0659 -0.983859,0.10667 -1.458743,-0.0331 -0.332082,-0.14694 -0.545719,-0.40337 -0.538798,-0.78215 0.04272,-0.5483 0.22125,-1.05902 0.51475,-1.52625 0.137935,-0.21125 0.509886,-0.64595 0.54566,-0.88965 0.0035,-0.0242 -0.0065,-0.0485 -0.0098,-0.0728 -0.335873,-0.21404 -0.801354,-0.12558 -1.168993,-0.24282 -0.696982,-0.1215 -1.396674,-0.23606 -2.075807,-0.43908 0,0 0.129624,-0.0163 0.129624,-0.0163 z"
       inkscape:connector-curvature="0" />
    <path
       style="fill:#008000;fill-opacity:0;stroke:#008000;stroke-width:1.46499991;stroke-miterlimit:4;stroke-dasharray:none;stroke-opacity:1"
       id="path4827"
       d="m 13.311541,285.73775 c 0.113544,-0.89085 0.342267,-1.76009 0.560348,-2.62948 0.292172,-1.05179 0.476396,-2.12679 0.653721,-3.20221 0.07098,-0.43034 0.129373,-0.86258 0.183821,-1.29527 0.01168,-0.0928 0.142937,-0.0763 0.131256,0.0165 v 0 c -0.05466,0.43436 -0.113295,0.86827 -0.184548,1.30027 -0.177919,1.07901 -0.362895,2.15756 -0.655933,3.21288 -0.216637,0.86362 -0.444077,1.72701 -0.557182,2.61191 -0.01033,0.093 -0.141813,0.0784 -0.131483,-0.0146 z"
       inkscape:connector-curvature="0" />
    <path
       style="fill:#008000;fill-opacity:0;stroke:#008000;stroke-width:1.46499991;stroke-miterlimit:4;stroke-dasharray:none;stroke-opacity:1"
       id="path4829"
       d="m 19.397064,284.95893 c 0.07153,-0.58113 0.156378,-1.16079 0.235212,-1.74109 0.107861,-0.9342 0.202369,-1.86984 0.309444,-2.80412 0.07934,-0.77557 0.182737,-1.54822 0.318842,-2.31582 0.01634,-0.0921 0.146594,-0.069 0.130259,0.0231 v 0 c -0.13568,0.76492 -0.23859,1.5349 -0.31767,2.30777 -0.107195,0.93521 -0.201744,1.87177 -0.309788,2.80687 -0.07878,0.57984 -0.163598,1.15903 -0.235029,1.73969 -0.0116,0.0928 -0.142873,0.0764 -0.13127,-0.0164 z"
       inkscape:connector-curvature="0" />
    <path
       style="fill:#008000;fill-opacity:0;stroke:#008000;stroke-width:1.46499991;stroke-miterlimit:4;stroke-dasharray:none;stroke-opacity:1"
       id="path4831"
       d="m 25.466146,283.51193 c -0.0123,-0.58122 0.04838,-1.16019 0.07978,-1.74002 0.03433,-0.84529 0.06025,-1.69181 0.03496,-2.5376 -0.04013,-0.8718 -0.0694,-1.74363 -0.13662,-2.61383 -0.07557,-0.64703 -0.04572,-1.29047 0.0923,-1.92539 0.0199,-0.0914 0.149166,-0.0632 0.129263,0.0281 v 0 c -0.135736,0.62226 -0.163902,1.25287 -0.08966,1.88705 0.06737,0.87228 0.09678,1.74619 0.136954,2.62008 0.02521,0.84949 -4.24e-4,1.6997 -0.03509,2.54869 -0.03129,0.57745 -0.0918,1.15403 -0.07959,1.73287 0,0.0935 -0.132291,0.0935 -0.132291,0 z"
       inkscape:connector-curvature="0" />
    <path
       style="fill:#008000;fill-opacity:0;stroke:#008000;stroke-width:1.46499991;stroke-miterlimit:4;stroke-dasharray:none;stroke-opacity:1"
       id="path4833"
       d="m 31.321174,282.31895 c 0.127349,-0.53662 0.219204,-1.08013 0.280722,-1.62802 0.117817,-0.9059 0.162941,-1.81894 0.228114,-2.72962 0.08064,-1.00046 0.07625,-2.00485 0.127619,-3.00655 0.04055,-0.66524 0.0689,-1.33168 0.186415,-1.98868 0.05672,-0.3336 0.137302,-0.6645 0.29456,-0.96549 0.04355,-0.0828 0.160631,-0.0212 0.117076,0.0616 v 0 c -0.152683,0.28797 -0.225555,0.60783 -0.281422,0.92724 -0.11711,0.65142 -0.143631,1.31252 -0.184512,1.97212 -0.05155,1.00257 -0.04688,2.00787 -0.127783,3.0092 -0.0653,0.91247 -0.110564,1.82729 -0.228603,2.73495 -0.06247,0.55515 -0.155406,1.10597 -0.284985,1.6496 -0.02569,0.0899 -0.1529,0.0536 -0.127201,-0.0364 z"
       inkscape:connector-curvature="0" />
    <path
       style="fill:#008000;fill-opacity:0;stroke:#008000;stroke-width:1.46499991;stroke-miterlimit:4;stroke-dasharray:none;stroke-opacity:1"
       id="path4835"
       d="m 37.7855,280.3138 c 0.1481,-0.86569 0.178324,-1.74497 0.209537,-2.62084 0.02254,-1.22102 0.05167,-2.44235 0.135916,-3.66089 0.02972,-0.41995 0.06476,-0.83849 0.117917,-1.25605 0.01183,-0.0928 0.14306,-0.0761 0.131228,0.0167 v 0 c -0.05299,0.41501 -0.08746,0.83105 -0.117171,1.24844 -0.08424,1.21707 -0.113059,2.43693 -0.135683,3.65648 -0.03136,0.87916 -0.06172,1.76178 -0.210262,2.63073 -0.01032,0.093 -0.141814,0.0784 -0.131482,-0.0146 z"
       inkscape:connector-curvature="0" />
    <path
       style="fill:#008000;fill-opacity:0;stroke:#008000;stroke-width:1.46499991;stroke-miterlimit:4;stroke-dasharray:none;stroke-opacity:1"
       id="path4837"
       d="m 43.871022,278.74122 c 0.109686,-0.87639 0.162261,-1.75662 0.196993,-2.63878 0.03271,-1.38336 0.05434,-2.76771 0.147558,-4.14865 0.01357,-0.37053 0.07256,-0.73555 0.141264,-1.09888 0.01741,-0.0919 0.147386,-0.0673 0.129982,0.0246 v 0 c -0.06792,0.35811 -0.126061,0.71791 -0.139253,1.08318 -0.09325,1.3797 -0.114517,2.76282 -0.147362,4.14493 -0.03491,0.88591 -0.08781,1.76988 -0.197911,2.64999 -0.01162,0.0928 -0.142873,0.0764 -0.131271,-0.0164 z"
       inkscape:connector-curvature="0" />
    <path
       style="fill:#008000;fill-opacity:0;stroke:#008000;stroke-width:1.46499991;stroke-miterlimit:4;stroke-dasharray:none;stroke-opacity:1"
       id="path4839"
       d="m 49.248972,276.91339 c -0.156617,-0.70725 -0.17794,-1.43551 -0.205097,-2.15667 -0.06333,-1.02653 0.04709,-2.04494 0.258816,-3.04779 0.08951,-0.47653 0.226234,-0.94016 0.384738,-1.39752 0.03064,-0.0884 0.155636,-0.0451 0.124992,0.0433 v 0 c -0.156824,0.4521 -0.291899,0.91043 -0.380296,1.38154 -0.209796,0.99218 -0.31885,1.9998 -0.256051,3.01547 0.02678,0.71202 0.0474,1.43111 0.20124,2.12955 0.0227,0.0908 -0.105654,0.12284 -0.128342,0.0321 z"
       inkscape:connector-curvature="0" />
    <path
       style="fill:#008000;fill-opacity:0;stroke:#008000;stroke-width:1.46499991;stroke-miterlimit:4;stroke-dasharray:none;stroke-opacity:1"
       id="path4841"
       d="m 54.18959,275.00703 c 0.08853,-0.99967 0.206772,-1.99712 0.330811,-2.99306 0.157281,-1.13777 0.362064,-2.2696 0.590965,-3.39508 0.05132,-0.25488 0.108225,-0.50626 0.192228,-0.7521 0.03039,-0.0885 0.155506,-0.0455 0.125113,0.043 v 0 c -0.08297,0.24013 -0.136562,0.48651 -0.187706,0.73549 -0.228324,1.12214 -0.432358,2.25067 -0.589325,3.38507 -0.12392,0.99487 -0.242051,1.99126 -0.330451,2.98986 -0.0093,0.0931 -0.140943,0.0799 -0.131635,-0.0132 z"
       inkscape:connector-curvature="0" />
    <path
       style="fill:#008000;fill-opacity:0;stroke:#008000;stroke-width:1.46499991;stroke-miterlimit:4;stroke-dasharray:none;stroke-opacity:1"
       id="path4849"
       d="m 27.854269,287.15432 c -0.486807,-0.18793 -0.952177,-0.23748 -1.462428,-0.14727 -0.631883,0.18737 -1.069722,0.64558 -1.439971,1.16683 -0.432621,0.71986 -0.456394,1.39293 -0.316765,2.20038 0.158054,0.59099 0.492628,1.14327 1.07442,1.39627 0.111323,0.0484 0.231357,0.0736 0.347036,0.11043 0.840888,0.11072 1.649817,-0.21294 2.420588,-0.50989 0.456948,-0.18195 0.894911,-0.40429 1.325557,-0.64058 0,0 0.128357,0.0138 0.128357,0.0138 v 0 c -0.43148,0.23651 -0.870018,0.45956 -1.32766,0.64206 -0.85774,0.33127 -1.737956,0.65377 -2.67411,0.51075 -0.115808,-0.0377 -0.23606,-0.0638 -0.347426,-0.11305 -0.582518,-0.25782 -0.916605,-0.81388 -1.074662,-1.40758 -0.139452,-0.81043 -0.116307,-1.48718 0.316405,-2.21049 0.370176,-0.52377 0.808088,-0.98439 1.440244,-1.17684 0.576426,-0.10609 1.171241,-0.0598 1.720352,0.15075 0,0 -0.129937,0.0145 -0.129937,0.0145 z"
       inkscape:connector-curvature="0" />
    <path
       style="fill:#008000;fill-opacity:0;stroke:#008000;stroke-width:1.46499991;stroke-miterlimit:4;stroke-dasharray:none;stroke-opacity:1"
       id="path4851"
       d="m 27.843083,289.30181 c 0.697156,-0.0746 1.392499,-0.16783 2.085752,-0.27279 0.634871,-0.10294 1.263949,-0.22518 1.883209,-0.39917 0,0 0.127863,0.0167 0.127863,0.0167 v 0 c -0.6198,0.17435 -1.249233,0.2974 -1.884704,0.40056 -0.692187,0.10524 -1.386544,0.19843 -2.082596,0.27359 0,0 -0.129524,-0.0189 -0.129524,-0.0189 z"
       inkscape:connector-curvature="0" />
    <path
       style="fill:#008000;fill-opacity:0;stroke:#008000;stroke-width:1.46499991;stroke-miterlimit:4;stroke-dasharray:none;stroke-opacity:1"
       id="path4853"
       d="m 38.302633,285.10397 c -0.526354,0.0184 -1.023059,0.15273 -1.490279,0.39016 -0.646109,0.36149 -1.001699,0.99469 -1.309396,1.64095 -0.369993,0.83678 -0.539382,1.61399 -0.487656,2.5265 0.08095,0.5206 0.314941,1.00106 0.814797,1.23035 0.100132,0.0459 0.208021,0.0726 0.312032,0.10888 0.476324,0.10755 0.970346,0.17757 1.460182,0.15356 0.175784,-0.009 0.348906,-0.0465 0.523378,-0.0696 0.338402,-0.072 0.181446,-0.0317 0.472037,-0.11619 0,0 0.128897,0.0167 0.128897,0.0167 v 0 c -0.291578,0.0857 -0.134172,0.0448 -0.473389,0.11798 -0.747591,0.10017 -1.503614,0.10382 -2.238783,-0.0866 -0.104224,-0.0371 -0.212447,-0.0645 -0.312676,-0.1114 -0.500687,-0.23407 -0.73405,-0.71973 -0.81469,-1.24292 -0.05042,-0.91442 0.118491,-1.69392 0.488397,-2.53287 0.307343,-0.64827 0.662538,-1.28442 1.308415,-1.64946 0.466659,-0.23979 0.962697,-0.3754 1.489446,-0.39648 0,0 0.129288,0.0205 0.129288,0.0205 z"
       inkscape:connector-curvature="0" />
    <path
       style="fill:#008000;fill-opacity:0;stroke:#008000;stroke-width:1.46499991;stroke-miterlimit:4;stroke-dasharray:none;stroke-opacity:1"
       id="path4855"
       d="m 36.159186,283.03349 c 0.729765,0.37079 1.499793,0.64701 2.282139,0.88244 0.644404,0.23056 1.357482,0.28564 1.967556,0.60738 0.03367,0.0325 0.0793,0.056 0.10102,0.0974 0.130704,0.24936 -0.318791,0.78504 -0.447254,0.97488 -0.157202,0.21674 -0.249645,0.46223 -0.335651,0.71247 0,0 -0.129622,-0.004 -0.129622,-0.004 v 0 c 0.08629,-0.25129 0.178869,-0.498 0.336368,-0.71585 0.120965,-0.17892 0.573675,-0.72248 0.445823,-0.95662 -0.02193,-0.0402 -0.06675,-0.0626 -0.100119,-0.0939 -0.610544,-0.31745 -1.320463,-0.37568 -1.963859,-0.60537 -0.783648,-0.23669 -1.555213,-0.51366 -2.286566,-0.88485 0,0 0.130165,-0.0137 0.130165,-0.0137 z"
       inkscape:connector-curvature="0" />
  </g>
</svg>
