<?xml version="1.0" encoding="UTF-8" standalone="no"?>
<!-- Created with Inkscape (http://www.inkscape.org/) -->

<svg
   xmlns:dc="http://purl.org/dc/elements/1.1/"
   xmlns:cc="http://creativecommons.org/ns#"
   xmlns:rdf="http://www.w3.org/1999/02/22-rdf-syntax-ns#"
   xmlns:svg="http://www.w3.org/2000/svg"
   xmlns="http://www.w3.org/2000/svg"
   xmlns:sodipodi="http://sodipodi.sourceforge.net/DTD/sodipodi-0.dtd"
   xmlns:inkscape="http://www.inkscape.org/namespaces/inkscape"
   width="225.12044mm"
   height="164.33359mm"
   viewBox="0 0 225.12044 164.33359"
   version="1.1"
   id="svg8"
   sodipodi:docname="quantum-hall-graph.svg"
   inkscape:version="0.92.2 (5c3e80d, 2017-08-06)">
  <defs
     id="defs2" />
  <sodipodi:namedview
     id="base"
     pagecolor="#ffffff"
     bordercolor="#666666"
     borderopacity="1.0"
     inkscape:pageopacity="0.0"
     inkscape:pageshadow="2"
     inkscape:zoom="0.7"
     inkscape:cx="225.77452"
     inkscape:cy="86.258964"
     inkscape:document-units="mm"
     inkscape:current-layer="layer1"
     showgrid="false"
     inkscape:window-width="1920"
     inkscape:window-height="1029"
     inkscape:window-x="0"
     inkscape:window-y="25"
     inkscape:window-maximized="1" />
  <metadata
     id="metadata5">
    <rdf:RDF>
      <cc:Work
         rdf:about="">
        <dc:format>image/svg+xml</dc:format>
        <dc:type
           rdf:resource="http://purl.org/dc/dcmitype/StillImage" />
      </cc:Work>
    </rdf:RDF>
  </metadata>
  <g
     inkscape:label="Layer 1"
     inkscape:groupmode="layer"
     id="layer1"
     transform="translate(15.988242,1.2554136)">
    <path
       style="fill:#000000;fill-opacity:0;stroke:#000000;stroke-width:1.46499991;stroke-miterlimit:4;stroke-dasharray:none;stroke-opacity:1"
       id="path837"
       d="m 15.164026,7.4552529 c 0.792814,-1.142823 1.369195,-2.4187121 2.143301,-3.5707018 1.639077,-1.2623178 2.62071,0.8546893 3.315729,1.8967005 0.861078,1.4551845 1.874003,2.7905575 3.03025,4.02048 0,0 -1.109678,0.083414 -1.109678,0.083414 v 0 C 21.39605,8.6434987 20.388898,7.2995731 19.520226,5.8464433 19.455209,5.749894 18.707583,4.634408 18.598148,4.4906247 18.484449,4.3412372 18.369416,4.1898786 18.229,4.0652694 18.128272,3.975881 17.767974,3.9258131 17.883272,3.8562248 c 0.229606,-0.1385777 0.53773,-0.1129067 0.80182,-0.066228 0.101011,0.017854 -0.17456,0.1077809 -0.261839,0.1616715 -0.793942,1.1362968 -1.360017,2.4188002 -2.141107,3.5661078 0,0 -1.11812,-0.062523 -1.11812,-0.062523 z"
       inkscape:connector-curvature="0" />
    <path
       style="fill:#000000;fill-opacity:0;stroke:#000000;stroke-width:1.46499991;stroke-miterlimit:4;stroke-dasharray:none;stroke-opacity:1"
       id="path839"
       d="m 19.081835,6.3200327 c -0.01231,2.016665 -0.01304,4.0333933 -0.0165,6.0500903 0.07162,4.004745 0.427648,7.996532 0.733519,11.988234 0.440936,6.806551 0.725434,13.622805 1.013614,20.437323 0.294638,7.42388 0.381461,14.853351 0.572248,22.280173 0.209134,6.243072 0.62418,12.477557 1.083454,18.706587 0.373509,4.577281 0.57851,9.165079 0.696092,13.755288 0.09537,2.713952 -0.08943,5.426472 -0.202241,8.137012 -0.08107,1.96244 -0.09795,3.92658 -0.108516,5.8904 -0.0067,1.52155 -0.0019,3.04312 0.004,4.56467 0.0025,0.40011 0.0038,0.80024 0.009,1.20033 -1.85e-4,0.0159 6.35e-4,0.0319 9.79e-4,0.0478 0,0 -1.13379,5.3e-4 -1.13379,5.3e-4 v 0 c 2.33e-4,-0.0161 8.2e-4,-0.0321 6.88e-4,-0.0482 0.0036,-0.40014 0.0044,-0.80031 0.006,-1.20046 0.0035,-1.52178 0.0068,-3.04355 0.01126,-4.56533 0.0098,-1.96524 0.02677,-3.93086 0.112052,-5.89457 0.121535,-2.70795 0.311784,-5.41772 0.227736,-8.129707 C 21.989971,94.951692 21.793566,90.365732 21.428073,85.789922 20.975726,79.55925 20.5712,73.322785 20.365293,67.078433 20.180339,59.652153 20.105971,52.223082 19.806706,44.799993 19.510377,37.986401 19.21352,31.17106 18.749879,24.366544 18.431247,20.372278 18.059741,16.378222 17.976334,12.370123 c -0.0035,-2.016697 -0.0042,-4.0334253 -0.0165,-6.0500903 0,0 1.122004,0 1.122004,0 z"
       inkscape:connector-curvature="0" />
    <path
       style="fill:#000000;fill-opacity:0;stroke:#000000;stroke-width:1.46499991;stroke-miterlimit:4;stroke-dasharray:none;stroke-opacity:1"
       id="path841"
       d="m 21.77362,121.75181 c 1.876177,-0.76132 3.943664,-0.81051 5.93992,-0.90567 3.149761,-0.0594 6.292974,0.15928 9.426469,0.45239 3.855485,0.32388 7.7158,0.58018 11.567792,0.94573 5.343401,0.46417 10.67875,1.00674 16.022918,1.46249 7.259362,0.57261 14.527186,0.9906 21.799404,1.35467 8.779428,0.43467 17.570167,0.53135 26.358507,0.60094 9.05659,0.005 18.10938,0.0147 27.15986,0.37045 7.83315,0.34737 15.64342,1.05233 23.44052,1.8602 5.7422,0.53325 11.47416,1.16712 17.20013,1.85118 2.95226,0.31618 5.88926,0.75426 8.83879,1.09338 0.52546,0.0406 1.04847,0.13533 1.57577,0.15582 -0.9481,0.18347 -1.25819,0.1073 -1.99243,-0.25268 0,0 1.11833,-0.12573 1.11833,-0.12573 v 0 c 0.59154,0.28326 1.35081,0.3247 -0.24543,0.54847 -0.5181,-0.0459 -1.03471,-0.10718 -1.55152,-0.16542 -2.93192,-0.34733 -5.85237,-0.78459 -8.78801,-1.10114 -5.71324,-0.68536 -11.43249,-1.32013 -17.16199,-1.85512 -7.78785,-0.80814 -15.58897,-1.51277 -23.41306,-1.85784 -9.04718,-0.35361 -18.0967,-0.36292 -27.14989,-0.36889 -8.79596,-0.0699 -17.594293,-0.16663 -26.381328,-0.60161 -7.281679,-0.36346 -14.558965,-0.78234 -21.827833,-1.35396 -5.354175,-0.45477 -10.69966,-0.99602 -16.053096,-1.45896 -3.858842,-0.36223 -7.725818,-0.61759 -11.587769,-0.94257 -2.420426,-0.22204 -4.844515,-0.4035 -7.27565,-0.44583 -1.982361,0.0906 -4.040684,0.12823 -5.908582,0.86842 0,0 -1.111822,-0.12872 -1.111822,-0.12872 z"
       inkscape:connector-curvature="0" />
    <path
       style="fill:#000000;fill-opacity:0;stroke:#000000;stroke-width:1.46499991;stroke-miterlimit:4;stroke-dasharray:none;stroke-opacity:1"
       id="path843"
       d="m 188.90522,124.70584 c 2.97818,0.72894 5.95329,1.47179 8.92301,2.23541 1.36096,0.39896 2.77168,0.69906 4.07394,1.2793 0.33071,0.14735 0.97853,0.42404 1.09781,0.87481 0.0468,0.177 -0.0539,0.36221 -0.0808,0.54331 -0.17209,0.19614 -0.31814,0.41862 -0.51627,0.58841 -0.55765,0.47793 -1.47582,0.95688 -2.09993,1.28099 -1.38976,0.72175 -2.8249,1.34832 -4.25492,1.98433 -1.11021,0.485 -2.27263,0.88401 -3.16104,1.73277 0,0 -1.11397,-0.0894 -1.11397,-0.0894 v 0 c 0.89073,-0.87659 2.06635,-1.28383 3.19894,-1.76802 1.4284,-0.63277 2.86,-1.25773 4.24832,-1.97613 0.64472,-0.33362 1.49439,-0.7761 2.07663,-1.24682 0.18876,-0.15261 0.33673,-0.34972 0.50509,-0.52458 0.0283,-0.15053 0.12696,-0.30434 0.0848,-0.4516 -0.11701,-0.40892 -0.7886,-0.69103 -1.07176,-0.81573 -1.29768,-0.57152 -2.6979,-0.8756 -4.05267,-1.27025 -2.98251,-0.76679 -5.97087,-1.51072 -8.96463,-2.23152 0,0 1.10744,-0.1453 1.10744,-0.1453 z"
       inkscape:connector-curvature="0" />
    <path
       style="fill:#000000;fill-opacity:0;stroke:#000000;stroke-width:1.46499991;stroke-miterlimit:4;stroke-dasharray:none;stroke-opacity:1"
       id="path845"
       d="m 198.99626,142.14912 c -0.0208,2.929 -0.0207,5.85812 -0.0215,8.78718 0.0326,2.63572 -0.10853,5.26962 -0.25663,7.90019 0.005,0.16151 0.009,0.32302 0.0139,0.48453 0,0 -1.1178,0.002 -1.1178,0.002 v 0 c -0.002,-0.16453 -0.004,-0.32906 -0.005,-0.49359 0.17683,-2.62699 0.32404,-5.25936 0.2912,-7.89334 -8e-4,-2.92906 -5.3e-4,-5.85818 -0.0215,-8.78718 0,0 1.11753,0 1.11753,0 z"
       inkscape:connector-curvature="0" />
    <path
       style="fill:#000000;fill-opacity:0;stroke:#000000;stroke-width:1.46499991;stroke-miterlimit:4;stroke-dasharray:none;stroke-opacity:1"
       id="path847"
       d="m 197.12054,142.04604 c 0.10032,-1.88753 0.9806,-2.52699 2.63341,-3.19864 2.16756,-0.46973 4.58814,-0.43441 6.57539,0.6588 0.3031,0.16674 0.57473,0.38522 0.86209,0.57784 0.22366,0.23445 0.48424,0.43856 0.67099,0.70337 1.10083,1.561 0.30309,3.38624 -0.45516,4.87517 -0.99131,1.6285 -2.43618,2.8686 -4.01802,3.89599 0.21622,0.12226 -0.46268,0.15981 -0.40902,0.3256 0.0159,0.0491 0.1002,0.0254 0.14928,0.0415 0.60596,0.1985 1.18129,0.45894 1.76267,0.7193 1.48749,0.83972 2.90102,2.19211 2.94799,4.02798 0.0104,0.40692 -0.0967,0.80836 -0.14497,1.21254 -0.19141,0.42132 -0.32798,0.87216 -0.57424,1.26395 -1.79901,2.86217 -5.35962,3.97324 -8.41065,4.84151 -2.04387,0.53038 -4.03559,0.34984 -6.10635,0.18389 0,0 1.0798,-0.15537 1.0798,-0.15537 v 0 c 0.0731,0.0597 0.12524,0.17231 0.2194,0.1791 1.402,0.10115 2.35618,-0.13237 3.75425,-0.34486 0.70173,-0.19586 1.41542,-0.35306 2.1052,-0.58758 2.32179,-0.78937 4.90075,-2.01752 6.27064,-4.16342 0.24303,-0.3807 0.37853,-0.82018 0.5678,-1.23027 0.0472,-0.39299 0.15258,-0.78331 0.14156,-1.17897 -0.0504,-1.80839 -1.48005,-3.11695 -2.94909,-3.92114 -0.22457,-0.0983 -1.90568,-0.68323 -1.93922,-0.96153 -0.0223,-0.18523 0.46796,-0.26553 0.42543,-0.36372 1.58723,-1.00096 3.03715,-2.22172 4.03271,-3.83635 0.74234,-1.44208 1.54908,-3.22805 0.45103,-4.73868 -0.1866,-0.2567 -0.44442,-0.45315 -0.66663,-0.67972 -0.81339,-0.53153 -0.93831,-0.68117 -1.89013,-1.01043 -0.3707,-0.12823 -0.76633,-0.17435 -1.13775,-0.30049 -0.0439,-0.0149 -0.0344,-0.10939 -0.0805,-0.11326 -0.95789,-0.0804 -1.22229,0.0337 -2.13937,0.21058 -1.62066,0.6257 -2.526,1.20863 -2.60651,3.06731 0,0 -1.12201,0 -1.12201,0 z"
       inkscape:connector-curvature="0" />
    <path
       style="fill:#000000;fill-opacity:0;stroke:#000000;stroke-width:1.46499991;stroke-miterlimit:4;stroke-dasharray:none;stroke-opacity:1"
       id="path849"
       d="m -8.4338725,23.828608 c -1.7167625,-2.110091 -2.4120175,-4.782286 -2.9940835,-7.383278 -0.386755,-2.436895 -0.496288,-4.935037 -0.140387,-7.3842106 0.194279,-1.3369509 0.363061,-1.7823132 0.721223,-3.0408956 0.797283,-2.0471818 1.1803992,-3.1402713 3.6732997,-2.7252327 0.2385007,0.039708 0.4211873,0.2375676 0.631781,0.3563512 1.8490195,1.7892292 2.0609179,3.9736304 1.9670972,6.4206477 -0.3260069,1.905112 -1.0559045,3.852867 -2.7271937,4.979497 -0.2492701,0.168035 -0.5327219,0.278735 -0.7990827,0.418103 -2.0600155,0.560109 -3.5704635,0.562785 -4.4700435,-1.438763 0,0 1.114586,-0.04779 1.114586,-0.04779 v 0 c 0.261166,0.56224 0.536082,1.054346 1.128366,1.335332 0.203741,0.09666 0.4626231,0.06594 0.6480024,0.194344 0.090671,0.0628 -0.4342434,0.06167 -0.3298674,0.02601 0.2628627,-0.08979 0.5408472,-0.126969 0.8112709,-0.190454 0.2665661,-0.131388 0.5499325,-0.233112 0.7996978,-0.394163 1.6753737,-1.080297 2.4076065,-3.007492 2.7333083,-4.886316 C -5.573252,7.6681551 -5.7757184,5.4834281 -7.6459172,3.7714655 -7.8559376,3.6676139 -8.2084777,3.6842705 -8.275979,3.4599107 c -0.049936,-0.1659782 0.5470263,-0.2404901 0.5152356,-0.070103 -0.03639,0.1950371 -0.3854842,0.120123 -0.546259,0.2363777 -0.7822086,0.565608 -1.1284969,1.5744335 -1.4546212,2.4244681 -0.3644454,1.2514678 -0.5351174,1.6897508 -0.7323574,3.0211339 -0.361042,2.4370546 -0.248474,4.9252576 0.14211,7.3496996 0.5855359,2.584276 1.2821897,5.252466 3.0337215,7.319306 0,0 -1.115723,0.08781 -1.115723,0.08781 z"
       inkscape:connector-curvature="0" />
    <path
       style="fill:#000000;fill-opacity:0;stroke:#000000;stroke-width:1.46499991;stroke-miterlimit:4;stroke-dasharray:none;stroke-opacity:1"
       id="path851"
       d="m -2.616248,13.043646 c 1.0985696,1.465098 2.31274393,2.842943 3.60343455,4.140761 0.83715555,0.800255 0.43213155,0.420331 1.21337885,1.141576 0,0 -1.1050963,0.09107 -1.1050963,0.09107 v 0 c -0.77554184,-0.724914 -0.37280524,-0.3432 -1.20669671,-1.146737 -1.29120049,-1.309435 -2.50842069,-2.6944 -3.62397119,-4.157176 0,0 1.1189508,-0.06949 1.1189508,-0.06949 z"
       inkscape:connector-curvature="0" />
    <path
       style="fill:#000000;fill-opacity:0;stroke:#000000;stroke-width:1.46499991;stroke-miterlimit:4;stroke-dasharray:none;stroke-opacity:1"
       id="path853"
       d="m -3.4490006,18.848293 c 0.8080299,-1.587718 1.9543302,-2.969897 3.15318072,-4.274811 0.87122002,-0.887411 0.44824781,-0.46561 1.26688872,-1.267434 0,0 1.10325006,0.08832 1.10325006,0.08832 v 0 C 1.25006,14.191753 1.6751762,13.772166 0.80117123,14.65536 c -1.19381152,1.289282 -2.33473473,2.659706 -3.12851483,4.238372 0,0 -1.121657,-0.04544 -1.121657,-0.04544 z"
       inkscape:connector-curvature="0" />
    <path
       style="fill:#000000;fill-opacity:0;stroke:#000000;stroke-width:1.46499991;stroke-miterlimit:4;stroke-dasharray:none;stroke-opacity:1"
       id="path855"
       d="m 6.6078758,16.570602 c 0.039054,1.384409 -0.088248,2.762215 -0.2297496,4.137489 0,0 -1.1163686,-0.01191 -1.1163686,-0.01191 v 0 c 0.1524968,-1.370273 0.2827126,-2.744922 0.2256044,-4.125579 0,0 1.1205138,0 1.1205138,0 z"
       inkscape:connector-curvature="0" />
    <path
       style="fill:#000000;fill-opacity:0;stroke:#000000;stroke-width:1.46499991;stroke-miterlimit:4;stroke-dasharray:none;stroke-opacity:1"
       id="path857"
       d="m 11.611694,11.266689 c 0.296725,1.325409 0.852311,2.536809 1.667459,3.6172 0.103421,0.08637 0.193169,0.192448 0.310262,0.259124 0.09483,0.054 0.421336,0.0823 0.313048,0.09581 -0.26113,0.03256 -0.545635,0.06454 -0.78861,-0.03651 -0.112839,-0.04693 0.23418,-0.0813 0.33323,-0.152883 0.299172,-0.216216 0.368371,-0.424451 0.548459,-0.740596 0.431853,-1.086685 0.50462,-2.267766 0.559365,-3.423724 0.322988,0.177468 -0.154136,-0.515268 0.01298,-0.502601 0.384115,0.02912 0.805148,0.04564 1.126451,0.258139 0.142977,0.09456 0.02042,0.34237 0.03916,0.512762 0.06575,0.598036 0.151248,1.193757 0.220819,1.791361 0.431055,3.310054 0.741378,6.627099 0.850614,9.963131 0.0143,2.508212 -0.126189,5.174064 -1.457351,7.385655 -0.201243,0.334343 -0.465957,0.626115 -0.698936,0.939173 -0.921214,0.9213 -2.051624,1.548066 -3.38779,1.451763 C 9.3142556,32.544191 9.8611109,32.805351 8.8463812,32.037401 8.707503,31.860132 8.5686248,31.682864 8.4297466,31.505596 c 0,0 1.1095358,-0.07512 1.1095358,-0.07512 v 0 c 0.1376211,0.167452 0.2752426,0.334906 0.412864,0.502361 0.1889496,0.13131 0.4866506,0.178258 0.5668486,0.393925 0.04616,0.12414 -0.474033,0.135485 -0.351387,0.185484 0.254532,0.103767 0.551897,0.04205 0.824576,0.0074 1.013212,-0.128675 1.843766,-0.662318 2.563162,-1.357693 0.234056,-0.30611 0.500154,-0.590193 0.702168,-0.918335 1.345256,-2.185167 1.480888,-4.842716 1.473471,-7.332239 -0.108368,-3.333817 -0.420186,-6.648739 -0.876449,-9.953424 -0.07342,-0.587554 -0.307503,-2.301804 -0.285682,-2.317507 0.312661,-0.224998 0.743053,-0.226589 1.127247,-0.254444 0.167968,-0.01218 -0.351644,0.681448 -0.02302,0.504702 -0.06243,1.172299 -0.138727,2.367328 -0.561947,3.474379 -0.670456,1.254318 -1.724516,1.695001 -2.946157,0.590105 -0.80722,-1.101968 -1.359357,-2.330843 -1.673203,-3.664029 0,0 1.119919,-0.02449 1.119919,-0.02449 z"
       inkscape:connector-curvature="0" />
    <path
       style="fill:#000000;fill-opacity:0;stroke:#000000;stroke-width:1.46499991;stroke-miterlimit:4;stroke-dasharray:none;stroke-opacity:1"
       id="path874"
       d="m -3.207001,39.045679 c -1.8849758,0.590745 -3.8279139,0.971102 -5.7689932,1.324276 -1.5718408,0.278625 -3.1835998,0.43315 -4.7741258,0.209524 -0.226284,-0.05151 -0.450887,-0.102839 -0.681199,-0.133512 -0.436146,-0.0104 -0.217229,-0.228057 0.875219,0.08627 0.06174,0.01775 -0.07194,0.108317 -0.09203,0.169336 -0.07332,0.222702 -0.08826,0.530661 -0.110646,0.752435 -0.08652,1.916022 -0.06573,3.835707 -0.06705,5.75329 -5.3e-5,3.107963 -1.87e-4,6.215925 8.47e-4,9.323888 0.03914,2.813288 -0.06516,5.63045 0.05597,8.441965 0.04916,1.393592 0.303061,2.780115 0.254523,4.175871 -0.06641,0.78667 -0.180524,1.568056 -0.241912,2.355194 0.03034,0.457456 -0.104881,0.85326 -0.272078,1.266235 -0.02391,0.153413 -0.220827,0.359198 -0.03819,0.374893 -2.083062,0.09209 -0.441831,-0.280884 0.05301,-0.327006 1.783926,-1.41e-4 3.560346,0.202451 5.3344598,0.375253 0.9909837,0.09885 1.9851299,0.158853 2.9788829,0.22098 0,0 -1.0908816,0.165698 -1.0908816,0.165698 v 0 C -7.7842527,73.51632 -8.7776808,73.454383 -9.76804,73.35526 c -0.902041,-0.08731 -1.802478,-0.167391 -2.705817,-0.237572 -0.207801,-0.01614 -0.415196,-0.03715 -0.622722,-0.05651 -0.167456,-0.01561 -0.658745,0.01312 -0.502222,-0.04841 0.216112,-0.08496 0.464054,-0.01855 0.696081,-0.02781 -0.79587,0.05645 -1.454502,0.39202 -2.289096,0.283586 -0.168856,-0.155583 -0.02025,-0.35623 0.03539,-0.540618 0.157,-0.405908 0.317149,-0.779542 0.276721,-1.23249 0.0616,-0.785828 0.179971,-1.565346 0.248541,-2.350537 0.05415,-1.391954 -0.19767,-2.776699 -0.235463,-4.167251 -0.110192,-2.813359 0.0037,-5.631585 -0.03707,-8.446431 -0.0016,-3.107957 -0.0062,-6.215912 -0.01404,-9.323861 -0.0038,-1.921129 -0.02955,-3.843872 0.03989,-5.764019 0.08869,-0.982528 0.16312,-1.428383 1.566936,-1.157971 0.226233,0.03698 0.447461,0.09597 0.673685,0.132805 0.224873,0.02783 0.8968,0.0088 0.676825,0.06316 -0.182779,0.04516 -0.751896,0.03301 -0.564672,0.01315 0.818662,-0.08688 1.652333,-0.08005 2.460619,-0.277058 1.9331927,-0.34616 3.8663911,-0.72543 5.7444822,-1.307312 0,0 1.1129685,0.135559 1.1129685,0.135559 z"
       inkscape:connector-curvature="0" />
    <path
       style="fill:#000000;fill-opacity:0;stroke:#000000;stroke-width:1.46499991;stroke-miterlimit:4;stroke-dasharray:none;stroke-opacity:1"
       id="path876"
       d="m -5.3972346,43.394664 c 0.4817187,2.052479 1.0491359,4.083209 1.7030179,6.087216 0.4072236,1.358026 0.9129067,2.684764 1.4268862,4.005479 0.1699587,0.32526 0.9441587,0.714536 -0.959881,0.06116 -0.08914,-0.03059 0.016259,-0.187838 0.020476,-0.281985 0.012763,-0.284903 0.01347,-0.675878 0.016073,-0.952685 -0.018423,-1.292394 0.033384,-2.592168 0.2636078,-3.865785 0.095169,-0.208425 0.1161381,-1.081537 0.5021982,-1.089448 1.3732282,-0.02814 1.0678367,-0.231114 1.59827273,0.364387 0.97637504,1.414285 1.67823184,2.993374 2.57934677,4.455906 0.1595569,0.23998 0.3191138,0.479957 0.4786707,0.719936 0,0 -1.1035271,0.06448 -1.1035271,0.06448 v 0 C 0.96965126,52.722049 0.81139542,52.480776 0.65313959,52.239499 -0.24005518,50.778425 -0.93971553,49.198318 -1.9448487,47.809824 c -0.4777206,-0.439383 -0.3896202,-0.240517 0.6394695,-0.313484 0.056759,-0.004 -0.1246853,-0.01336 -0.1692861,0.02196 -0.2522795,0.199871 -0.2132222,0.695592 -0.3367716,0.950179 -0.2399297,1.265555 -0.2865658,2.560286 -0.2628033,3.846045 -2.133e-4,0.07603 -0.012379,1.255376 -0.023964,1.260178 -0.9336093,0.386996 -1.0541855,0.472715 -1.2913821,-0.04642 -0.4961189,-1.326493 -0.9947817,-2.654199 -1.3995003,-4.011964 -0.6519201,-2.010288 -1.2183631,-4.046185 -1.7280686,-6.097164 0,0 1.1199188,-0.0245 1.1199188,-0.0245 z"
       inkscape:connector-curvature="0" />
    <path
       style="fill:#000000;fill-opacity:0;stroke:#000000;stroke-width:1.46499991;stroke-miterlimit:4;stroke-dasharray:none;stroke-opacity:1"
       id="path878"
       d="m -5.7543472,61.055445 c 2.0982562,-0.03754 4.2254059,-0.381873 6.3180473,-0.707369 1.1500275,-0.216574 2.296393,-0.451689 3.4445154,-0.678003 0,0 1.0893059,0.150972 1.0893059,0.150972 v 0 c -1.1524072,0.224769 -2.3030383,0.458266 -3.4559139,0.680656 -2.8140155,0.442413 -5.6411632,0.839227 -8.4997289,0.728565 0,0 1.1037742,-0.174821 1.1037742,-0.174821 z"
       inkscape:connector-curvature="0" />
    <path
       style="fill:#000000;fill-opacity:0;stroke:#000000;stroke-width:1.46499991;stroke-miterlimit:4;stroke-dasharray:none;stroke-opacity:1"
       id="path880"
       d="m -3.1718784,70.804312 c 1.3913931,-0.302919 2.70453256,-0.8294 3.84043534,-1.690974 0.59372986,-0.491474 0.97353926,-1.018177 0.20951293,-1.538094 -0.0952636,-0.0381 -0.18800403,-0.08325 -0.2857908,-0.114305 -0.32051497,-0.101804 -1.68386337,-0.153726 -1.04374274,-0.164944 0.24408075,-0.0043 0.49947354,-0.0485 0.73188647,0.02619 0.12391895,0.03982 -0.2538288,0.05777 -0.3807432,0.08665 -1.114377,0.547749 -1.7386454,1.72851 -2.2525171,2.80466 -0.4706651,1.273432 -0.8709577,2.633388 -0.6891741,3.999368 0.2288973,0.598125 0.6948268,0.911458 1.3160483,1.02825 0.1668354,0.03137 0.6761524,0.06199 0.5074446,0.04314 -0.1819677,-0.02035 -0.3648248,-0.03172 -0.5472371,-0.04759 0.98610273,-0.178474 1.89706736,-0.605054 2.8085116,-1.003821 0.079541,-0.04777 0.159081,-0.09554 0.2386216,-0.143304 0,0 1.1188381,0.113218 1.1188381,0.113218 v 0 c -0.080878,0.05332 -0.1617552,0.106635 -0.2426328,0.159954 -0.9194384,0.399428 -1.83420655,0.829157 -2.82015415,1.039294 -1.32340835,0.03603 -2.91287515,0.31554 -3.49643775,-1.17489 -0.1717066,-1.38842 0.2253914,-2.766161 0.6992144,-4.062479 0.5160237,-1.105524 1.1489909,-2.286063 2.2483217,-2.903593 1.01681532,-0.284398 2.238895,-0.243612 3.2091298,0.210511 0.6830143,0.567086 0.4347168,1.243213 -0.2193841,1.743644 -1.13067244,0.881004 -2.44468509,1.4215 -3.8401888,1.740116 0,0 -1.1099622,-0.151003 -1.1099622,-0.151003 z"
       inkscape:connector-curvature="0" />
    <path
       style="fill:#000000;fill-opacity:0;stroke:#000000;stroke-width:1.46499991;stroke-miterlimit:4;stroke-dasharray:none;stroke-opacity:1"
       id="path882"
       d="m 1.6488902,62.831807 c 1.0807369,-0.57954 2.1852122,-1.082085 3.3528574,-1.459137 0.8656227,-0.184499 2.2128194,-0.756148 2.8722274,0.04365 0.3030898,0.844555 0.2743396,1.784723 0.2121559,2.668267 -0.082579,0.795777 -0.193408,1.58828 -0.2938851,2.381943 -0.1294763,0.268385 0.7397374,0.259853 0.4999688,0.258191 -1.1055871,-0.0077 -1.0614051,0.0056 -0.534362,-0.07917 0.7547967,-0.114469 1.4773235,-0.367059 2.2222444,-0.529934 0.679046,-0.136824 0.166306,-0.05091 1.558903,-0.04869 0,0 -1.114613,0.17053 -1.114613,0.17053 v 0 c 1.008608,-0.01987 1.224539,-0.07607 0.668686,0.03048 -0.747614,0.156202 -1.4697122,0.407945 -2.2225621,0.534096 -0.51026,0.09681 -2.080383,0.441137 -2.2050806,-0.350367 0.1095793,-0.790556 0.2223728,-1.581039 0.3055771,-2.37486 0.058723,-0.848352 0.099679,-1.773827 -0.2205304,-2.576264 -0.3166356,-0.29668 -1.0075992,-0.313687 0.4957902,-0.226761 0.5026994,0.02907 -1.4860566,0.1015 -1.1368722,0.239538 -1.1684077,0.365363 -2.2780217,0.848439 -3.3455488,1.449067 0,0 -1.114956,-0.130585 -1.114956,-0.130585 z"
       inkscape:connector-curvature="0" />
    <path
       style="fill:#000000;fill-opacity:0;stroke:#000000;stroke-width:1.46499991;stroke-miterlimit:4;stroke-dasharray:none;stroke-opacity:1"
       id="path888"
       d="m 5.8542208,38.338217 c 0.9509815,-0.114684 1.9042581,-0.208068 2.85834,-0.292499 1.1551663,-0.128837 1.6934612,-0.178409 2.2805082,0.703352 0.541529,0.853218 0.753052,1.867228 1.024832,2.828684 0.368247,1.496431 0.57169,3.03293 0.754487,4.562168 0.196601,1.906829 0.223686,3.825084 0.245888,5.740167 0.114495,1.911845 0.24613,3.821875 0.319907,5.735931 -0.0076,1.63756 0.172788,3.264149 0.296766,4.894562 0.04131,1.346848 0.23421,2.679398 0.374837,4.01764 0.08751,0.964149 0.114839,1.926216 0.261415,2.883421 0.154946,0.946451 0.213175,1.90477 0.251255,2.86191 0.02818,0.879242 0.02483,1.759096 0.02525,2.638677 0.0011,0.593164 -2.64e-4,1.186325 0.002,1.779489 4.5e-4,0.112366 0.0011,0.224732 0.0022,0.337095 -0.01737,0.02921 -0.02257,0.07082 -0.0521,0.08764 -0.114897,0.06541 -1.265775,0.225219 -1.420105,0.256212 -1.121467,0.184954 -2.229006,0.440314 -3.3440907,0.658421 -0.3567076,0.06186 -0.7086976,0.09835 -1.0330863,0.265171 0,0 -1.1219783,-0.118796 -1.1219783,-0.118796 v 0 c 0.3245565,-0.200808 0.6713199,-0.249078 1.0473931,-0.300257 1.1163517,-0.21201 2.2221202,-0.476242 3.3444352,-0.656809 0.08375,-0.01789 1.354124,-0.303694 1.407586,-0.272317 0.02564,0.01505 0.02556,0.05369 0.03834,0.08053 0.0016,-0.11235 0.0025,-0.224705 0.0033,-0.337063 0.0041,-0.593096 0.0046,-1.186202 0.0066,-1.779307 3.18e-4,-0.878137 0.0017,-1.756484 -0.02493,-2.634311 -0.03659,-0.953066 -0.09406,-1.907143 -0.250876,-2.849205 -0.148236,-0.958874 -0.17024,-1.922899 -0.25631,-2.888938 -0.138339,-1.339339 -0.331341,-2.67294 -0.369578,-4.020812 -0.123432,-1.631773 -0.302071,-3.259876 -0.292144,-4.898763 -0.07158,-1.915089 -0.204465,-3.825949 -0.31736,-5.738818 -0.02307,-1.911136 -0.04987,-3.825637 -0.250219,-5.728205 -0.18524,-1.523537 -0.38832,-3.054784 -0.761568,-4.544629 -0.271279,-0.95049 -0.483734,-1.954539 -1.0337374,-2.79076 -0.1559952,-0.210182 -0.3030525,-0.379127 -0.5290026,-0.516503 -0.050202,-0.03052 -0.2163101,-0.06951 -0.1581479,-0.07783 0.2111743,-0.03018 1.4295839,-0.04831 0.6398551,-0.01151 -0.9547259,0.08093 -1.9086419,0.171637 -2.8597888,0.287977 0,0 -1.1101959,-0.16171 -1.1101959,-0.16171 z"
       inkscape:connector-curvature="0" />
    <path
       style="fill:#000000;fill-opacity:0;stroke:#000000;stroke-width:1.46499991;stroke-miterlimit:4;stroke-dasharray:none;stroke-opacity:1"
       id="path890"
       d="m 24.235454,120.09216 c 1.788412,-2.70808 4.057476,-5.05833 6.264956,-7.42227 3.362065,-3.53302 7.031812,-6.75194 10.734214,-9.91958 1.884164,-1.59596 3.762206,-3.199205 5.613707,-4.833012 0.221938,-0.186018 0.428622,-0.391073 0.647636,-0.580012 0.455393,0.0096 0.910786,0.01918 1.366179,0.02878 0.103119,0.0068 0.206084,0.01664 0.309359,0.02053 0.132249,0.0049 0.529307,0.0037 0.396983,0.006 -1.726234,0.02893 0.597448,-0.01461 0.719273,-0.01593 2.207405,-0.02342 4.414954,-0.02683 6.62246,-0.0303 3.448883,-0.04771 6.894822,0.03885 10.34071,0.170711 3.016353,0.09975 6.025774,0.334167 9.040823,0.46795 1.655522,0.140386 2.988982,0.02008 4.641694,-0.109037 0.632232,-0.05386 1.264811,-0.103815 1.897856,-0.147169 0.143632,-0.0061 0.175112,0.0086 0.284102,-0.08544 0.84497,-0.722217 1.623255,-1.518274 2.437077,-2.276094 2.035601,-1.957745 4.140155,-3.840395 6.248667,-5.718667 2.507004,-2.248054 5.121949,-4.369435 7.679147,-6.558859 2.388113,-2.165096 4.879533,-4.209519 7.388353,-6.231864 1.79604,-1.393312 3.60298,-2.775222 5.34556,-4.235323 0.7374,-0.58805 1.34785,-1.315225 2.05784,-1.931474 0.72958,-0.623081 1.43824,-1.273903 2.14633,-1.922378 0.57441,-0.538017 1.24469,-0.97428 1.78527,-1.547257 0.18473,-0.180451 0.39166,-0.337613 0.61811,-0.461758 0.54639,-0.226508 1.39094,0.05367 1.99952,0.146433 2.05236,0.276156 4.11778,0.384501 6.18565,0.463921 3.05331,0.2457 6.11381,0.230343 9.17362,0.198051 2.09841,-0.02641 4.19679,-0.05393 6.29523,-0.07776 0.33955,-0.004 0.67911,-0.0072 1.01866,-0.01101 0.61541,-0.313912 1.09997,-1.13222 1.49699,-1.666158 1.47517,-2.283587 2.77543,-4.67306 4.21114,-6.982452 1.78794,-2.929913 3.78198,-5.730168 5.79403,-8.509042 2.13625,-2.978647 4.21239,-5.99957 6.34614,-8.979918 1.71046,-2.396316 3.47574,-4.753142 5.37129,-7.006392 0.94533,-1.12001 1.94181,-2.197597 2.84732,-3.350739 0.12794,-0.164174 0.25153,-0.331896 0.3665,-0.505319 1.82556,-0.02212 3.6291,0.327821 5.43376,0.572476 3.28655,0.481875 6.59191,0.808776 9.90536,1.031674 2.94223,0.17595 5.88974,0.22801 8.83651,0.250584 1.89207,-0.08845 1.11493,0.135027 2.81665,-0.03961 0.68864,-0.13467 1.37916,-0.241628 2.07876,-0.296637 0.47092,-0.03526 0.94298,-0.04623 1.41503,-0.04957 0.63335,-0.0011 1.26671,-0.0021 1.90005,0.0013 0.0727,7.94e-4 0.14551,5.29e-4 0.21827,5.29e-4 0,0 -1.11931,0.176956 -1.11931,0.176956 v 0 c -0.0724,-1.82e-4 -0.14473,-5.29e-4 -0.21709,-0.0011 -1.35541,-0.0083 1.23272,7.94e-4 0.3321,-0.0021 -0.4734,0.0013 -0.94689,0.0085 -1.41935,0.04104 -0.70008,0.04878 -1.39314,0.14269 -2.07949,0.291648 -1.65142,0.218742 -3.34766,-0.02931 -5.00924,0.04797 -2.93954,-0.02595 -5.87975,-0.08188 -8.81459,-0.2605 -3.32064,-0.226934 -6.63303,-0.557435 -9.92756,-1.035741 -1.00453,-0.136223 -2.00635,-0.288975 -3.01308,-0.407789 -0.20795,-0.02453 -0.41685,-0.04157 -0.6241,-0.07144 -0.14197,-0.02045 -0.55218,-0.0173 -0.42291,-0.07948 0.2558,-0.123021 0.56179,-0.0816 0.84268,-0.122405 -0.0932,0.19662 -0.25938,0.353124 -0.37964,0.532247 -0.91787,1.152038 -1.92228,2.2308 -2.87659,3.352231 -1.90248,2.248686 -3.67441,4.601779 -5.38858,6.996676 -2.13721,2.978134 -4.2116,6.000448 -6.34633,8.980416 -2.00981,2.776381 -4.00146,5.574596 -5.78733,8.501806 -1.4336,2.309079 -2.73343,4.695539 -4.18465,6.992498 -0.45464,0.627475 -0.92623,1.240279 -1.48353,1.772833 -0.3454,2.64e-4 -0.6908,0.0054 -1.03619,0.0075 -2.10972,0.01974 -4.21936,0.04621 -6.329,0.07242 -3.77239,0.03963 -7.54805,0.0787 -11.31338,-0.200523 -2.08024,-0.081 -4.15855,-0.19059 -6.22303,-0.471807 -0.13619,-0.02294 -0.27324,-0.04133 -0.40858,-0.06886 -0.0953,-0.01937 -0.37858,-0.05609 -0.28264,-0.07175 1.18119,-0.19278 1.28245,-0.09123 0.92615,-0.03676 -0.23185,0.09669 -0.4319,0.25713 -0.62073,0.419375 -0.53665,0.584065 -1.21432,1.018072 -1.79627,1.555261 -0.7067,0.649086 -1.4149,1.300294 -2.13933,1.927322 -0.7264,0.601875 -1.32685,1.348428 -2.07332,1.930887 -1.74948,1.461461 -3.56642,2.841122 -5.36964,4.235252 -2.51112,2.01985 -5.00565,4.061116 -7.39233,6.22822 -2.555872,2.189916 -5.172704,4.307985 -7.678137,6.556798 -2.102762,1.875862 -4.20276,3.754977 -6.225222,5.718014 -0.810469,0.761074 -1.595303,1.548214 -2.412256,2.300054 -0.152199,0.05647 -0.09541,0.176017 -0.291399,0.140692 -0.639067,0.03981 -1.277504,0.08937 -1.915541,0.143069 -2.269723,0.176945 -4.544526,0.253701 -6.819591,0.10954 -3.010794,-0.13733 -6.016259,-0.371571 -9.028684,-0.469077 -2.733077,-0.10418 -5.46096,-0.236707 -8.197511,-0.165079 -2.200971,0.004 -4.401992,0.0078 -6.602851,0.0323 -0.974675,0.01164 -1.948056,0.02252 -2.923069,0.01625 -0.133718,-7.94e-4 -0.267558,-0.0037 -0.400947,-0.01312 -0.105064,-0.0074 -0.41646,-0.01365 -0.313783,-0.03712 0.287531,-0.06568 0.586663,-0.06148 0.879994,-0.09222 -0.2037,0.214299 -0.456444,0.381889 -0.666716,0.589507 -1.87657,1.624301 -3.768241,3.230971 -5.666586,4.829751 -3.708924,3.15691 -7.381468,6.3705 -10.73712,9.90722 -2.190787,2.35432 -4.449696,4.69492 -6.202366,7.40544 0,0 -1.118121,-0.0625 -1.118121,-0.0625 z"
       inkscape:connector-curvature="0" />
    <path
       style="fill:#000000;fill-opacity:0;stroke:#000000;stroke-width:1.46499991;stroke-miterlimit:4;stroke-dasharray:none;stroke-opacity:1"
       id="path892"
       d="m 48.032146,47.866151 c 0.846526,1.40688 1.664419,2.83423 2.364475,4.320096 0.323035,0.628594 0.595675,1.275582 1.033608,1.834171 0,0 -1.119905,0.07271 -1.119905,0.07271 v 0 c -0.421163,-0.575014 -0.702193,-1.22296 -1.021011,-1.858042 -0.700564,-1.483153 -1.509403,-2.913589 -2.375289,-4.306411 0,0 1.118122,-0.06252 1.118122,-0.06252 z"
       inkscape:connector-curvature="0" />
    <path
       style="fill:#000000;fill-opacity:0;stroke:#000000;stroke-width:1.46499991;stroke-miterlimit:4;stroke-dasharray:none;stroke-opacity:1"
       id="path894"
       d="m 53.190436,47.4586 c 0.635735,1.835306 0.940636,3.739264 1.14926,5.662898 0.169791,1.839471 0.220921,3.686456 0.26076,5.532348 0,0 -1.104808,0.0021 -1.104808,0.0021 v 0 c -0.02829,-1.842678 -0.07789,-3.686538 -0.249388,-5.522439 -0.212995,-1.919026 -0.520202,-3.81948 -1.178467,-5.643597 0,0 1.122643,-0.03125 1.122643,-0.03125 z"
       inkscape:connector-curvature="0" />
    <path
       style="fill:#000000;fill-opacity:0;stroke:#000000;stroke-width:1.46499991;stroke-miterlimit:4;stroke-dasharray:none;stroke-opacity:1"
       id="path896"
       d="m 56.455058,56.745385 c 1.118309,-0.702262 2.288577,-1.286618 3.57188,-1.605812 0.846429,-0.14678 0.747345,-0.157411 1.998398,-0.09415 0.573281,0.02899 0.587346,0.642913 0.579784,1.061632 -0.07478,0.784157 -0.38128,1.521595 -0.630388,2.263056 -0.207923,0.524391 0.206695,0.807214 0.534524,1.157517 0.643115,0.458507 1.134002,0.99816 1.484937,1.70434 0.214688,0.73346 0.289465,1.484186 -0.192143,2.114976 -0.396113,0.410983 -0.97228,0.4782 -1.513197,0.52913 0,0 -1.114324,-0.167058 -1.114324,-0.167058 v 0 c 0.522486,-0.03744 1.099076,-0.07452 1.50604,-0.438843 0.496639,-0.568838 0.399476,-1.300237 0.195236,-1.985775 -0.357185,-0.692944 -0.868794,-1.20296 -1.487419,-1.672362 -0.3541,-0.379336 -0.757655,-0.71641 -0.538149,-1.278869 0.251788,-0.728708 0.557366,-1.45556 0.633725,-2.227916 0.0038,-0.274132 0.04295,-0.656058 -0.261753,-0.813485 -0.0924,-0.04774 -0.405781,-0.05066 -0.303802,-0.07109 0.230761,-0.04623 0.481502,-0.08018 0.705977,-0.0095 0.158406,0.0499 -0.328189,0.05119 -0.492287,0.07678 -1.283073,0.297522 -2.455391,0.860814 -3.561326,1.575163 0,0 -1.115713,-0.117769 -1.115713,-0.117769 z"
       inkscape:connector-curvature="0" />
    <path
       style="fill:#000000;fill-opacity:0;stroke:#000000;stroke-width:1.46499991;stroke-miterlimit:4;stroke-dasharray:none;stroke-opacity:1"
       id="path902"
       d="m 53.611909,63.043662 c 0.928854,2.404618 1.632492,4.884441 2.295464,7.372683 0.877993,3.499771 1.641467,7.028442 2.342377,10.567651 0.53689,2.452582 0.838145,4.945592 1.282227,7.414329 0.131929,0.732647 0.290761,1.462678 0.36332,2.204413 0.01074,0.158986 0.05087,0.306142 -0.02914,0.446305 0,0 -1.126059,-0.117507 -1.126059,-0.117507 v 0 c 0.1,0.07517 0.015,-0.257829 0.02754,-0.318209 -0.0668,-0.73828 -0.218387,-1.465771 -0.342802,-2.195679 -0.426649,-2.46946 -0.714738,-4.961972 -1.250974,-7.412705 -0.694674,-3.538336 -1.461582,-7.064356 -2.346113,-10.560359 -0.668843,-2.488136 -1.374773,-4.970357 -2.335049,-7.364899 0,0 1.119209,-0.03602 1.119209,-0.03602 z"
       inkscape:connector-curvature="0" />
    <path
       style="fill:#000000;fill-opacity:0;stroke:#000000;stroke-width:1.46499991;stroke-miterlimit:4;stroke-dasharray:none;stroke-opacity:1"
       id="path904"
       d="m 54.080179,85.993048 c 1.046978,1.340991 2.190086,2.608358 3.332438,3.869233 0.478086,0.488238 0.90451,1.07619 1.519811,1.409062 0.137578,0.07443 0.579848,0.09159 0.440309,0.162269 -0.205536,0.104108 -0.517665,0.116954 -0.690274,-0.03565 -0.120181,-0.10626 0.297545,-0.120026 0.446318,-0.180039 1.461519,-1.203994 2.524641,-2.83269 3.721928,-4.290912 0.611963,-0.804664 1.284687,-1.559245 1.956245,-2.313702 0,0 1.101545,0.08059 1.101545,0.08059 v 0 c -0.676212,0.750633 -1.353495,1.50169 -1.96342,2.308489 -1.205894,1.467181 -2.278513,3.084203 -3.705924,4.343596 -1.835473,0.909434 -2.826718,-0.161753 -3.928737,-1.402554 -1.143815,-1.268624 -2.289839,-2.540987 -3.349188,-3.880887 0,0 1.118949,-0.06949 1.118949,-0.06949 z"
       inkscape:connector-curvature="0" />
    <path
       style="fill:#000000;fill-opacity:0;stroke:#000000;stroke-width:1.46499991;stroke-miterlimit:4;stroke-dasharray:none;stroke-opacity:1"
       id="path906"
       d="m 109.73164,27.726021 c 1.34482,1.375502 2.50521,2.906458 3.61535,4.472622 0,0 -1.10049,0.0678 -1.10049,0.0678 v 0 c -1.10356,-1.565608 -2.26454,-3.094627 -3.63088,-4.443962 0,0 1.11602,-0.09646 1.11602,-0.09646 z"
       inkscape:connector-curvature="0" />
    <path
       style="fill:#000000;fill-opacity:0;stroke:#000000;stroke-width:1.46499991;stroke-miterlimit:4;stroke-dasharray:none;stroke-opacity:1"
       id="path908"
       d="m 120.84681,25.629784 c 0.37029,1.987847 0.4788,4.011008 0.5683,6.027146 0.0467,1.51407 0.0262,0.779796 0.0622,2.202802 0,0 -1.09987,0.0026 -1.09987,0.0026 v 0 c -0.0298,-1.421706 -0.011,-0.68821 -0.0579,-2.200455 -0.0905,-2.010124 -0.19532,-4.030133 -0.59266,-6.007547 0,0 1.11992,-0.02449 1.11992,-0.02449 z"
       inkscape:connector-curvature="0" />
    <path
       style="fill:#000000;fill-opacity:0;stroke:#000000;stroke-width:1.46499991;stroke-miterlimit:4;stroke-dasharray:none;stroke-opacity:1"
       id="path910"
       d="m 124.16077,33.046551 c 1.73369,-0.05576 3.03876,-0.296929 4.45963,0.816903 0.97539,1.022964 0.94343,2.349341 0.82885,3.666384 -0.0178,0.521825 -0.35184,1.850861 0.12373,2.258544 0.0815,0.06986 0.19576,0.0881 0.29365,0.132149 0.20298,0.07431 2.53746,0.185164 0.97441,0.03195 0,0 1.10332,0.163042 1.10332,0.163042 v 0 c -1.04855,0.04032 -2.15799,0.178792 -3.19411,-0.07509 -0.0995,-0.06404 -0.21776,-0.105675 -0.29862,-0.192104 -0.5262,-0.562456 -0.11084,-1.678058 -0.11387,-2.328227 0.11372,-1.281856 0.15095,-2.578036 -0.82772,-3.554148 -0.41271,-0.304321 -0.47442,-0.397404 -0.96494,-0.569105 -0.1936,-0.06777 -0.49157,0.0235 -0.59603,-0.153046 -0.0814,-0.137591 0.62814,0.0051 0.47724,-0.04772 -0.0504,-0.01762 -1.06503,0.01011 -1.15535,0.01217 0,0 -1.11019,-0.161711 -1.11019,-0.161711 z"
       inkscape:connector-curvature="0" />
    <path
       style="fill:#000000;fill-opacity:0;stroke:#000000;stroke-width:1.46499991;stroke-miterlimit:4;stroke-dasharray:none;stroke-opacity:1"
       id="path912"
       d="m 118.7582,39.167982 c 1.56827,2.129068 2.82758,4.464992 4.09853,6.777948 1.69432,3.158201 3.01485,6.497174 4.28941,9.841166 0.64926,1.595213 1.27582,3.199903 1.80321,4.839946 0.085,0.219768 0.0421,0.130316 0.11707,0.273537 0,0 -1.12961,0.05005 -1.12961,0.05005 v 0 c -0.0675,-0.156821 -0.029,-0.06127 -0.1085,-0.289407 -0.50488,-1.64085 -1.12437,-3.242018 -1.76287,-4.8349 -1.26404,-3.342495 -2.58276,-6.67726 -4.2841,-9.826178 -1.27793,-2.311262 -2.54187,-4.649782 -4.13985,-6.760207 0,0 1.11671,-0.07196 1.11671,-0.07196 z"
       inkscape:connector-curvature="0" />
    <path
       style="fill:#000000;fill-opacity:0;stroke:#000000;stroke-width:1.46499991;stroke-miterlimit:4;stroke-dasharray:none;stroke-opacity:1"
       id="path914"
       d="m 122.49418,56.839463 c 1.13123,1.217515 2.24832,2.447877 3.39204,3.654073 1.01796,1.021339 2.00311,2.174981 3.33555,2.78891 0.1227,-0.0016 0.48062,0.04382 0.36809,-0.0051 -0.2237,-0.09731 -0.58765,0.06019 -0.71701,-0.146643 -0.0949,-0.15181 0.28462,-0.220673 0.4036,-0.354476 0.55314,-0.622024 0.93122,-1.422966 1.3212,-2.147559 0.48708,-0.950907 0.88785,-1.941542 1.29262,-2.929051 0,0 1.09951,0.04293 1.09951,0.04293 v 0 c -0.40846,0.98946 -0.80963,1.983359 -1.29182,2.940135 -0.24095,0.45467 -1.17917,2.416625 -1.71293,2.578827 -0.91506,0.278077 -1.17713,0.221282 -1.875,0.146132 -1.31325,-0.662694 -2.3047,-1.79679 -3.32306,-2.830562 -1.14647,-1.211673 -2.27029,-2.444126 -3.41237,-3.659683 0,0 1.11958,-0.07791 1.11958,-0.07791 z"
       inkscape:connector-curvature="0" />
    <path
       style="fill:#000000;fill-opacity:0;stroke:#000000;stroke-width:1.46499991;stroke-miterlimit:4;stroke-dasharray:none;stroke-opacity:1"
       id="path916"
       d="m 166.24944,-0.5036468 c 0.67462,2.0489114 1.56603,4.0178132 2.43682,5.9887659 0.41812,1.0083421 0.88073,1.9970194 1.34448,2.9848465 0,0 -1.10192,0.048046 -1.10192,0.048046 v 0 c -0.45724,-0.9902766 -0.91456,-1.9807576 -1.33495,-2.9874662 -0.87134,-1.9766475 -1.7598,-3.9501999 -2.4649,-5.9939762 0,0 1.12047,-0.0402165 1.12047,-0.040216 z"
       inkscape:connector-curvature="0" />
    <path
       style="fill:#000000;fill-opacity:0;stroke:#000000;stroke-width:1.46499991;stroke-miterlimit:4;stroke-dasharray:none;stroke-opacity:1"
       id="path918"
       d="m 177.72312,9.5370845 c 1.80886,1.4178575 3.4945,2.9840305 5.12782,4.5983005 2.13021,2.109068 3.83078,4.574639 5.36871,7.132689 0.66208,1.19982 1.30898,2.408117 1.93653,3.626368 0.1,0.196401 0.0557,0.108621 0.13313,0.263132 0,0 -1.12909,0.05155 -1.12909,0.05155 v 0 c -0.0738,-0.153676 -0.0315,-0.06628 -0.12747,-0.261936 -0.60835,-1.220118 -1.24642,-2.425296 -1.90292,-3.62014 -1.52983,-2.553148 -3.22847,-5.008872 -5.35925,-7.105809 -1.64365,-1.613339 -3.33768,-3.180897 -5.16544,-4.5859573 0,0 1.11798,-0.098193 1.11798,-0.098193 z"
       inkscape:connector-curvature="0" />
    <path
       style="fill:#000000;fill-opacity:0;stroke:#000000;stroke-width:1.46499991;stroke-miterlimit:4;stroke-dasharray:none;stroke-opacity:1"
       id="path920"
       d="m 184.61519,23.136744 c 1.46901,1.019564 2.93326,2.042348 4.43223,3.017572 0.54194,0.249808 1.02449,0.749742 1.63348,0.858356 0.13337,0.02379 0.52651,0.04594 0.40612,-0.01622 -0.70984,-0.366466 -1.03514,0.147138 -0.3626,-0.507391 1.16081,-1.727595 2.17336,-3.549196 3.33303,-5.281387 0.20519,-0.296491 0.41037,-0.592983 0.61555,-0.889474 0,0 1.09623,0.06669 1.09623,0.06669 v 0 c -0.20667,0.295775 -0.41335,0.59155 -0.62002,0.887326 -1.16316,1.733278 -2.18221,3.55105 -3.31153,5.30283 -0.12235,0.132831 -0.19508,0.34336 -0.36705,0.398499 -1.62532,0.521121 -2.23861,0.100156 -3.52339,-0.709645 -1.49929,-0.980253 -2.96047,-2.01359 -4.44618,-3.014007 0,0 1.11413,-0.11316 1.11413,-0.11316 z"
       inkscape:connector-curvature="0" />
    <path
       style="fill:#000000;fill-opacity:0;stroke:#000000;stroke-width:1.46499991;stroke-miterlimit:4;stroke-dasharray:none;stroke-opacity:1"
       id="path922"
       d="m 50.496779,115.30775 c 0.18012,2.76341 0.258313,5.53374 0.226187,8.30258 -0.04669,1.91077 -0.117843,3.82081 -0.179364,5.73113 0,0 -1.094713,-0.004 -1.094713,-0.004 v 0 c 0.07311,-1.9092 0.147685,-3.81846 0.194336,-5.72853 0.03265,-2.76527 -0.04546,-5.53377 -0.263866,-8.29119 0,0 1.11742,-0.0101 1.11742,-0.0101 z"
       inkscape:connector-curvature="0" />
    <path
       style="fill:#000000;fill-opacity:0;stroke:#000000;stroke-width:1.46499991;stroke-miterlimit:4;stroke-dasharray:none;stroke-opacity:1"
       id="path924"
       d="m 43.087911,142.44012 c 0.60112,-1.12223 1.205659,-2.23942 1.871496,-3.32523 1.091652,-1.29865 2.236965,-0.21559 3.054183,0.60416 0.982271,1.15018 1.948164,2.31353 2.956703,3.44104 0.499832,0.52039 1.005673,1.25467 1.793325,1.2596 -0.290306,-0.0293 -0.61032,0.0432 -0.870921,-0.088 -0.109718,-0.0553 0.214979,-0.12012 0.314407,-0.19226 0.109453,-0.0794 0.210613,-0.16995 0.310462,-0.26115 0.311676,-0.28466 0.591547,-0.60401 0.875585,-0.91544 0.342855,-0.42312 0.682927,-0.84468 0.985002,-1.29833 0,0 1.124278,0.0662 1.124278,0.0662 v 0 c -0.30603,0.45843 -0.648216,0.88474 -0.991949,1.31479 -0.29409,0.32384 -1.088274,1.33313 -1.500191,1.41609 -0.446442,0.0899 -0.906877,0.0846 -1.360318,0.12687 -0.780216,-0.099 -1.281797,-0.8127 -1.787816,-1.3475 -1.004215,-1.12937 -1.963634,-2.29653 -2.958444,-3.43392 -0.235868,-0.22997 -0.542059,-0.5544 -0.825764,-0.74385 -0.106085,-0.0708 -0.456099,-0.11628 -0.341601,-0.17251 0.252664,-0.1241 0.560089,-0.0849 0.841333,-0.0729 0.09085,0.004 -0.180684,0.045 -0.254662,0.0978 -0.09762,0.0698 -0.165102,0.17417 -0.247655,0.26126 -0.674209,1.079 -1.283719,2.19121 -1.867053,3.32152 0,0 -1.1204,-0.0582 -1.1204,-0.0582 z"
       inkscape:connector-curvature="0" />
    <path
       style="fill:#000000;fill-opacity:0;stroke:#000000;stroke-width:1.46499991;stroke-miterlimit:4;stroke-dasharray:none;stroke-opacity:1"
       id="path926"
       d="m 63.43992,133.6779 c 0.662776,1.96821 1.19152,3.98692 1.672257,6.00729 0.482497,2.22089 0.779105,4.47417 1.178851,6.70975 0.04247,0.22518 0.08494,0.45037 0.127402,0.67555 0,0 -1.111083,0.0202 -1.111083,0.0202 v 0 c -0.04041,-0.22552 -0.08083,-0.45104 -0.121246,-0.67656 -0.385016,-2.23527 -0.681979,-4.48548 -1.16559,-6.70333 -0.484473,-2.01698 -1.009692,-4.03652 -1.701061,-5.9927 0,0 1.12047,-0.0402 1.12047,-0.0402 z"
       inkscape:connector-curvature="0" />
    <path
       style="fill:#000000;fill-opacity:0;stroke:#000000;stroke-width:1.46499991;stroke-miterlimit:4;stroke-dasharray:none;stroke-opacity:1"
       id="path928"
       d="m 73.842964,136.19731 c 1.811983,-0.52199 3.597534,-1.12943 5.404366,-1.6681 1.122092,-0.32512 2.268392,-0.54689 3.419332,-0.73866 0,0 1.100902,0.15612 1.100902,0.15612 v 0 c -1.155094,0.18524 -2.30573,0.40071 -3.43194,0.72285 -1.800764,0.53244 -3.578201,1.13957 -5.37895,1.67255 0,0 -1.11371,-0.14476 -1.11371,-0.14476 z"
       inkscape:connector-curvature="0" />
    <path
       style="fill:#000000;fill-opacity:0;stroke:#000000;stroke-width:1.46499991;stroke-miterlimit:4;stroke-dasharray:none;stroke-opacity:1"
       id="path930"
       d="m 79.648769,136.283 c 0.451612,1.55336 0.906282,3.10366 1.430951,4.63454 0.430223,1.30909 0.809739,2.63387 1.144378,3.97037 0,0 -1.111136,0.027 -1.111136,0.027 v 0 c -0.327475,-1.33425 -0.707162,-2.65521 -1.13452,-3.961 -0.525804,-1.53428 -0.98135,-3.08844 -1.452316,-4.63966 0,0 1.122643,-0.0313 1.122643,-0.0313 z"
       inkscape:connector-curvature="0" />
  </g>
</svg>
